<svg xmlns="http://www.w3.org/2000/svg" viewBox="0 0 926.04 342.451">
  <title>Asset 2</title>
  <path d="M16.72,334.451l10.491-13.02c48.235-59.86,97.237-90.47,145.645-90.979.424,0,.843-.007,1.263-.007,16.449,0,30.7,3.434,44.473,6.755,14.3,3.447,29.094,7.012,47.157,7.012a148.795,148.795,0,0,0,22.019-1.674c23.671-3.509,36.634-10.5,51.646-18.6a250.819,250.819,0,0,1,26.536-12.906,170.805,170.805,0,0,1,65.039-12.459c39.692,0,76.953,12.533,109.829,23.592,26.356,8.865,51.25,17.239,72.225,17.237,14.012,0,25.126-3.579,34.979-11.26,11.745-9.155,17.951-21.646,24.521-34.872,9.895-19.918,21.109-42.492,52.888-58.008,14.6-7.131,26.07-9.121,37.158-11.046,2.861-.5,5.82-1.01,8.766-1.606,44.9-9.072,89.356-37.839,132.131-85.5L917.74,21.225l-4.412,313.226Z" style="fill:#8ace84"/>
  <path d="M909.44,42.451q-2,142-4,284h-872c57.693-71.6,105.448-87.642,139.5-88,.4,0,.788-.006,1.18-.006,32.091,0,54.855,13.767,91.63,13.767a157.476,157.476,0,0,0,23.19-1.761c38.01-5.634,50.908-20.277,80-32a163.768,163.768,0,0,1,62.05-11.879c70.4.006,133.06,40.829,182.054,40.829,14.552,0,27.908-3.605,39.9-12.95,31.65-24.671,25.732-67.458,76-92,17.292-8.442,29.753-9.121,44-12,34.223-6.916,81.9-27.161,136.5-88M926.04,0,897.533,31.764c-41.6,46.352-84.585,74.279-127.762,83-2.839.574-5.613,1.055-8.551,1.565-11.1,1.927-23.672,4.111-39.3,11.74-34.223,16.708-46.6,41.62-56.543,61.637-6.421,12.924-11.966,24.086-22.274,32.122-8.375,6.528-17.927,9.569-30.06,9.569-19.666,0-43.957-8.17-69.675-16.82-33.457-11.252-71.378-24.006-112.378-24.009A178.629,178.629,0,0,0,362.96,203.61,257.418,257.418,0,0,0,335.615,216.9c-14.348,7.74-26.739,14.425-49.021,17.728a140.844,140.844,0,0,1-20.844,1.588c-17.113,0-30.8-3.3-45.282-6.79-14.232-3.43-28.948-6.977-46.348-6.977-.448,0-.9,0-1.348.007-22.831.24-45.873,6.733-68.488,19.3-27.8,15.448-55.83,40.568-83.3,74.662L0,342.451H921.217l.222-15.775,2-142,2-142L926.04,0Z" style="fill:#c5e7c1"/>
</svg>