<svg xmlns="http://www.w3.org/2000/svg" viewBox="0 0 928.806 317.552"><title>Asset 1</title><path d="M12.361,8H910.527l-12.4,13.428c-56.247,60.9-115.783,95.4-176.951,102.518a166.243,166.243,0,0,1-19.407,1.165c-17.643,0-31.751-3.023-46.687-6.223-17.7-3.793-36-7.714-63.764-7.714-7.154,0-14.73.271-22.519.807-41.659,2.866-66.009,9.84-89.558,16.584-21.568,6.178-43.871,12.565-78.334,15.408-7.905.652-15.884.983-23.713.983-49.492,0-87.517-12.828-118.071-23.135-18.871-6.366-35.169-11.864-48-11.864-8.785,0-15.415,2.459-21.5,7.971-11.861,10.749-11.59,26.51-11.247,46.463.371,21.559.832,48.39-15.822,75.317-23.9,38.648-72.881,61.614-145.575,68.259l-8.853.809Z" style="fill:#f56a68"/><path d="M892.249,16c-69.141,74.863-129.857,95.092-172,100a158.976,158.976,0,0,1-18.481,1.111c-36.856,0-57.885-13.937-110.452-13.937-7.076,0-14.732.253-23.067.826-80.987,5.571-97.134,26.154-168,32-7.954.656-15.626.956-23.057.956-80.2,0-130.64-35-166.074-35-10.048,0-18.9,2.817-26.869,10.043-29.443,26.684,1.981,74.215-28.5,123.5C128.107,280.2,68.812,295.2,16.249,300q2-142,4-284h872M928.806,0H4.473L4.25,15.775l-2,142-2,142L0,317.552l17.7-1.618c32.384-2.961,60.5-9.141,83.58-18.369,30.76-12.3,53.663-30.352,68.072-53.649,17.888-28.925,17.405-57.058,17.016-79.663-.362-21.083-.143-32.455,8.62-40.4,4.562-4.135,9.385-5.9,16.125-5.9,11.523,0,27.244,5.3,45.447,11.444,31.108,10.494,69.823,23.555,120.627,23.555,8.048,0,16.248-.34,24.372-1.01,35.25-2.908,57.938-9.406,79.879-15.69,24.215-6.935,47.087-13.486,87.9-16.294,7.607-.523,15-.788,21.969-.788,26.916,0,44.8,3.831,62.088,7.536,15.363,3.292,29.873,6.4,48.364,6.4a174.356,174.356,0,0,0,20.332-1.218c27.514-3.2,54.89-11.765,81.369-25.445,34.3-17.719,68.122-44.5,100.534-79.592L928.806,0Z" style="fill:#fab5b3"/></svg>