<svg xmlns="http://www.w3.org/2000/svg" viewBox="0 0 256 256"><title>cosmosColor</title><path d="M33.717,75.807c-13.874,0-31.181-5.763-51.44-17.127a2.5,2.5,0,0,1-1.107-1.272c-11.557-29.666-12.531-54.242-2.9-73.048C-5.977-46.374,39.817-64,103.915-64c63.555,0,135.79,18.869,142.025,46.959,4.1,18.469-19.834,42.506-38.137,53.676C189.084,48.057,170.038,49.27,158.659,50c-3.007.192-6.028.289-8.98.289-16.63,0-29.541-3.06-39.915-5.518-7.379-1.749-13.752-3.259-19.556-3.259a25.893,25.893,0,0,0-14.377,4.109c-5.757,3.62-7.982,7.624-10.339,11.863-2.506,4.509-5.1,9.171-11.7,13.161A38.233,38.233,0,0,1,33.72,75.807Z" style="fill:#f56a67"/><path d="M103.915-61.5c66.156,0,134.018,19.922,139.585,45,3.713,16.727-19.29,40.193-37,51-17.828,10.879-35.678,12.215-48,13-3.062.2-6,.284-8.821.284-28.1,0-44.906-8.777-59.472-8.777A28.309,28.309,0,0,0,74.5,43.5c-12.551,7.892-9.89,17.681-22,25a35.711,35.711,0,0,1-18.782,4.807C17.32,73.307-1.3,65.023-16.5,56.5c-14.8-38-8.808-59.665-3-71,17.4-33.949,69.842-47,123.415-47m0-5c-29.155,0-55.743,3.817-76.89,11.038C1.969-46.907-15.182-33.892-23.95-16.78c-9.976,19.469-9.037,44.735,2.791,75.1a5.007,5.007,0,0,0,2.213,2.546C1.983,72.6,19.209,78.307,33.718,78.307a40.688,40.688,0,0,0,21.368-5.528c7.17-4.333,10.051-9.514,12.592-14.086,2.291-4.122,4.27-7.682,9.483-10.96a23.2,23.2,0,0,1,13.046-3.726c5.513,0,11.754,1.479,18.98,3.191,10.5,2.489,23.57,5.586,40.492,5.586,3,0,6.08-.1,9.139-.294,11.61-.74,31.04-1.978,50.286-13.722,18.938-11.556,43.644-36.679,39.277-56.351-2.155-9.708-12.658-23.764-50.459-35.594C170.865-61.645,136.6-66.5,103.915-66.5Z" style="fill:#fab5b3"/><path d="M153.155,275.7c-41.49,0-73.68-.658-95.675-1.954-36.046-2.125-39.24-5.511-39.472-9.086-.188-2.883,2.848-5.1,7.051-8.177,3-2.2,8.6-6.288,8.034-8.317-.2-.727-1.676-1.288-3.239-1.884-2.595-.989-5.823-2.22-7.577-5.644-1.893-3.7-1.445-9.157,1.2-14.6,2.421-4.987,7.252-10.757,13.546-11.991a11.461,11.461,0,0,1,2.2-.222c4.417,0,7.625,2.661,12.481,6.689a135.4,135.4,0,0,0,13.167,9.894c11.641,7.615,22.632,14.806,34.083,14.805a27.22,27.22,0,0,0,3.249-.195c6.338-.766,9.743-3.458,13.349-6.31,4.012-3.173,8.161-6.454,15.869-6.707.3-.01.6-.015.893-.015,7.2,0,11.628,2.964,15.914,5.831,3.9,2.61,7.933,5.308,14.608,6.2a26.938,26.938,0,0,0,3.558.252c5.152,0,8.527-1.727,13.2-4.119a68.541,68.541,0,0,1,19.421-7.106,74.314,74.314,0,0,1,14.764-1.453A110.4,110.4,0,0,1,235.4,234.1a56.64,56.64,0,0,0,9.322,1.334c2.475,0,3.263-.674,3.707-1.334,1.694-2.517-.944-7.462-3.5-12.245-3.239-6.07-6.588-12.348-3.6-17.595,2.254-3.964,7.357-5.892,15.6-5.892,8.8,0,21.665,2.259,38.222,6.714A2.5,2.5,0,0,1,297,207.461l1,64A2.5,2.5,0,0,1,295.554,274c-55.779,1.13-103.685,1.7-142.386,1.7Z" style="fill:#8ace84"/><path d="M256.93,200.872c7.939,0,19.9,1.874,37.572,6.628q.5,32,1,64c-51.453,1.042-100.388,1.7-142.345,1.7-78.285,0-132.238-2.3-132.655-8.7-.237-3.647,16.751-10.684,15-17-1.109-4-8.442-3-11-8-3.5-6.831,3.815-21.2,13-23a8.938,8.938,0,0,1,1.721-.174c6.013,0,9.9,6.766,24.279,16.174,11.908,7.79,23.255,15.213,35.452,15.213a29.532,29.532,0,0,0,3.548-.213c14.317-1.73,15.46-12.556,29-13,.276-.009.545-.013.811-.013,12.655,0,15.43,10.028,30.189,12.013a29.125,29.125,0,0,0,3.891.275c11.367,0,15.36-7.72,33.109-11.275a72.383,72.383,0,0,1,14.275-1.405c13.948,0,24.5,3.843,30.945,3.843,2.627,0,4.57-.639,5.78-2.438,5.053-7.506-11.618-21.878-7-30,1.563-2.748,5.477-4.628,13.428-4.628m0-5c-9.222,0-15.036,2.341-17.774,7.156-3.664,6.444.18,13.65,3.572,20.007,1.455,2.728,4.482,8.4,3.627,9.673a3.273,3.273,0,0,1-1.633.23,55.691,55.691,0,0,1-8.85-1.289,112.568,112.568,0,0,0-22.1-2.554,76.846,76.846,0,0,0-15.256,1.5,70.705,70.705,0,0,0-20.07,7.333c-4.521,2.315-7.508,3.845-12.058,3.845a24.462,24.462,0,0,1-3.224-.23c-6.1-.821-9.72-3.242-13.553-5.806-4.38-2.93-9.346-6.252-17.3-6.252-.321,0-.644,0-.976.016-8.53.28-13.209,3.98-17.337,7.244-3.466,2.741-6.459,5.108-12.1,5.789a24.742,24.742,0,0,1-2.949.177c-10.707,0-21.4-6.993-32.714-14.4A133.3,133.3,0,0,1,53.3,218.59c-5.084-4.217-8.758-7.264-14.076-7.264a13.965,13.965,0,0,0-2.684.268c-7.2,1.411-12.63,7.823-15.314,13.353-3.029,6.238-3.457,12.373-1.174,16.832,2.191,4.279,6.235,5.821,8.911,6.841.336.128.75.286,1.13.442a45.564,45.564,0,0,1-6.51,5.406c-4.663,3.41-8.346,6.1-8.07,10.356.376,5.782,7.432,7.5,14.017,8.661a261.89,261.89,0,0,0,27.805,2.758c22.044,1.3,54.283,1.959,95.822,1.959,38.726,0,86.652-.573,142.447-1.7a5,5,0,0,0,4.9-5.077l-1-64a5,5,0,0,0-3.7-4.75c-17.006-4.576-29.721-6.8-38.872-6.8Z" style="fill:#c5e7c1"/><path d="M145.5-82.5a220.68,220.68,0,0,1,53,72,220.941,220.941,0,0,1,20,95" style="fill:none;stroke:#474747;stroke-linejoin:round;stroke-width:5px"/><path d="M218.5,84.5a193.611,193.611,0,0,0-140,22" style="fill:none;stroke:#474747;stroke-linejoin:round;stroke-width:5px"/><path d="M78.5,106.5a104.735,104.735,0,0,0,74,69" style="fill:none;stroke:#474747;stroke-linejoin:round;stroke-width:5px"/><path d="M152.5,175.5c5.422-.716,32.1-4.815,51-29,20.981-26.844,15.87-57.3,15-62" style="fill:none;stroke:#474747;stroke-linejoin:round;stroke-width:5px"/><path d="M78.5,106.5q-20.372,9.791-41,20-14.115,6.987-28,14" style="fill:none;stroke:#474747;stroke-linejoin:round;stroke-width:5px"/><path d="M152.5,175.5a110.835,110.835,0,0,1-77,6" style="fill:none;stroke:#474747;stroke-linejoin:round;stroke-width:5px"/><path d="M152.5,175.5a96.922,96.922,0,0,1,62,87" style="fill:none;stroke:#474747;stroke-linejoin:round;stroke-width:5px"/><circle cx="218" cy="84" r="13" style="fill:#474747"/><path d="M80,97a11,11,0,1,0,11,11A10.994,10.994,0,0,0,80,97Zm0,19a8,8,0,1,1,8-8A8,8,0,0,1,80,116Z" style="fill:#474747"/><circle cx="80" cy="108" r="8" style="fill:#474747"/><path d="M152,157a18,18,0,1,0,18,18A18,18,0,0,0,152,157Zm0,26a8,8,0,1,1,8-8A8,8,0,0,1,152,183Z" style="fill:#474747"/><circle cx="152" cy="175" r="8" style="fill:#474747"/><circle cx="75" cy="181" r="11" style="fill:#474747"/><path d="M14,130a9,9,0,1,0,9,9A9,9,0,0,0,14,130Zm0,15.53A6.53,6.53,0,1,1,20.53,139,6.525,6.525,0,0,1,14,145.53Z" style="fill:#474747"/><circle cx="218" cy="84" r="8" style="fill:#fafafa"/><circle cx="80" cy="108" r="8" style="fill:#fafafa"/><circle cx="152" cy="175" r="8" style="fill:#fafafa"/><circle cx="14" cy="139" r="6.53" transform="translate(-125.448 130.554) rotate(-80.783)" style="fill:#fafafa"/><circle cx="75" cy="181" r="6.534" style="fill:#fafafa"/><circle cx="116" cy="90" r="7" style="fill:#2ea3d6;stroke:#fafafa;stroke-miterlimit:10;stroke-width:2px"/><circle cx="113" cy="157" r="7" style="fill:#6dc265;stroke:#fafafa;stroke-miterlimit:10;stroke-width:2px"/><circle cx="208" cy="140" r="7" style="fill:#f5be55;stroke:#fafafa;stroke-miterlimit:10;stroke-width:2px"/></svg>