<?xml version="1.0" encoding="utf-8"?>
<!-- Generator: Adobe Illustrator 22.1.0, SVG Export Plug-In . SVG Version: 6.00 Build 0)  -->
<svg version="1.1" id="Layer_1" xmlns="http://www.w3.org/2000/svg" xmlns:xlink="http://www.w3.org/1999/xlink" x="0px" y="0px"
	 viewBox="0 0 256 256" style="enable-background:new 0 0 256 256;" xml:space="preserve">
<style type="text/css">
	.st0{fill:#FFFFFF;}
	.st1{fill:none;stroke:#FFFFFF;stroke-width:8;stroke-miterlimit:10;}
</style>
<g>
	<path class="st0" d="M192,44c13.2,0,24,10.8,24,24s-10.8,24-24,24s-24-10.8-24-24S178.8,44,192,44 M192,36c-17.7,0-32,14.3-32,32
		s14.3,32,32,32s32-14.3,32-32S209.7,36,192,36L192,36z"/>
</g>
<g>
	<path class="st0" d="M52,56c19.9,0,36,16.1,36,36s-16.1,36-36,36s-36-16.1-36-36S32.1,56,52,56 M52,48C27.7,48,8,67.7,8,92
		s19.7,44,44,44s44-19.7,44-44S76.3,48,52,48L52,48z"/>
</g>
<path class="st1" d="M192,68c-23.1,21.7-39.8,49.4-48,80"/>
<path class="st1" d="M188,192c-14.2-15.1-28.9-29.8-44-44"/>
<path class="st1" d="M52,92c32.5,15.4,63.4,34.2,92,56"/>
<circle class="st0" cx="52" cy="92" r="16"/>
<circle class="st0" cx="192" cy="68" r="16"/>
<circle class="st0" cx="188" cy="192" r="11.9"/>
<circle class="st0" cx="144" cy="148" r="16"/>
<g>
	<path class="st0" d="M144,110c12.2,0,23.7,5.9,30.8,15.8l35.9,49.8c3.4,4.8,5.3,10.4,5.3,16.4c0,15.4-12.6,28-28,28
		c-5.9,0-11.6-1.8-16.4-5.3l-49.8-35.9c-9.9-7.1-15.8-18.6-15.8-30.8C106,127.1,123.1,110,144,110 M144,102c-25.4,0-46,20.6-46,46
		c0,15.4,7.5,29,19.1,37.3l49.8,35.9c5.9,4.3,13.2,6.8,21,6.8c19.9,0,36-16.1,36-36c0-7.8-2.5-15.1-6.8-21l-35.9-49.8
		C173,109.6,159.4,102,144,102L144,102z"/>
</g>
</svg>
