<?xml version="1.0" encoding="utf-8"?>
<!-- Generator: Adobe Illustrator 22.1.0, SVG Export Plug-In . SVG Version: 6.00 Build 0)  -->
<svg version="1.1" id="Layer_3" xmlns="http://www.w3.org/2000/svg" xmlns:xlink="http://www.w3.org/1999/xlink" x="0px" y="0px"
	 viewBox="0 0 256 256" style="enable-background:new 0 0 256 256;" xml:space="preserve">
<style type="text/css">
	.st0{fill:#FFFFFF;}
</style>
<g>
	<path class="st0" d="M218,158l-77.5-44.7v13.9l71.5,41.2c3.1,1.8,5,5,5,8.7s-1.9,6.9-5,8.7l-79,45.6c-3.1,1.8-6.9,1.8-9.9,0l0,0
		l-78.9-44.8c-3.1-1.8-5-5-5.1-8.6c0-3.6,1.8-6.9,4.9-8.7l72.5-42.5v-13.9l-78.6,46C31,162.8,27,170,27,177.9
		c0.1,8,4.2,15.1,11.1,19l78.9,44.8c0,0,0,0,0,0c3.4,1.9,7.1,2.9,10.9,2.9c3.8,0,7.6-1,11-2.9l79-45.6c6.9-4,11-11.1,11-19.1
		S224.9,161.9,218,158z"/>
	<path class="st0" d="M203.5,74.5l13.9-13.9c2.3-2.3,2.3-6.1,0-8.5c-2.3-2.3-6.1-2.3-8.5,0l-16.3,16.3H167V43l16.3-16.3
		c2.3-2.3,2.3-6.1,0-8.5c-2.3-2.3-6.1-2.3-8.5,0L161,32l-13.9-13.9c-2.3-2.3-6.1-2.3-8.5,0c-2.3,2.3-2.3,6.1,0,8.5L155,43v29
		l-26.5,26.5L102,72V43l16.4-16.4c2.3-2.3,2.3-6.1,0-8.5c-2.3-2.3-6.1-2.3-8.5,0L96,32L82.2,18.2c-2.3-2.3-6.1-2.3-8.5,0
		c-2.3,2.3-2.3,6.1,0,8.5L90,43v25.5H64.5L48.2,52.2c-2.3-2.3-6.1-2.3-8.5,0c-2.3,2.3-2.3,6.1,0,8.5l13.9,13.9L39.7,88.4
		c-2.3,2.3-2.3,6.1,0,8.5c1.2,1.2,2.7,1.8,4.2,1.8s3.1-0.6,4.2-1.8l16.4-16.4h29l29,29v59c0,3.3,2.7,6,6,6c3.3,0,6-2.7,6-6v-59
		l29-29h29l16.4,16.4c1.2,1.2,2.7,1.8,4.2,1.8s3.1-0.6,4.2-1.8c2.3-2.3,2.3-6.1,0-8.5L203.5,74.5z"/>
</g>
</svg>
