<?xml version="1.0" encoding="utf-8"?>
<!-- Generator: Adobe Illustrator 22.0.0, SVG Export Plug-In . SVG Version: 6.00 Build 0)  -->
<svg version="1.1" xmlns="http://www.w3.org/2000/svg" xmlns:xlink="http://www.w3.org/1999/xlink" x="0px" y="0px"
	 viewBox="0 0 512 512" style="enable-background:new 0 0 512 512;" xml:space="preserve">
<style type="text/css">
	.st0{fill:#6FD6AD;}
	.st1{fill:#F56A67;}
	.st2{fill:#EFEFEF;}
</style>
<g id="Layer_2_copy">
	<text transform="matrix(1 0 0 1 83.568 577)"><tspan x="0" y="0" class="st0" style="font-family:'Nunito-Bold'; font-size:58px;">Mobile Glove</tspan><tspan x="28.6" y="69.6" class="st0" style="font-family:'Nunito-Bold'; font-size:58px;">Interaction</tspan></text>
</g>
<g id="Layer_2_1_">
	<g>
		<path class="st1" d="M256,7.7C152.6,7.7,68.7,91.6,68.7,195S152.6,382.3,256,382.3S443.3,298.4,443.3,195S359.4,7.7,256,7.7z
			 M376.4,304.1c0,6.3-5.1,11.3-11.3,11.3H146.9c-6.3,0-11.3-5.1-11.3-11.3V85.9c0-6.3,5.1-11.3,11.3-11.3h218.1
			c6.3,0,11.3,5.1,11.3,11.3V304.1z"/>
		<g>
			<path class="st2" d="M156.6,103.9c-2.5-1-3-2.7-3-4c0-2.5,1.8-4.2,4.2-4.2c0.7,0,1.4,0.1,2.3,0.5l25.6,10.8
				c2.7,1.1,3.2,3.1,3.2,4.5c0,1.5-0.5,3.4-3.2,4.6l-25.6,10.8c-0.9,0.4-1.7,0.5-2.3,0.5c-2.4,0-4.2-1.7-4.2-4.2c0-1.3,0.5-3,3-4
				l18.1-7.5L156.6,103.9z"/>
			<path class="st2" d="M196.9,142.7c-2.9,0-3.3-2-3.3-3c0-0.9,0.5-2.9,3.3-2.9h26.8c2.9,0,3.3,2,3.3,2.9c0,1-0.5,3-3.3,3H196.9z"/>
		</g>
	</g>
</g>
<g id="Layer_3">
	<g>
		<path class="st1" d="M101.4,434.1c-0.6-0.6-1-1.5-1-2.6v-33.8c0-1.1,0.3-2,1-2.6c0.6-0.6,1.5-0.9,2.6-0.9h11.5
			c6.7,0,11.9,1.8,15.6,5.4c3.7,3.6,5.5,8.6,5.5,15.1c0,6.5-1.8,11.5-5.5,15.1c-3.7,3.6-8.9,5.4-15.6,5.4h-11.5
			C102.9,435,102.1,434.7,101.4,434.1z M115.1,428.9c9.4,0,14.1-4.8,14.1-14.4c0-9.6-4.7-14.3-14.1-14.3h-7.1v28.7H115.1z"/>
		<path class="st1" d="M144,399.8c-0.8-0.7-1.2-1.7-1.2-2.8s0.4-2.1,1.2-2.8c0.8-0.7,1.8-1,3.1-1c1.3,0,2.3,0.3,3.1,1
			c0.8,0.7,1.2,1.6,1.2,2.8s-0.4,2.1-1.2,2.8c-0.8,0.7-1.8,1.1-3.1,1.1C145.8,400.9,144.8,400.5,144,399.8z M144.6,434.4
			c-0.7-0.6-1-1.5-1-2.6v-22.4c0-1.1,0.3-2,1-2.6c0.7-0.6,1.5-0.9,2.6-0.9c1,0,1.9,0.3,2.6,0.9c0.7,0.6,1,1.4,1,2.6v22.4
			c0,1.1-0.3,2-1,2.6c-0.7,0.6-1.6,0.9-2.6,0.9C146.1,435.3,145.2,435,144.6,434.4z"/>
		<path class="st1" d="M184.9,407c0.7,0.6,1,1.4,1,2.5v22.9c0,4.4-1.2,7.8-3.7,10.1c-2.5,2.3-6.1,3.4-11,3.4
			c-4.2,0-7.7-0.8-10.6-2.4c-1.4-0.9-2.1-1.9-2.1-3.1c0-0.9,0.2-1.5,0.6-2c0.4-0.5,0.9-0.8,1.6-0.8c0.3,0,0.8,0.1,1.3,0.3
			c0.5,0.2,1,0.4,1.6,0.6c1.4,0.6,2.6,1,3.7,1.3c1.1,0.3,2.4,0.5,3.8,0.5c5.1,0,7.6-2.5,7.6-7.4v-3.7c-0.9,1.6-2.1,2.8-3.7,3.7
			s-3.5,1.3-5.6,1.3c-2.5,0-4.7-0.6-6.6-1.8c-1.9-1.2-3.4-2.8-4.5-5c-1.1-2.1-1.6-4.6-1.6-7.4s0.5-5.2,1.6-7.4
			c1.1-2.1,2.6-3.8,4.5-5c1.9-1.2,4.1-1.8,6.6-1.8c2.1,0,3.9,0.4,5.6,1.3s2.9,2.1,3.7,3.7v-1.5c0-1,0.3-1.8,1-2.4
			c0.7-0.6,1.5-0.9,2.6-0.9C183.4,406.1,184.3,406.4,184.9,407z M176.8,426.3c1.3-1.5,1.9-3.6,1.9-6.2c0-2.7-0.6-4.8-1.9-6.3
			c-1.3-1.5-3.1-2.3-5.4-2.3c-2.3,0-4.1,0.8-5.4,2.3c-1.3,1.5-2,3.6-2,6.3c0,2.6,0.7,4.7,2,6.2c1.3,1.5,3.1,2.3,5.4,2.3
			C173.7,428.6,175.5,427.8,176.8,426.3z"/>
		<path class="st1" d="M193.8,399.8c-0.8-0.7-1.2-1.7-1.2-2.8s0.4-2.1,1.2-2.8c0.8-0.7,1.8-1,3.1-1c1.3,0,2.3,0.3,3.1,1
			c0.8,0.7,1.2,1.6,1.2,2.8s-0.4,2.1-1.2,2.8c-0.8,0.7-1.8,1.1-3.1,1.1C195.7,400.9,194.6,400.5,193.8,399.8z M194.4,434.4
			c-0.7-0.6-1-1.5-1-2.6v-22.4c0-1.1,0.3-2,1-2.6c0.7-0.6,1.5-0.9,2.6-0.9c1,0,1.9,0.3,2.6,0.9c0.7,0.6,1,1.4,1,2.6v22.4
			c0,1.1-0.3,2-1,2.6c-0.7,0.6-1.6,0.9-2.6,0.9C195.9,435.3,195.1,435,194.4,434.4z"/>
		<path class="st1" d="M225.7,432.6c0,0.9-0.4,1.6-1.1,2.1c-0.8,0.5-1.8,0.7-3.2,0.6l-1.6-0.1c-6.5-0.5-9.7-3.9-9.7-10.4v-12.6h-2.9
			c-1,0-1.8-0.2-2.4-0.7c-0.6-0.5-0.8-1.1-0.8-2s0.3-1.6,0.8-2s1.4-0.7,2.4-0.7h2.9v-5.3c0-1,0.3-1.9,1-2.5c0.7-0.6,1.5-0.9,2.7-0.9
			c1.1,0,2,0.3,2.6,0.9c0.7,0.6,1,1.5,1,2.5v5.3h4.9c1,0,1.8,0.2,2.4,0.7c0.6,0.5,0.8,1.1,0.8,2s-0.3,1.6-0.8,2
			c-0.6,0.5-1.4,0.7-2.4,0.7h-4.9v13.2c0,2.9,1.3,4.4,3.9,4.6l1.6,0.1C224.8,430.1,225.7,430.9,225.7,432.6z"/>
		<path class="st1" d="M250.6,408.9c1.9,2,2.9,4.9,2.9,8.9v14.2c0,1-0.3,1.9-0.9,2.5c-0.6,0.6-1.5,0.9-2.6,0.9c-1,0-1.8-0.3-2.5-0.9
			c-0.6-0.6-1-1.4-1-2.4v-1.3c-0.7,1.5-1.7,2.7-3.1,3.5c-1.4,0.8-3,1.3-4.9,1.3c-1.9,0-3.6-0.4-5.2-1.2c-1.5-0.8-2.8-1.8-3.7-3.2
			c-0.9-1.4-1.3-2.9-1.3-4.5c0-2.1,0.5-3.7,1.6-4.9c1.1-1.2,2.8-2.1,5.2-2.6c2.4-0.5,5.7-0.8,9.9-0.8h1.4v-1.3
			c0-1.9-0.4-3.3-1.2-4.1s-2.1-1.3-3.9-1.3c-1.1,0-2.3,0.2-3.4,0.5c-1.2,0.3-2.5,0.8-4.1,1.4c-1,0.5-1.7,0.8-2.2,0.8
			c-0.7,0-1.3-0.3-1.7-0.8c-0.4-0.5-0.7-1.2-0.7-2c0-0.7,0.2-1.2,0.5-1.7c0.3-0.5,0.9-0.9,1.7-1.4c1.4-0.7,3-1.3,4.8-1.7
			c1.9-0.4,3.7-0.6,5.5-0.6C245.7,405.9,248.7,406.9,250.6,408.9z M244.7,428.3c1.2-1.3,1.8-3,1.8-5v-1.2h-1c-2.6,0-4.6,0.1-6,0.3
			c-1.4,0.2-2.5,0.6-3.1,1.2c-0.6,0.6-0.9,1.4-0.9,2.4c0,1.2,0.4,2.3,1.3,3c0.9,0.8,1.9,1.2,3.2,1.2
			C241.9,430.2,243.5,429.6,244.7,428.3z"/>
		<path class="st1" d="M261.8,434.4c-0.7-0.6-1-1.5-1-2.6v-34.6c0-1.1,0.3-2,1-2.6c0.7-0.6,1.5-0.9,2.6-0.9s1.9,0.3,2.6,0.9
			c0.7,0.6,1,1.4,1,2.6v34.6c0,1.1-0.3,2-1,2.6c-0.7,0.6-1.6,0.9-2.6,0.9S262.5,435,261.8,434.4z"/>
		<path class="st1" d="M292.8,434.1c-0.6-0.6-0.9-1.5-0.9-2.6v-34c0-1.1,0.3-2,1-2.7c0.7-0.7,1.6-1,2.7-1c1.2,0,2.1,0.3,2.8,1
			c0.7,0.7,1,1.6,1,2.7v31.3h16.3c2.3,0,3.5,1,3.5,3.1c0,2-1.2,3.1-3.5,3.1h-20.2C294.3,435,293.5,434.7,292.8,434.1z"/>
		<path class="st1" d="M347.3,428c0.4,0.5,0.6,1.2,0.6,2c0,1.2-0.7,2.2-2.1,3c-1.3,0.7-2.8,1.3-4.5,1.8c-1.7,0.4-3.2,0.7-4.8,0.7
			c-4.6,0-8.2-1.3-10.8-3.9c-2.7-2.6-4-6.2-4-10.8c0-2.9,0.6-5.5,1.7-7.7c1.2-2.2,2.8-4,4.9-5.2c2.1-1.2,4.5-1.9,7.2-1.9
			c2.6,0,4.8,0.6,6.7,1.7c1.9,1.1,3.4,2.7,4.4,4.8c1,2,1.6,4.5,1.6,7.2c0,1.7-0.7,2.5-2.2,2.5h-17.1c0.2,2.7,1,4.6,2.3,5.9
			c1.3,1.3,3.1,1.9,5.6,1.9c1.2,0,2.3-0.2,3.3-0.5c0.9-0.3,2-0.7,3.2-1.3c1.2-0.6,2-0.9,2.6-0.9C346.4,427.2,346.9,427.5,347.3,428z
			 M331,412.9c-1.2,1.2-1.9,3-2.1,5.3H342c-0.1-2.4-0.7-4.1-1.7-5.4c-1.1-1.2-2.6-1.8-4.5-1.8C333.7,411,332.2,411.7,331,412.9z"/>
		<path class="st1" d="M380.7,407c0.7,0.6,1,1.4,1,2.5v22.9c0,4.4-1.2,7.8-3.7,10.1c-2.5,2.3-6.1,3.4-11,3.4
			c-4.2,0-7.7-0.8-10.6-2.4c-1.4-0.9-2.1-1.9-2.1-3.1c0-0.9,0.2-1.5,0.6-2c0.4-0.5,0.9-0.8,1.6-0.8c0.3,0,0.8,0.1,1.3,0.3
			c0.5,0.2,1,0.4,1.6,0.6c1.4,0.6,2.6,1,3.7,1.3c1.1,0.3,2.4,0.5,3.8,0.5c5.1,0,7.6-2.5,7.6-7.4v-3.7c-0.9,1.6-2.1,2.8-3.7,3.7
			s-3.5,1.3-5.6,1.3c-2.5,0-4.7-0.6-6.6-1.8c-1.9-1.2-3.4-2.8-4.5-5c-1.1-2.1-1.6-4.6-1.6-7.4s0.5-5.2,1.6-7.4
			c1.1-2.1,2.6-3.8,4.5-5c1.9-1.2,4.1-1.8,6.6-1.8c2.1,0,3.9,0.4,5.6,1.3s2.9,2.1,3.7,3.7v-1.5c0-1,0.3-1.8,1-2.4
			c0.7-0.6,1.5-0.9,2.6-0.9C379.2,406.1,380.1,406.4,380.7,407z M372.6,426.3c1.3-1.5,1.9-3.6,1.9-6.2c0-2.7-0.6-4.8-1.9-6.3
			c-1.3-1.5-3.1-2.3-5.4-2.3c-2.3,0-4.1,0.8-5.4,2.3c-1.3,1.5-2,3.6-2,6.3c0,2.6,0.7,4.7,2,6.2c1.3,1.5,3.1,2.3,5.4,2.3
			C369.5,428.6,371.3,427.8,372.6,426.3z"/>
		<path class="st1" d="M410.3,408.9c1.9,2,2.9,4.9,2.9,8.9v14.2c0,1-0.3,1.9-0.9,2.5c-0.6,0.6-1.5,0.9-2.6,0.9c-1,0-1.8-0.3-2.5-0.9
			c-0.6-0.6-1-1.4-1-2.4v-1.3c-0.7,1.5-1.7,2.7-3.1,3.5c-1.4,0.8-3,1.3-4.9,1.3c-1.9,0-3.6-0.4-5.2-1.2c-1.5-0.8-2.8-1.8-3.7-3.2
			c-0.9-1.4-1.3-2.9-1.3-4.5c0-2.1,0.5-3.7,1.6-4.9c1.1-1.2,2.8-2.1,5.2-2.6c2.4-0.5,5.7-0.8,9.9-0.8h1.4v-1.3
			c0-1.9-0.4-3.3-1.2-4.1c-0.8-0.9-2.1-1.3-3.9-1.3c-1.1,0-2.3,0.2-3.4,0.5c-1.2,0.3-2.5,0.8-4.1,1.4c-1,0.5-1.7,0.8-2.2,0.8
			c-0.7,0-1.3-0.3-1.7-0.8c-0.4-0.5-0.7-1.2-0.7-2c0-0.7,0.2-1.2,0.5-1.7c0.3-0.5,0.9-0.9,1.7-1.4c1.4-0.7,3-1.3,4.8-1.7
			c1.9-0.4,3.7-0.6,5.5-0.6C405.4,405.9,408.4,406.9,410.3,408.9z M404.4,428.3c1.2-1.3,1.8-3,1.8-5v-1.2h-1c-2.6,0-4.6,0.1-6,0.3
			c-1.4,0.2-2.5,0.6-3.1,1.2c-0.6,0.6-0.9,1.4-0.9,2.4c0,1.2,0.4,2.3,1.3,3c0.9,0.8,1.9,1.2,3.2,1.2
			C401.6,430.2,403.2,429.6,404.4,428.3z"/>
		<path class="st1" d="M421.5,434.4c-0.7-0.6-1-1.5-1-2.6v-34.6c0-1.1,0.3-2,1-2.6c0.7-0.6,1.5-0.9,2.6-0.9c1,0,1.9,0.3,2.6,0.9
			c0.7,0.6,1,1.4,1,2.6v34.6c0,1.1-0.3,2-1,2.6c-0.7,0.6-1.6,0.9-2.6,0.9C423.1,435.3,422.2,435,421.5,434.4z"/>
		<path class="st1" d="M206.9,501.9c0,0.9-0.4,1.6-1.1,2.2c-0.7,0.6-1.6,0.9-2.5,0.9c-0.6,0-1.2-0.1-1.8-0.4c-0.6-0.3-1-0.7-1.4-1.3
			l-7.7-11.7c-0.8-1.2-1.6-2.1-2.5-2.6c-0.9-0.5-2-0.8-3.4-0.8h-5.7v13c0,1.2-0.3,2.1-1,2.8c-0.7,0.7-1.5,1-2.7,1
			c-1.1,0-2-0.3-2.7-1c-0.7-0.7-1-1.6-1-2.8v-33.9c0-1.1,0.3-2,1-2.6c0.6-0.6,1.5-0.9,2.6-0.9h14.5c4.6,0,8.2,1,10.6,3.1
			c2.4,2.1,3.6,5.1,3.6,9c0,3.2-0.9,5.8-2.7,7.8c-1.8,2-4.3,3.3-7.6,3.9c1.1,0.3,2.1,0.8,3,1.5c0.9,0.7,1.7,1.7,2.5,2.9l5.3,8.1
			C206.7,500.6,206.9,501.3,206.9,501.9z M196.8,480.8c1.3-1.1,2-2.7,2-4.9c0-2.2-0.7-3.9-2-4.9c-1.3-1-3.4-1.5-6.2-1.5h-9.7v12.9
			h9.7C193.4,482.4,195.5,481.9,196.8,480.8z"/>
		<path class="st1" d="M237.3,497.6c0.4,0.5,0.6,1.2,0.6,2c0,1.2-0.7,2.2-2.1,3c-1.3,0.7-2.8,1.3-4.5,1.8c-1.7,0.4-3.2,0.7-4.8,0.7
			c-4.6,0-8.2-1.3-10.8-3.9c-2.7-2.6-4-6.2-4-10.8c0-2.9,0.6-5.5,1.7-7.7c1.2-2.2,2.8-4,4.9-5.2c2.1-1.2,4.5-1.9,7.2-1.9
			c2.6,0,4.8,0.6,6.7,1.7c1.9,1.1,3.4,2.7,4.4,4.8c1,2,1.6,4.5,1.6,7.2c0,1.7-0.7,2.5-2.2,2.5h-17.1c0.2,2.7,1,4.6,2.3,5.9
			c1.3,1.3,3.1,1.9,5.6,1.9c1.2,0,2.3-0.2,3.3-0.5c0.9-0.3,2-0.7,3.2-1.3c1.2-0.6,2-0.9,2.6-0.9
			C236.3,496.8,236.8,497.1,237.3,497.6z M220.9,482.5c-1.2,1.2-1.9,3-2.1,5.3h13.1c-0.1-2.4-0.7-4.1-1.7-5.4
			c-1.1-1.2-2.6-1.8-4.5-1.8C223.7,480.6,222.1,481.3,220.9,482.5z"/>
		<path class="st1" d="M249.1,503.3c-2.1-1.2-3.8-2.9-5-5.1c-1.2-2.2-1.7-4.8-1.7-7.7c0-2.9,0.6-5.5,1.8-7.8c1.2-2.3,2.9-4,5.1-5.2
			c2.2-1.2,4.7-1.9,7.6-1.9c1.5,0,3,0.2,4.6,0.6c1.5,0.4,2.9,1,4,1.7c1.2,0.8,1.9,1.8,1.9,3.1c0,0.9-0.2,1.5-0.6,2.1
			c-0.4,0.5-0.9,0.8-1.6,0.8c-0.4,0-0.9-0.1-1.3-0.3s-0.9-0.4-1.4-0.7c-0.9-0.5-1.7-0.9-2.4-1.2c-0.8-0.3-1.7-0.4-2.7-0.4
			c-2.4,0-4.2,0.8-5.5,2.3c-1.3,1.6-1.9,3.8-1.9,6.8c0,2.9,0.6,5.1,1.9,6.7c1.3,1.6,3.1,2.3,5.5,2.3c1,0,1.8-0.1,2.6-0.4
			s1.6-0.7,2.5-1.2c0.6-0.3,1.1-0.6,1.5-0.8s0.9-0.3,1.3-0.3c0.6,0,1.1,0.3,1.6,0.8c0.4,0.5,0.6,1.2,0.6,2c0,0.7-0.1,1.2-0.4,1.7
			c-0.3,0.5-0.8,0.9-1.4,1.3c-1.2,0.8-2.6,1.4-4.2,1.8c-1.6,0.4-3.2,0.7-4.9,0.7C253.8,505.1,251.3,504.5,249.1,503.3z"/>
		<path class="st1" d="M277.6,503.3c-2.2-1.2-3.9-2.9-5.1-5.2c-1.2-2.2-1.8-4.9-1.8-7.8c0-3,0.6-5.6,1.8-7.8
			c1.2-2.2,2.9-3.9,5.1-5.1c2.2-1.2,4.7-1.8,7.6-1.8c2.9,0,5.4,0.6,7.6,1.8c2.2,1.2,3.9,2.9,5,5.1c1.2,2.2,1.8,4.8,1.8,7.8
			c0,3-0.6,5.6-1.8,7.8c-1.2,2.2-2.9,4-5,5.2c-2.2,1.2-4.7,1.8-7.6,1.8C282.3,505.1,279.8,504.5,277.6,503.3z M290.6,497.1
			c1.2-1.5,1.9-3.8,1.9-6.8c0-3-0.6-5.2-1.9-6.8c-1.2-1.6-3-2.3-5.3-2.3c-2.3,0-4.1,0.8-5.4,2.3c-1.3,1.6-1.9,3.8-1.9,6.8
			c0,3,0.6,5.3,1.9,6.8c1.2,1.5,3,2.3,5.3,2.3C287.5,499.4,289.3,498.7,290.6,497.1z"/>
		<path class="st1" d="M323.9,476.3c0.6,0.5,0.9,1.3,0.9,2.3c0,1-0.3,1.8-0.8,2.3c-0.5,0.5-1.4,0.8-2.7,1l-1.7,0.2
			c-2.3,0.2-4,1-5,2.3c-1.1,1.3-1.6,3-1.6,4.9v12.2c0,1.1-0.3,2-1,2.6c-0.7,0.6-1.6,0.9-2.6,0.9c-1,0-1.9-0.3-2.6-0.9
			c-0.7-0.6-1-1.5-1-2.6V479c0-1.1,0.3-1.9,1-2.5c0.7-0.6,1.5-0.9,2.5-0.9c1,0,1.8,0.3,2.4,0.8c0.6,0.6,0.9,1.4,0.9,2.4v2.3
			c0.7-1.7,1.8-3,3.3-3.9c1.4-0.9,3.1-1.4,4.8-1.6l0.8-0.1C322.5,475.6,323.3,475.8,323.9,476.3z"/>
		<path class="st1" d="M353.6,464.3c0.7,0.6,1,1.4,1,2.4v34.7c0,1-0.3,1.9-1,2.5c-0.7,0.6-1.5,0.9-2.6,0.9c-1.1,0-2-0.3-2.6-0.9
			c-0.7-0.6-1-1.5-1-2.5V500c-0.9,1.6-2.1,2.8-3.7,3.7c-1.6,0.9-3.4,1.3-5.5,1.3c-2.4,0-4.6-0.6-6.5-1.9s-3.4-3-4.5-5.2
			c-1.1-2.3-1.6-4.9-1.6-7.8c0-2.9,0.5-5.5,1.6-7.7s2.5-3.9,4.4-5.1c1.9-1.2,4.1-1.8,6.6-1.8c2,0,3.9,0.4,5.5,1.3
			c1.6,0.9,2.8,2,3.7,3.6v-13.7c0-1,0.3-1.7,1-2.3c0.6-0.6,1.5-0.9,2.6-0.9C352,463.4,352.9,463.7,353.6,464.3z M345.6,497.1
			c1.3-1.6,1.9-3.8,1.9-6.8c0-2.9-0.6-5.2-1.9-6.8c-1.3-1.6-3-2.3-5.3-2.3c-2.3,0-4.1,0.8-5.4,2.3c-1.3,1.5-1.9,3.8-1.9,6.7
			c0,2.9,0.6,5.2,1.9,6.8s3.1,2.4,5.3,2.4C342.6,499.4,344.3,498.6,345.6,497.1z"/>
	</g>
</g>
</svg>
