<svg xmlns="http://www.w3.org/2000/svg" viewBox="0 0 256 256"><title>DlrColor</title><path d="M128,19A109,109,0,1,0,237,128,109,109,0,0,0,128,19Zm74.8,153.882A29.921,29.921,0,0,1,172.882,202.8H83.118A29.921,29.921,0,0,1,53.2,172.882V83.118A29.921,29.921,0,0,1,83.118,53.2h89.764A29.921,29.921,0,0,1,202.8,83.118Z" style="fill:#990c4a"/><path d="M79.808,74.818a1.939,1.939,0,0,1,.192.849,1.9,1.9,0,0,1-.192.863,1.432,1.432,0,0,1-.576.609l-10.4,5.984a3.223,3.223,0,0,1-1.472.544,1.614,1.614,0,0,1-1.2-.625,1.93,1.93,0,0,1-.56-1.3,1.28,1.28,0,0,1,.7-1.152l8.512-4.928-8.48-5.057a1.315,1.315,0,0,1-.7-1.248,2,2,0,0,1,.528-1.343,1.462,1.462,0,0,1,1.072-.608,1.686,1.686,0,0,1,.736.208q.415.207.864.464l10.4,6.111A1.424,1.424,0,0,1,79.808,74.818Z" style="fill:#1a1a1a"/><path d="M80.432,88.354a1.546,1.546,0,0,1,0-2.144,1.5,1.5,0,0,1,1.1-.432H97.792a1.479,1.479,0,0,1,1.536,1.536,1.406,1.406,0,0,1-.432,1.057,1.532,1.532,0,0,1-1.1.416H81.536A1.492,1.492,0,0,1,80.432,88.354Z" style="fill:#1a1a1a"/></svg>