<?xml version="1.0" encoding="utf-8"?>
<!-- Generator: Adobe Illustrator 22.1.0, SVG Export Plug-In . SVG Version: 6.00 Build 0)  -->
<svg version="1.1" xmlns="http://www.w3.org/2000/svg" xmlns:xlink="http://www.w3.org/1999/xlink" x="0px" y="0px"
	 viewBox="0 0 256 256" style="enable-background:new 0 0 256 256;" xml:space="preserve">
<style type="text/css">
	.st0{display:none;}
	.st1{display:inline;}
	.st2{fill:#FFFFFF;}
	.st3{font-family:'Quicksand-Bold';}
	.st4{font-size:48px;}
</style>
<g id="Layer_1" class="st0">
	<g id="_x30_CKzav.tif" class="st1">
		
			<image style="overflow:visible;" width="189" height="60" id="Layer_0" xlink:href="1F6E6E9CED8720D9.png"  transform="matrix(4.2667 0 0 4.2667 4 0)">
		</image>
	</g>
</g>
<g id="Layer_2">
	<path class="st2" d="M128,0C57.3,0,0,57.3,0,128s57.3,128,128,128s128-57.3,128-128S198.7,0,128,0z M215.3,179.6
		c0,19.7-16,35.7-35.7,35.7H78.4c-19.7,0-35.7-16-35.7-35.7V78.4c0-19.7,16-35.7,35.7-35.7h101.2c19.7,0,35.7,16,35.7,35.7V179.6z"
		/>
	<text transform="matrix(1 0 0 1 56.3335 84)" class="st2 st3 st4">&gt;_</text>
</g>
</svg>
