<svg xmlns="http://www.w3.org/2000/svg" viewBox="0 0 256 256"><title>GloveColor</title><path d="M187.47,202.65c23.38-.33,45.53-22.89,45.53-42.48V120.51a6.61,6.61,0,0,0-13.22,0v9.92a3.31,3.31,0,0,1-6.61,0V113.9a6.62,6.62,0,1,0-13.23,0v16.53a3.31,3.31,0,1,1-6.61,0V107.29a6.61,6.61,0,1,0-13.22,0v23.14a3.31,3.31,0,1,1-6.61,0V77.87a6.61,6.61,0,0,0-13.22,0v97.21a13.69,13.69,0,0,1-12,13.14H125.74a7.22,7.22,0,0,0,0,14.43h61.73Z"/><path d="M125.78,200.67a5.22,5.22,0,0,1,0-10.44h22.78a15.64,15.64,0,0,0,13.71-15.05V77.87a4.61,4.61,0,0,1,4.61-4.61,4.62,4.62,0,0,1,4.61,4.61v52.55a5.31,5.31,0,1,0,10.61,0V107.29a4.61,4.61,0,1,1,9.22,0v23.14a5.31,5.31,0,1,0,10.61,0V113.9a4.62,4.62,0,1,1,9.23,0v16.53a5.31,5.31,0,0,0,10.61,0v-9.92a4.62,4.62,0,0,1,4.61-4.61,4.56,4.56,0,0,1,3.27,1.36,4.49,4.49,0,0,1,1.34,3.25v39.66c0,8.86-5,19-13.38,27-8.75,8.41-19.75,13.31-30.18,13.46l-1.25,0H125.78Z" style="fill:#fff"/><path d="M95.73,178.12V80.92a13.7,13.7,0,0,1,12-13.14h22.59a7.22,7.22,0,0,0,0-14.43H68.52C45.14,53.68,23,76.24,23,95.83v39.65a6.61,6.61,0,1,0,13.22,0v-9.92a3.31,3.31,0,0,1,6.61,0v16.53a6.61,6.61,0,1,0,13.22,0V125.57a3.3,3.3,0,1,1,6.6,0v23.13a6.62,6.62,0,1,0,13.23,0V125.56a3.3,3.3,0,1,1,6.6,0v52.54a6.62,6.62,0,0,0,13.24,0Z"/><path d="M89.11,182.72a4.62,4.62,0,0,1-4.62-4.61V125.57a5.3,5.3,0,1,0-10.6,0v23.13a4.62,4.62,0,0,1-9.23,0V125.56a5.3,5.3,0,1,0-10.6,0v16.52a4.61,4.61,0,1,1-9.22,0V125.56a5.31,5.31,0,0,0-10.61,0v9.92a4.61,4.61,0,1,1-9.22,0V95.83c0-8.87,5-19,13.38-27,8.75-8.41,19.74-13.32,30.17-13.47h61.67a5.22,5.22,0,0,1,0,10.44H107.44a15.65,15.65,0,0,0-13.71,15v97.28a4.61,4.61,0,0,1-4.61,4.6Z" style="fill:#fff"/><rect x="100" y="72" width="56" height="112" rx="8.06" ry="8.06"/><path d="M147.94,74h-2.87a2,2,0,0,0-1.66.89l-2.82,4.22a2,2,0,0,1-1.66.89H117.07a2,2,0,0,1-1.66-.89l-2.82-4.22a2,2,0,0,0-1.66-.89h-2.87A6.06,6.06,0,0,0,102,80.06v95.88a6.06,6.06,0,0,0,6.06,6.06h39.88a6.06,6.06,0,0,0,6.06-6.06V80.06A6.06,6.06,0,0,0,147.94,74Z" style="fill:#f2f2f2"/><line x1="89" y1="179" x2="89" y2="156" style="fill:none;stroke:#a4302f;stroke-linecap:round;stroke-miterlimit:10;stroke-width:4.2519683837890625px"/><line x1="89" y1="145" x2="89" y2="122" style="fill:none;stroke:#a4302f;stroke-linecap:round;stroke-miterlimit:10;stroke-width:4.2519683837890625px"/><line x1="69.41" y1="145" x2="69.41" y2="122" style="fill:none;stroke:#4b844a;stroke-linecap:round;stroke-miterlimit:10;stroke-width:4.2519683837890625px"/><line x1="49.59" y1="143" x2="49.59" y2="122" style="fill:none;stroke:#3d3f8d;stroke-linecap:round;stroke-miterlimit:10;stroke-width:4.2519683837890625px"/><line x1="167" y1="77" x2="167" y2="100" style="fill:none;stroke:#a4302f;stroke-linecap:round;stroke-miterlimit:10;stroke-width:4.2519683837890625px"/><line x1="167" y1="111" x2="167" y2="134" style="fill:none;stroke:#a4302f;stroke-linecap:round;stroke-miterlimit:10;stroke-width:4.2519683837890625px"/><line x1="186.59" y1="111" x2="186.59" y2="134" style="fill:none;stroke:#4b844a;stroke-linecap:round;stroke-miterlimit:10;stroke-width:4.2519683837890625px"/><line x1="206.41" y1="113" x2="206.41" y2="134" style="fill:none;stroke:#3d3f8d;stroke-linecap:round;stroke-miterlimit:10;stroke-width:4.2519683837890625px"/><line x1="107.67" y1="84.83" x2="140" y2="84.83" style="fill:none;stroke:#a4302f;stroke-linecap:round;stroke-miterlimit:10;stroke-width:4.2519683837890625px"/><line x1="107.67" y1="93.83" x2="142" y2="93.83" style="fill:none;stroke:#4b844a;stroke-linecap:round;stroke-miterlimit:10;stroke-width:4.2519683837890625px"/><line x1="107.67" y1="102.83" x2="144" y2="102.83" style="fill:none;stroke:#3d3f8d;stroke-linecap:round;stroke-miterlimit:10;stroke-width:4.2519683837890625px"/><line x1="107.67" y1="111.83" x2="142" y2="111.83" style="fill:none;stroke:#a4302f;stroke-linecap:round;stroke-miterlimit:10;stroke-width:4.2519683837890625px"/><line x1="107.67" y1="120.83" x2="140" y2="120.83" style="fill:none;stroke:#4b844a;stroke-linecap:round;stroke-miterlimit:10;stroke-width:4.2519683837890625px"/><line x1="107.67" y1="129.83" x2="138" y2="129.83" style="fill:none;stroke:#3d3f8d;stroke-linecap:round;stroke-miterlimit:10;stroke-width:4.2519683837890625px"/><line x1="107.67" y1="138.83" x2="140" y2="138.83" style="fill:none;stroke:#a4302f;stroke-linecap:round;stroke-miterlimit:10;stroke-width:4.2519683837890625px"/><line x1="107.67" y1="145.83" x2="142" y2="145.83" style="fill:none;stroke:#4b844a;stroke-linecap:round;stroke-miterlimit:10;stroke-width:4.2519683837890625px"/><line x1="107.67" y1="154.83" x2="144" y2="154.83" style="fill:none;stroke:#3d3f8d;stroke-linecap:round;stroke-miterlimit:10;stroke-width:4.2519683837890625px"/><line x1="107.67" y1="163.83" x2="142" y2="163.83" style="fill:none;stroke:#a4302f;stroke-linecap:round;stroke-miterlimit:10;stroke-width:4.2519683837890625px"/><line x1="107.67" y1="172.83" x2="140" y2="172.83" style="fill:none;stroke:#4b844a;stroke-linecap:round;stroke-miterlimit:10;stroke-width:4.2519683837890625px"/></svg>