<?xml version="1.0" encoding="utf-8"?>
<!-- Generator: Adobe Illustrator 22.1.0, SVG Export Plug-In . SVG Version: 6.00 Build 0)  -->
<svg version="1.1" id="Layer_1" xmlns="http://www.w3.org/2000/svg" xmlns:xlink="http://www.w3.org/1999/xlink" x="0px" y="0px"
	 viewBox="0 0 256 256" style="enable-background:new 0 0 256 256;" xml:space="preserve">
<style type="text/css">
	.st0{fill:#FFFFFF;}
	.st1{fill:#F2F2F2;}
	.st2{fill:#A4302F;}
	.st3{fill:#4B844A;}
	.st4{fill:#3D3F8D;}
</style>
<title>DlrColor</title>
<path d="M187.5,202.6c23.4-0.3,45.5-22.9,45.5-42.5v-39.7c0-3.7-3-6.6-6.6-6.6s-6.6,3-6.6,6.6v9.9c-0.1,1.8-1.7,3.2-3.5,3.1
	c-1.7-0.1-3-1.4-3.1-3.1v-16.5c0.1-3.7-2.7-6.7-6.4-6.9c-3.7-0.1-6.7,2.7-6.9,6.4c0,0.2,0,0.3,0,0.5v16.5c0.1,1.8-1.3,3.4-3.1,3.5
	c-1.8,0.1-3.4-1.3-3.5-3.1c0-0.1,0-0.2,0-0.4v-23.1c0-3.7-3-6.6-6.6-6.6s-6.6,3-6.6,6.6v23.1c0.1,1.8-1.3,3.4-3.1,3.5
	c-1.8,0.1-3.4-1.3-3.5-3.1c0-0.1,0-0.2,0-0.4V77.9c0-3.7-3-6.6-6.6-6.6s-6.6,3-6.6,6.6l0,0v97.2c-0.2,6.7-5.3,12.3-12,13.1h-22.5
	c-4,0.1-7.1,3.5-6.9,7.5c0.1,3.8,3.2,6.8,6.9,6.9H187.5z"/>
<path class="st0" d="M125.8,200.7c-2.9,0-5.2-2.3-5.2-5.2s2.3-5.2,5.2-5.2h22.8c7.7-0.9,13.5-7.3,13.7-15.1V77.9
	c0-2.5,2.1-4.6,4.6-4.6l0,0c2.5,0,4.6,2.1,4.6,4.6v52.5c-0.1,2.9,2.1,5.4,5.1,5.5c2.9,0.1,5.4-2.1,5.5-5.1c0-0.2,0-0.3,0-0.5v-23.1
	c0-2.5,2.1-4.6,4.6-4.6s4.6,2.1,4.6,4.6v23.1c-0.1,2.9,2.1,5.4,5.1,5.5c2.9,0.1,5.4-2.1,5.5-5.1c0-0.2,0-0.3,0-0.5v-16.5
	c-0.1-2.5,1.9-4.7,4.4-4.8c2.5-0.1,4.7,1.9,4.8,4.4c0,0.1,0,0.3,0,0.4v16.5c0.1,2.9,2.6,5.2,5.5,5.1c2.8-0.1,5-2.3,5.1-5.1v-9.9
	c0-2.5,2.1-4.6,4.6-4.6c1.2,0,2.4,0.5,3.3,1.4c0.9,0.9,1.4,2,1.3,3.2v39.7c0,8.9-5,19-13.4,27c-8.8,8.4-19.8,13.3-30.2,13.5h-1.2
	L125.8,200.7L125.8,200.7z"/>
<path d="M95.7,178.1V80.9c0.2-6.7,5.3-12.3,12-13.1h22.6c4-0.1,7.1-3.5,6.9-7.5c-0.1-3.8-3.2-6.8-6.9-6.9H68.5
	C45.1,53.7,23,76.2,23,95.8v39.7c0,3.7,3,6.6,6.6,6.6s6.6-3,6.6-6.6v-9.9c0.1-1.8,1.7-3.2,3.5-3.1c1.7,0.1,3,1.4,3.1,3.1v16.5
	c0,3.7,3,6.6,6.6,6.6s6.6-3,6.6-6.6v-16.5c0-1.8,1.5-3.3,3.3-3.3c1.8,0,3.3,1.5,3.3,3.3c0,0,0,0,0,0v23.1c-0.1,3.7,2.7,6.7,6.4,6.9
	c3.7,0.1,6.7-2.7,6.9-6.4c0-0.2,0-0.3,0-0.5v-23.1c0-1.8,1.5-3.3,3.3-3.3c1.8,0,3.3,1.5,3.3,3.3c0,0,0,0,0,0v52.5
	c0,3.7,3,6.6,6.6,6.6C92.8,184.7,95.7,181.8,95.7,178.1L95.7,178.1z"/>
<path class="st0" d="M89.1,182.7c-2.5,0-4.6-2.1-4.6-4.6v-52.5c0-2.9-2.4-5.3-5.3-5.3s-5.3,2.4-5.3,5.3c0,0,0,0,0,0v23.1
	c-0.1,2.5-2.3,4.5-4.8,4.4c-2.4-0.1-4.3-2-4.4-4.4v-23.1c0-2.9-2.4-5.3-5.3-5.3s-5.3,2.4-5.3,5.3c0,0,0,0,0,0v16.5
	c0,2.5-2.1,4.6-4.6,4.6s-4.6-2.1-4.6-4.6v-16.5c-0.1-2.9-2.6-5.2-5.5-5.1c-2.8,0.1-5,2.3-5.1,5.1v9.9c0,2.5-2.1,4.6-4.6,4.6
	S25,138,25,135.5V95.8c0-8.9,5-19,13.4-27c8.8-8.4,19.7-13.3,30.2-13.5h61.7c2.9,0,5.2,2.3,5.2,5.2s-2.3,5.2-5.2,5.2h-22.8
	c-7.6,0.9-13.4,7.3-13.7,15v97.3C93.7,180.6,91.7,182.7,89.1,182.7L89.1,182.7z"/>
<path d="M108.1,72h39.9c4.5,0,8.1,3.6,8.1,8.1v95.9c0,4.5-3.6,8.1-8.1,8.1h-39.9c-4.5,0-8.1-3.6-8.1-8.1V80.1
	C100,75.6,103.6,72,108.1,72z"/>
<path class="st1" d="M147.9,74h-2.9c-0.7,0-1.3,0.3-1.7,0.9l-2.8,4.2c-0.4,0.6-1,0.9-1.7,0.9h-21.9c-0.7,0-1.3-0.3-1.7-0.9l-2.8-4.2
	c-0.4-0.6-1-0.9-1.7-0.9h-2.9c-3.3,0-6.1,2.7-6.1,6.1v95.9c0,3.3,2.7,6.1,6.1,6.1h39.9c3.3,0,6.1-2.7,6.1-6.1V80.1
	C154,76.7,151.3,74,147.9,74z"/>
<path class="st2" d="M89,181.1c-1.2,0-2.1-1-2.1-2.1v-23c0-1.2,1-2.1,2.1-2.1s2.1,1,2.1,2.1v23C91.1,180.2,90.2,181.1,89,181.1z"/>
<path class="st2" d="M89,147.1c-1.2,0-2.1-1-2.1-2.1v-23c0-1.2,1-2.1,2.1-2.1s2.1,1,2.1,2.1v23C91.1,146.2,90.2,147.1,89,147.1z"/>
<path class="st3" d="M69.4,147.1c-1.2,0-2.1-1-2.1-2.1v-23c0-1.2,1-2.1,2.1-2.1s2.1,1,2.1,2.1v23C71.5,146.2,70.6,147.1,69.4,147.1z
	"/>
<path class="st4" d="M49.6,145.1c-1.2,0-2.1-1-2.1-2.1v-21c0-1.2,1-2.1,2.1-2.1s2.1,1,2.1,2.1v21C51.7,144.2,50.8,145.1,49.6,145.1z
	"/>
<path class="st2" d="M167,102.1c-1.2,0-2.1-1-2.1-2.1V77c0-1.2,1-2.1,2.1-2.1s2.1,1,2.1,2.1v23C169.1,101.2,168.2,102.1,167,102.1z"
	/>
<path class="st2" d="M167,136.1c-1.2,0-2.1-1-2.1-2.1v-23c0-1.2,1-2.1,2.1-2.1s2.1,1,2.1,2.1v23C169.1,135.2,168.2,136.1,167,136.1z
	"/>
<path class="st3" d="M186.6,136.1c-1.2,0-2.1-1-2.1-2.1v-23c0-1.2,1-2.1,2.1-2.1s2.1,1,2.1,2.1v23
	C188.7,135.2,187.8,136.1,186.6,136.1z"/>
<path class="st4" d="M206.4,136.1c-1.2,0-2.1-1-2.1-2.1v-21c0-1.2,1-2.1,2.1-2.1s2.1,1,2.1,2.1v21
	C208.5,135.2,207.6,136.1,206.4,136.1z"/>
<path class="st2" d="M140,87h-32.3c-1.2,0-2.1-1-2.1-2.1s1-2.1,2.1-2.1H140c1.2,0,2.1,1,2.1,2.1S141.2,87,140,87z"/>
<path class="st3" d="M142,96h-34.3c-1.2,0-2.1-1-2.1-2.1s1-2.1,2.1-2.1H142c1.2,0,2.1,1,2.1,2.1S143.2,96,142,96z"/>
<path class="st4" d="M144,105h-36.3c-1.2,0-2.1-1-2.1-2.1s1-2.1,2.1-2.1H144c1.2,0,2.1,1,2.1,2.1S145.2,105,144,105z"/>
<path class="st2" d="M142,114h-34.3c-1.2,0-2.1-1-2.1-2.1s1-2.1,2.1-2.1H142c1.2,0,2.1,1,2.1,2.1S143.2,114,142,114z"/>
<path class="st3" d="M140,123h-32.3c-1.2,0-2.1-1-2.1-2.1s1-2.1,2.1-2.1H140c1.2,0,2.1,1,2.1,2.1S141.2,123,140,123z"/>
<path class="st4" d="M138,132h-30.3c-1.2,0-2.1-1-2.1-2.1c0-1.2,1-2.1,2.1-2.1H138c1.2,0,2.1,1,2.1,2.1C140.1,131,139.2,132,138,132
	z"/>
<path class="st2" d="M140,141h-32.3c-1.2,0-2.1-1-2.1-2.1s1-2.1,2.1-2.1H140c1.2,0,2.1,1,2.1,2.1S141.2,141,140,141z"/>
<path class="st3" d="M142,148h-34.3c-1.2,0-2.1-1-2.1-2.1s1-2.1,2.1-2.1H142c1.2,0,2.1,1,2.1,2.1S143.2,148,142,148z"/>
<path class="st4" d="M144,157h-36.3c-1.2,0-2.1-1-2.1-2.1s1-2.1,2.1-2.1H144c1.2,0,2.1,1,2.1,2.1S145.2,157,144,157z"/>
<path class="st2" d="M142,166h-34.3c-1.2,0-2.1-1-2.1-2.1s1-2.1,2.1-2.1H142c1.2,0,2.1,1,2.1,2.1S143.2,166,142,166z"/>
<path class="st3" d="M140,175h-32.3c-1.2,0-2.1-1-2.1-2.1s1-2.1,2.1-2.1H140c1.2,0,2.1,1,2.1,2.1S141.2,175,140,175z"/>
</svg>
