<?xml version="1.0" encoding="utf-8"?>
<!-- Generator: Adobe Illustrator 22.1.0, SVG Export Plug-In . SVG Version: 6.00 Build 0)  -->
<svg version="1.1" id="Layer_1" xmlns="http://www.w3.org/2000/svg" xmlns:xlink="http://www.w3.org/1999/xlink" x="0px" y="0px"
	 viewBox="0 0 256 256" style="enable-background:new 0 0 256 256;" xml:space="preserve">
<style type="text/css">
	.st0{fill:#FFFFFF;}
</style>
<path class="st0" d="M181.5,70c0-7.3-8.9-11-14.5-6.4c-2.9,2.4-2.5,5.7-2.5,9c0,9.3,0,18.7,0,28c0,3,0.3,5.9-0.9,8.7
	c-1,2.4-2.7,4.7-4.1,7c-2.5,4.3-4.9,8.5-7.4,12.8c-1.3,2.3-2.5,5.3-4.3,7.3c-8,8.3-20.2-10.9-12.8-16.5c3.7-2.8,8.8,0,12.8-1.9
	c3.1-1.5,3.6-4.6,3.6-7.6c0.4-17.3,0-34.7,0-52c0-5.7,0.6-11.6,0-17.3c-0.6-5.8-7.1-9.2-12.4-6.5c-3.5,1.8-4.5,5.2-4.6,8.8
	c-0.6,16.5,0.3,33.1,0,49.6c-0.1,3.4-0.5,6.8-4.3,8.2c-4.8,1.7-8.3-2.1-8.7-6.6c-0.5-6.7,0-13.6,0-20.2c0-9.9,0-19.7,0-29.6
	c0-5.3,1.7-14.1-3.3-17.5c-6-4.1-13.2,0.1-13.7,6.9c-0.1,1.7,0,3.4,0,5c0,9,0,18.1,0,27.1c0,8.5,0,17,0,25.6c0,2.3,0.3,4.7-1,6.7
	c-3.7,5.9-11.3,2.4-12-3.6c-1.7-15,1-30.4,0-45.5c-0.8-11.3-16.4-9.5-17,1.2c-0.4,6.8,0,13.7,0,20.6c0,9.8,0,19.6,0,29.4
	c0,4.9-1.8,14.6,3.6,17.2c2.8,1.4,7.2,0.7,10.2,0.7c4.6,0,9.2-0.1,13.8,0c8.7,0.2,9.2,7.4,14.4,14.2c3.5,6,6.9,11.9,10.4,17.9
	c2.1,5.5,7.4,10.4,7.6,16.8c0.6,16.9,0,34,0,50.9c0,1.6-0.2,3.4,0,5c0.8,7.4,11,9.7,15.3,3.8c3.2-4.4,1.7-13.3,1.7-18.3
	c0-9.8,0-19.7,0-29.5c0-5.1-1.1-11.8,0.9-16.6c2.5-5.9,6.6-11.4,9.8-17c4.8-8.4,9.7-16.7,14.5-25.1c1.9-3.2,4.4-6.4,4.8-10.2
	c0.7-6.5,0-13.4,0-19.8C181.5,83.7,181.5,76.9,181.5,70z"/>
</svg>
