<?xml version="1.0" encoding="utf-8"?>
<!-- Generator: Adobe Illustrator 22.1.0, SVG Export Plug-In . SVG Version: 6.00 Build 0)  -->
<svg version="1.1" id="Layer_1" xmlns="http://www.w3.org/2000/svg" xmlns:xlink="http://www.w3.org/1999/xlink" x="0px" y="0px"
	 viewBox="0 0 256 256" style="enable-background:new 0 0 256 256;" xml:space="preserve">
<style type="text/css">
	.st0{fill:#FFFFFF;}
	.st1{fill:#F2F2F2;}
	.st2{fill:#A4302F;}
	.st3{fill:#4B844A;}
	.st4{fill:#3D3F8D;}
</style>
<path d="M187.47,202.65c23.38-0.33,45.53-22.89,45.53-42.48v-39.66c0-3.65-2.96-6.61-6.61-6.61s-6.61,2.96-6.61,6.61v9.92
	c-0.1,1.83-1.66,3.22-3.49,3.12c-1.68-0.09-3.03-1.44-3.12-3.12V113.9c0.14-3.65-2.7-6.73-6.36-6.87c-3.65-0.14-6.73,2.7-6.87,6.36
	c-0.01,0.17-0.01,0.34,0,0.51v16.53c0.1,1.83-1.3,3.39-3.12,3.49c-1.83,0.1-3.39-1.3-3.49-3.12c-0.01-0.12-0.01-0.24,0-0.36v-23.14
	c0-3.65-2.96-6.61-6.61-6.61s-6.61,2.96-6.61,6.61v23.14c0.1,1.83-1.3,3.39-3.12,3.49c-1.83,0.1-3.39-1.3-3.49-3.12
	c-0.01-0.12-0.01-0.24,0-0.36V77.87c0-3.65-2.96-6.61-6.61-6.61s-6.61,2.96-6.61,6.61l0,0v97.21c-0.22,6.74-5.31,12.31-12,13.14
	h-22.54c-3.98,0.15-7.09,3.5-6.95,7.48c0.14,3.78,3.17,6.81,6.95,6.95H187.47z"/>
<path class="st0" d="M125.78,200.67c-2.88,0-5.22-2.34-5.22-5.22s2.34-5.22,5.22-5.22h22.78c7.66-0.95,13.48-7.34,13.71-15.05V77.87
	c0-2.55,2.06-4.61,4.61-4.61l0,0c2.54,0.01,4.6,2.07,4.61,4.61v52.55c-0.13,2.93,2.14,5.41,5.07,5.54c2.93,0.13,5.41-2.14,5.54-5.07
	c0.01-0.15,0.01-0.31,0-0.46v-23.13c0-2.55,2.06-4.61,4.61-4.61s4.61,2.06,4.61,4.61v23.14c-0.13,2.93,2.14,5.41,5.07,5.54
	c2.93,0.13,5.41-2.14,5.54-5.07c0.01-0.15,0.01-0.31,0-0.46V113.9c-0.12-2.55,1.85-4.71,4.4-4.83c2.55-0.12,4.71,1.85,4.83,4.4
	c0.01,0.14,0.01,0.29,0,0.43v16.53c0.13,2.93,2.61,5.2,5.54,5.07c2.75-0.12,4.96-2.32,5.07-5.07v-9.92c0.01-2.54,2.07-4.6,4.61-4.61
	c1.23-0.01,2.41,0.48,3.27,1.36c0.87,0.86,1.35,2.03,1.34,3.25v39.66c0,8.86-5,19-13.38,27c-8.75,8.41-19.75,13.31-30.18,13.46
	h-1.25h-60.4V200.67z"/>
<path d="M95.73,178.12v-97.2c0.22-6.74,5.31-12.31,12-13.14h22.59c3.98-0.15,7.09-3.5,6.95-7.48c-0.14-3.78-3.17-6.81-6.95-6.95
	h-61.8C45.14,53.68,23,76.24,23,95.83v39.65c0,3.65,2.96,6.61,6.61,6.61s6.61-2.96,6.61-6.61v-9.92c0.1-1.83,1.66-3.22,3.49-3.12
	c1.68,0.09,3.03,1.44,3.12,3.12v16.53c0,3.65,2.96,6.61,6.61,6.61s6.61-2.96,6.61-6.61v-16.52c0-1.82,1.48-3.3,3.3-3.3
	c1.82,0,3.3,1.48,3.3,3.3c0,0,0,0,0,0v23.13c-0.14,3.65,2.7,6.73,6.36,6.87c3.65,0.14,6.73-2.7,6.87-6.36
	c0.01-0.17,0.01-0.34,0-0.51v-23.14c0-1.82,1.48-3.3,3.3-3.3c1.82,0,3.3,1.48,3.3,3.3c0,0,0,0,0,0v52.54c0,3.66,2.97,6.62,6.62,6.62
	c3.65,0,6.61-2.96,6.62-6.62L95.73,178.12z"/>
<path class="st0" d="M89.11,182.72c-2.55,0-4.61-2.06-4.62-4.61v-52.54c0-2.93-2.37-5.3-5.3-5.3s-5.3,2.37-5.3,5.3c0,0,0,0,0,0.01
	v23.13c-0.12,2.55-2.28,4.52-4.83,4.4c-2.38-0.11-4.29-2.02-4.4-4.4v-23.14c0-2.93-2.37-5.3-5.3-5.3s-5.3,2.37-5.3,5.3
	c0,0,0,0,0,0.01v16.52c0,2.55-2.06,4.61-4.61,4.61s-4.61-2.06-4.61-4.61v-16.52c-0.13-2.93-2.61-5.2-5.54-5.07
	c-2.75,0.12-4.96,2.32-5.07,5.07v9.92c0,2.55-2.06,4.61-4.61,4.61s-4.61-2.06-4.61-4.61V95.83c0-8.87,5-19,13.38-27
	c8.75-8.41,19.74-13.32,30.17-13.47h61.67c2.88,0,5.22,2.34,5.22,5.22s-2.34,5.22-5.22,5.22h-22.79c-7.64,0.95-13.45,7.31-13.71,15
	v97.28c-0.01,2.54-2.07,4.6-4.61,4.6L89.11,182.72z"/>
<path d="M108.06,72h39.88c4.45,0,8.06,3.61,8.06,8.06v95.88c0,4.45-3.61,8.06-8.06,8.06h-39.88c-4.45,0-8.06-3.61-8.06-8.06V80.06
	C100,75.61,103.61,72,108.06,72z"/>
<path class="st1" d="M147.94,74h-2.87c-0.67,0-1.29,0.34-1.66,0.89l-2.82,4.22c-0.37,0.55-0.99,0.89-1.66,0.89h-21.86
	c-0.67,0-1.29-0.34-1.66-0.89l-2.82-4.22c-0.37-0.55-0.99-0.89-1.66-0.89h-2.87c-3.35,0-6.06,2.71-6.06,6.06v95.88
	c0,3.35,2.71,6.06,6.06,6.06h39.88c3.35,0,6.06-2.71,6.06-6.06V80.06C154,76.71,151.29,74,147.94,74z"/>
<path class="st2" d="M89,181.13c-1.17,0-2.13-0.95-2.13-2.13v-23c0-1.17,0.95-2.13,2.13-2.13s2.13,0.95,2.13,2.13v23
	C91.13,180.17,90.17,181.13,89,181.13z"/>
<path class="st2" d="M89,147.13c-1.17,0-2.13-0.95-2.13-2.13v-23c0-1.17,0.95-2.13,2.13-2.13s2.13,0.95,2.13,2.13v23
	C91.13,146.17,90.17,147.13,89,147.13z"/>
<path class="st3" d="M69.41,147.13c-1.17,0-2.13-0.95-2.13-2.13v-23c0-1.17,0.95-2.13,2.13-2.13s2.13,0.95,2.13,2.13v23
	C71.54,146.17,70.58,147.13,69.41,147.13z"/>
<path class="st4" d="M49.59,145.13c-1.17,0-2.13-0.95-2.13-2.13v-21c0-1.17,0.95-2.13,2.13-2.13s2.13,0.95,2.13,2.13v21
	C51.72,144.17,50.76,145.13,49.59,145.13z"/>
<path class="st2" d="M167,102.13c-1.17,0-2.13-0.95-2.13-2.13V77c0-1.17,0.95-2.13,2.13-2.13s2.13,0.95,2.13,2.13v23
	C169.13,101.17,168.17,102.13,167,102.13z"/>
<path class="st2" d="M167,136.13c-1.17,0-2.13-0.95-2.13-2.13v-23c0-1.17,0.95-2.13,2.13-2.13s2.13,0.95,2.13,2.13v23
	C169.13,135.17,168.17,136.13,167,136.13z"/>
<path class="st3" d="M186.59,136.13c-1.17,0-2.13-0.95-2.13-2.13v-23c0-1.17,0.95-2.13,2.13-2.13s2.13,0.95,2.13,2.13v23
	C188.72,135.17,187.76,136.13,186.59,136.13z"/>
<path class="st4" d="M206.41,136.13c-1.17,0-2.13-0.95-2.13-2.13v-21c0-1.17,0.95-2.13,2.13-2.13s2.13,0.95,2.13,2.13v21
	C208.54,135.17,207.58,136.13,206.41,136.13z"/>
<path class="st2" d="M140,86.96h-32.33c-1.17,0-2.13-0.95-2.13-2.13s0.95-2.13,2.13-2.13H140c1.17,0,2.13,0.95,2.13,2.13
	S141.17,86.96,140,86.96z"/>
<path class="st3" d="M142,95.96h-34.33c-1.17,0-2.13-0.95-2.13-2.13s0.95-2.13,2.13-2.13H142c1.17,0,2.13,0.95,2.13,2.13
	S143.17,95.96,142,95.96z"/>
<path class="st4" d="M144,104.96h-36.33c-1.17,0-2.13-0.95-2.13-2.13s0.95-2.13,2.13-2.13H144c1.17,0,2.13,0.95,2.13,2.13
	S145.17,104.96,144,104.96z"/>
<path class="st2" d="M142,113.96h-34.33c-1.17,0-2.13-0.95-2.13-2.13s0.95-2.13,2.13-2.13H142c1.17,0,2.13,0.95,2.13,2.13
	S143.17,113.96,142,113.96z"/>
<path class="st3" d="M140,122.96h-32.33c-1.17,0-2.13-0.95-2.13-2.13s0.95-2.13,2.13-2.13H140c1.17,0,2.13,0.95,2.13,2.13
	S141.17,122.96,140,122.96z"/>
<path class="st4" d="M138,131.96h-30.33c-1.17,0-2.13-0.95-2.13-2.13c0-1.17,0.95-2.13,2.13-2.13H138c1.17,0,2.13,0.95,2.13,2.13
	C140.13,131,139.17,131.96,138,131.96z"/>
<path class="st2" d="M140,140.96h-32.33c-1.17,0-2.13-0.95-2.13-2.13s0.95-2.13,2.13-2.13H140c1.17,0,2.13,0.95,2.13,2.13
	S141.17,140.96,140,140.96z"/>
<path class="st3" d="M142,147.96h-34.33c-1.17,0-2.13-0.95-2.13-2.13s0.95-2.13,2.13-2.13H142c1.17,0,2.13,0.95,2.13,2.13
	S143.17,147.96,142,147.96z"/>
<path class="st4" d="M144,156.96h-36.33c-1.17,0-2.13-0.95-2.13-2.13s0.95-2.13,2.13-2.13H144c1.17,0,2.13,0.95,2.13,2.13
	S145.17,156.96,144,156.96z"/>
<path class="st2" d="M142,165.96h-34.33c-1.17,0-2.13-0.95-2.13-2.13s0.95-2.13,2.13-2.13H142c1.17,0,2.13,0.95,2.13,2.13
	S143.17,165.96,142,165.96z"/>
<path class="st3" d="M140,174.96h-32.33c-1.17,0-2.13-0.95-2.13-2.13s0.95-2.13,2.13-2.13H140c1.17,0,2.13,0.95,2.13,2.13
	S141.17,174.96,140,174.96z"/>
</svg>
