<?xml version="1.0" encoding="utf-8"?>
<!-- Generator: Adobe Illustrator 22.0.0, SVG Export Plug-In . SVG Version: 6.00 Build 0)  -->
<svg version="1.1" id="Layer_1" xmlns="http://www.w3.org/2000/svg" xmlns:xlink="http://www.w3.org/1999/xlink" x="0px" y="0px"
	 viewBox="0 0 512 512" style="enable-background:new 0 0 512 512;" xml:space="preserve">
<style type="text/css">
	.st0{enable-background:new    ;}
	.st1{fill:#D9B9F7;}
	.st2{fill:#9555D0;}
	.st3{fill:#F0E3FC;}
	.st4{fill:#A151EA;}
	.st5{fill:#B474EE;}
	.st6{fill:#8141BB;}
</style>
<g id="Layer_2_copy">
	<text transform="matrix(1 0 0 1 52.7465 577)" class="st1" style="font-family:'Nunito-Bold'; font-size:58px;">Social Network</text>
	<text transform="matrix(1 0 0 1 112.168 646.6)" class="st1" style="font-family:'Nunito-Bold'; font-size:58px;">Interaction</text>
</g>
<g id="Layer_2_1_">
</g>
<g class="st0">
	<path class="st1" d="M62.9,423.3c-2.6-0.8-4.8-1.9-6.5-3.2c-0.9-0.7-1.3-1.6-1.3-2.8c0-0.8,0.2-1.5,0.7-2.1s1.1-0.9,1.7-0.9
		c0.7,0,1.5,0.3,2.4,0.8c1.7,1.2,3.4,2.1,5.2,2.6c1.8,0.5,3.8,0.8,6,0.8c2.8,0,5-0.5,6.5-1.5s2.3-2.4,2.3-4.3c0-1.5-0.7-2.6-2.1-3.4
		s-3.8-1.6-7-2.3c-3.4-0.7-6.2-1.6-8.3-2.6c-2.1-1-3.7-2.2-4.8-3.7s-1.6-3.4-1.6-5.7c0-2.4,0.7-4.5,2-6.4c1.4-1.9,3.2-3.4,5.7-4.4
		c2.4-1.1,5.1-1.6,8.1-1.6c5.5,0,10,1.5,13.5,4.4c0.5,0.4,0.9,0.8,1.1,1.2c0.2,0.4,0.3,0.9,0.3,1.5c0,0.8-0.2,1.5-0.7,2.1
		s-1.1,0.9-1.7,0.9c-0.4,0-0.7-0.1-1.1-0.2c-0.3-0.1-0.8-0.3-1.3-0.6c-1.6-1.2-3.1-2-4.6-2.6s-3.3-0.8-5.5-0.8
		c-2.6,0-4.7,0.5-6.2,1.6s-2.3,2.5-2.3,4.4c0,1.6,0.7,2.8,2,3.7c1.4,0.9,3.7,1.6,6.9,2.4c3.4,0.8,6.2,1.6,8.4,2.6
		c2.1,0.9,3.8,2.2,4.9,3.6c1.1,1.5,1.7,3.3,1.7,5.5c0,2.4-0.7,4.5-2,6.4c-1.3,1.8-3.2,3.3-5.6,4.3s-5.2,1.5-8.3,1.5
		C68.3,424.5,65.5,424.1,62.9,423.3z"/>
	<path class="st1" d="M98.8,422.7c-2.2-1.2-3.9-2.9-5.1-5.2c-1.2-2.2-1.8-4.9-1.8-7.8c0-3,0.6-5.6,1.8-7.8c1.2-2.2,2.9-3.9,5.1-5.1
		s4.7-1.8,7.6-1.8s5.4,0.6,7.6,1.8c2.2,1.2,3.9,2.9,5,5.1c1.2,2.2,1.8,4.8,1.8,7.8s-0.6,5.6-1.8,7.8c-1.2,2.2-2.9,4-5,5.2
		c-2.2,1.2-4.7,1.8-7.6,1.8S101,423.9,98.8,422.7z M111.8,416.5c1.2-1.5,1.9-3.8,1.9-6.8s-0.6-5.2-1.9-6.8c-1.2-1.6-3-2.3-5.3-2.3
		s-4.1,0.8-5.4,2.3c-1.3,1.6-1.9,3.8-1.9,6.8s0.6,5.3,1.9,6.8c1.2,1.5,3,2.3,5.3,2.3C108.8,418.8,110.6,418.1,111.8,416.5z"/>
	<path class="st1" d="M132,422.7c-2.1-1.2-3.8-2.9-5-5.1s-1.7-4.8-1.7-7.7c0-2.9,0.6-5.5,1.8-7.8c1.2-2.3,2.9-4,5.1-5.2
		c2.2-1.2,4.7-1.9,7.6-1.9c1.5,0,3,0.2,4.6,0.6c1.5,0.4,2.9,1,4,1.7c1.2,0.8,1.9,1.8,1.9,3.1c0,0.9-0.2,1.5-0.6,2.1
		c-0.4,0.5-0.9,0.8-1.6,0.8c-0.4,0-0.9-0.1-1.3-0.3s-0.9-0.4-1.4-0.7c-0.9-0.5-1.7-0.9-2.4-1.2c-0.8-0.3-1.7-0.4-2.7-0.4
		c-2.4,0-4.2,0.8-5.5,2.3c-1.3,1.6-1.9,3.8-1.9,6.8c0,2.9,0.6,5.1,1.9,6.7c1.3,1.6,3.1,2.3,5.5,2.3c1,0,1.8-0.1,2.6-0.4
		s1.6-0.7,2.5-1.2c0.6-0.3,1.1-0.6,1.5-0.8c0.4-0.2,0.9-0.3,1.3-0.3c0.6,0,1.1,0.3,1.6,0.8c0.4,0.5,0.6,1.2,0.6,2
		c0,0.7-0.1,1.2-0.4,1.7c-0.3,0.5-0.8,0.9-1.4,1.3c-1.2,0.8-2.6,1.4-4.2,1.8c-1.6,0.4-3.2,0.7-4.9,0.7
		C136.6,424.5,134.1,423.9,132,422.7z"/>
	<path class="st1" d="M155.6,388.8c-0.8-0.7-1.2-1.7-1.2-2.8s0.4-2.1,1.2-2.8c0.8-0.7,1.8-1,3.1-1s2.3,0.3,3.1,1s1.2,1.6,1.2,2.8
		s-0.4,2.1-1.2,2.8c-0.8,0.7-1.8,1.1-3.1,1.1C157.5,389.9,156.4,389.5,155.6,388.8z M156.2,423.4c-0.7-0.6-1-1.5-1-2.6v-22.4
		c0-1.1,0.3-2,1-2.6s1.5-0.9,2.6-0.9c1,0,1.9,0.3,2.6,0.9c0.7,0.6,1,1.4,1,2.6v22.4c0,1.1-0.3,2-1,2.6s-1.6,0.9-2.6,0.9
		C157.7,424.3,156.9,424,156.2,423.4z"/>
	<path class="st1" d="M191,397.9c1.9,2,2.9,4.9,2.9,8.9V421c0,1-0.3,1.9-0.9,2.5c-0.6,0.6-1.5,0.9-2.6,0.9c-1,0-1.8-0.3-2.5-0.9
		c-0.6-0.6-1-1.4-1-2.4v-1.3c-0.7,1.5-1.7,2.7-3.1,3.5c-1.4,0.8-3,1.3-4.9,1.3s-3.6-0.4-5.2-1.2c-1.5-0.8-2.8-1.8-3.7-3.2
		c-0.9-1.4-1.3-2.9-1.3-4.5c0-2.1,0.5-3.7,1.6-4.9c1.1-1.2,2.8-2.1,5.2-2.6s5.7-0.8,9.9-0.8h1.4v-1.3c0-1.9-0.4-3.3-1.2-4.1
		s-2.1-1.3-3.9-1.3c-1.1,0-2.3,0.2-3.4,0.5c-1.2,0.3-2.5,0.8-4.1,1.4c-1,0.5-1.7,0.8-2.2,0.8c-0.7,0-1.3-0.3-1.7-0.8s-0.7-1.2-0.7-2
		c0-0.7,0.2-1.2,0.5-1.7s0.9-0.9,1.7-1.4c1.4-0.7,3-1.3,4.8-1.7c1.9-0.4,3.7-0.6,5.5-0.6C186.1,394.9,189.1,395.9,191,397.9z
		 M185.1,417.3c1.2-1.3,1.8-3,1.8-5v-1.2h-1c-2.6,0-4.6,0.1-6,0.3c-1.4,0.2-2.5,0.6-3.1,1.2s-0.9,1.4-0.9,2.4c0,1.2,0.4,2.3,1.3,3
		c0.9,0.8,1.9,1.2,3.2,1.2C182.3,419.2,183.9,418.6,185.1,417.3z"/>
	<path class="st1" d="M202.2,423.4c-0.7-0.6-1-1.5-1-2.6v-34.6c0-1.1,0.3-2,1-2.6s1.5-0.9,2.6-0.9c1,0,1.9,0.3,2.6,0.9
		c0.7,0.6,1,1.4,1,2.6v34.6c0,1.1-0.3,2-1,2.6s-1.6,0.9-2.6,0.9S202.9,424,202.2,423.4z"/>
	<path class="st1" d="M265.9,383.8c0.6,0.7,1,1.6,1,2.7v34c0,1.1-0.3,2-1,2.7s-1.5,1-2.6,1c-1.2,0-2.2-0.4-2.8-1.3l-21.2-27.5v25.1
		c0,1.1-0.3,2-0.9,2.7c-0.6,0.7-1.5,1-2.6,1s-1.9-0.3-2.6-1c-0.6-0.7-0.9-1.6-0.9-2.7v-34c0-1.1,0.3-2,1-2.7s1.5-1,2.6-1
		c1.2,0,2.1,0.4,2.8,1.3l21.1,27.4v-25.1c0-1.1,0.3-2,1-2.7c0.6-0.7,1.5-1,2.5-1C264.4,382.8,265.2,383.2,265.9,383.8z"/>
	<path class="st1" d="M299,417c0.4,0.5,0.6,1.2,0.6,2c0,1.2-0.7,2.2-2.1,3c-1.3,0.7-2.8,1.3-4.5,1.8c-1.7,0.4-3.2,0.7-4.8,0.7
		c-4.6,0-8.2-1.3-10.8-3.9c-2.7-2.6-4-6.2-4-10.8c0-2.9,0.6-5.5,1.7-7.7c1.2-2.2,2.8-4,4.9-5.2s4.5-1.9,7.2-1.9
		c2.6,0,4.8,0.6,6.7,1.7c1.9,1.1,3.4,2.7,4.4,4.8c1,2,1.6,4.5,1.6,7.2c0,1.7-0.7,2.5-2.2,2.5h-17.1c0.2,2.7,1,4.6,2.3,5.9
		s3.1,1.9,5.6,1.9c1.2,0,2.3-0.2,3.3-0.5c0.9-0.3,2-0.7,3.2-1.3c1.2-0.6,2-0.9,2.6-0.9C298.1,416.2,298.6,416.5,299,417z
		 M282.7,401.9c-1.2,1.2-1.9,3-2.1,5.3h13.1c-0.1-2.4-0.7-4.1-1.7-5.4c-1.1-1.2-2.6-1.8-4.5-1.8C285.4,400,283.9,400.7,282.7,401.9z
		"/>
	<path class="st1" d="M323,421.6c0,0.9-0.4,1.6-1.1,2.1c-0.8,0.5-1.8,0.7-3.2,0.6l-1.6-0.1c-6.5-0.5-9.7-3.9-9.7-10.4v-12.6h-2.9
		c-1,0-1.8-0.2-2.4-0.7s-0.8-1.1-0.8-2s0.3-1.6,0.8-2c0.6-0.5,1.4-0.7,2.4-0.7h2.9v-5.3c0-1,0.3-1.9,1-2.5s1.5-0.9,2.7-0.9
		c1.1,0,2,0.3,2.6,0.9c0.7,0.6,1,1.5,1,2.5v5.3h4.9c1,0,1.8,0.2,2.4,0.7s0.8,1.1,0.8,2s-0.3,1.6-0.8,2c-0.6,0.5-1.4,0.7-2.4,0.7
		h-4.9v13.2c0,2.9,1.3,4.4,3.9,4.6l1.6,0.1C322.1,419.1,323,419.9,323,421.6z"/>
	<path class="st1" d="M366.8,395.6c0.5-0.3,1.1-0.5,1.7-0.5c0.9,0,1.7,0.3,2.4,0.9c0.7,0.6,1.1,1.3,1.1,2.2c0,0.5-0.1,0.9-0.3,1.3
		l-9.6,22.4c-0.3,0.7-0.8,1.3-1.4,1.7c-0.6,0.4-1.3,0.6-2.1,0.6c-0.7,0-1.4-0.2-2.1-0.6s-1.1-0.9-1.4-1.7l-6.9-16.6l-6.7,16.6
		c-0.3,0.7-0.8,1.3-1.4,1.7s-1.3,0.6-2.1,0.6c-0.7,0-1.4-0.2-2.1-0.6s-1.1-0.9-1.5-1.7l-9.5-22.4c-0.2-0.5-0.3-0.9-0.3-1.3
		c0-0.9,0.4-1.7,1.2-2.3c0.8-0.6,1.6-1,2.6-1c0.7,0,1.3,0.2,1.8,0.5s0.9,0.9,1.2,1.6l6.8,17.7l7-17.5c0.3-0.7,0.8-1.3,1.3-1.7
		c0.6-0.4,1.2-0.6,1.9-0.6s1.3,0.2,1.9,0.6s1,0.9,1.3,1.7l7.1,17.6l6.8-17.7C365.9,396.5,366.3,396,366.8,395.6z"/>
	<path class="st1" d="M381.7,422.7c-2.2-1.2-3.9-2.9-5.1-5.2c-1.2-2.2-1.8-4.9-1.8-7.8c0-3,0.6-5.6,1.8-7.8c1.2-2.2,2.9-3.9,5.1-5.1
		s4.7-1.8,7.6-1.8s5.4,0.6,7.6,1.8c2.2,1.2,3.9,2.9,5,5.1c1.2,2.2,1.8,4.8,1.8,7.8s-0.6,5.6-1.8,7.8c-1.2,2.2-2.9,4-5,5.2
		c-2.2,1.2-4.7,1.8-7.6,1.8C386.5,424.5,383.9,423.9,381.7,422.7z M394.7,416.5c1.2-1.5,1.9-3.8,1.9-6.8s-0.6-5.2-1.9-6.8
		c-1.2-1.6-3-2.3-5.3-2.3s-4.1,0.8-5.4,2.3c-1.3,1.6-1.9,3.8-1.9,6.8s0.6,5.3,1.9,6.8c1.2,1.5,3,2.3,5.3,2.3
		C391.7,418.8,393.5,418.1,394.7,416.5z"/>
	<path class="st1" d="M428,395.7c0.6,0.5,0.9,1.3,0.9,2.3s-0.3,1.8-0.8,2.3s-1.4,0.8-2.7,1l-1.7,0.2c-2.3,0.2-4,1-5,2.3
		c-1.1,1.3-1.6,3-1.6,4.9v12.2c0,1.1-0.3,2-1,2.6s-1.6,0.9-2.6,0.9s-1.9-0.3-2.6-0.9s-1-1.5-1-2.6v-22.4c0-1.1,0.3-1.9,1-2.5
		s1.5-0.9,2.5-0.9s1.8,0.3,2.4,0.8c0.6,0.6,0.9,1.4,0.9,2.4v2.3c0.7-1.7,1.8-3,3.3-3.9c1.4-0.9,3.1-1.4,4.8-1.6l0.8-0.1
		C426.6,395,427.4,395.2,428,395.7z"/>
	<path class="st1" d="M458.4,420.9c0,0.9-0.3,1.7-1,2.4s-1.4,1-2.2,1c-0.9,0-1.6-0.3-2.4-1L439.3,411v9.9c0,1.1-0.3,2-1,2.6
		s-1.6,0.9-2.6,0.9s-1.9-0.3-2.6-0.9s-1-1.4-1-2.6v-34.6c0-1.1,0.3-2,1-2.6s1.5-0.9,2.6-0.9s1.9,0.3,2.6,0.9s1,1.4,1,2.6V408
		l12.4-11.9c0.7-0.7,1.5-1,2.4-1s1.7,0.3,2.3,1c0.7,0.7,1,1.4,1,2.3s-0.4,1.7-1.1,2.4l-9.1,8.5l10.1,9
		C458,419.1,458.4,419.9,458.4,420.9z"/>
</g>
<g class="st0">
	<path class="st1" d="M117.6,492.9c-0.7-0.7-1-1.6-1-2.7v-34c0-1.1,0.3-2,1-2.7s1.6-1,2.7-1c1.2,0,2.1,0.3,2.8,1
		c0.7,0.7,1,1.6,1,2.7v34c0,1.1-0.3,2-1,2.7s-1.6,1-2.8,1C119.2,493.9,118.3,493.6,117.6,492.9z"/>
	<path class="st1" d="M156.3,467.4c1.7,1.9,2.5,4.9,2.5,8.8v14.3c0,1.1-0.3,1.9-1,2.6s-1.5,0.9-2.6,0.9s-2-0.3-2.7-0.9s-1-1.5-1-2.6
		v-13.9c0-2.2-0.4-3.8-1.2-4.8s-2.1-1.5-3.9-1.5c-2.1,0-3.8,0.7-5,2c-1.3,1.3-1.9,3.1-1.9,5.3v12.9c0,1.1-0.3,1.9-1,2.6
		c-0.7,0.6-1.5,0.9-2.7,0.9c-1.1,0-2-0.3-2.6-0.9s-1-1.5-1-2.6V468c0-1,0.3-1.8,1-2.4s1.5-0.9,2.7-0.9c1,0,1.8,0.3,2.5,0.9
		c0.6,0.6,1,1.4,1,2.3v1.6c1-1.6,2.3-2.8,3.9-3.7c1.6-0.8,3.5-1.3,5.5-1.3C152.1,464.5,154.6,465.5,156.3,467.4z"/>
	<path class="st1" d="M183.8,491.2c0,0.9-0.4,1.6-1.1,2.1c-0.8,0.5-1.8,0.7-3.2,0.6l-1.6-0.1c-6.5-0.5-9.7-3.9-9.7-10.4v-12.6h-2.9
		c-1,0-1.8-0.2-2.4-0.7c-0.6-0.5-0.8-1.1-0.8-2s0.3-1.6,0.8-2s1.4-0.7,2.4-0.7h2.9v-5.3c0-1,0.3-1.9,1-2.5s1.5-0.9,2.7-0.9
		c1.1,0,2,0.3,2.6,0.9c0.7,0.6,1,1.5,1,2.5v5.3h4.9c1,0,1.8,0.2,2.4,0.7c0.6,0.5,0.8,1.1,0.8,2s-0.3,1.6-0.8,2
		c-0.6,0.5-1.4,0.7-2.4,0.7h-4.9V484c0,2.9,1.3,4.4,3.9,4.6l1.6,0.1C182.8,488.7,183.8,489.5,183.8,491.2z"/>
	<path class="st1" d="M211.6,486.6c0.4,0.5,0.6,1.2,0.6,2c0,1.2-0.7,2.2-2.1,3c-1.3,0.7-2.8,1.3-4.5,1.8c-1.7,0.4-3.2,0.7-4.8,0.7
		c-4.6,0-8.2-1.3-10.8-3.9c-2.7-2.6-4-6.2-4-10.8c0-2.9,0.6-5.5,1.7-7.7c1.2-2.2,2.8-4,4.9-5.2c2.1-1.2,4.5-1.9,7.2-1.9
		c2.6,0,4.8,0.6,6.7,1.7s3.4,2.7,4.4,4.8c1,2,1.6,4.5,1.6,7.2c0,1.7-0.7,2.5-2.2,2.5h-17.1c0.2,2.7,1,4.6,2.3,5.9s3.1,1.9,5.6,1.9
		c1.2,0,2.3-0.2,3.3-0.5c0.9-0.3,2-0.7,3.2-1.3c1.2-0.6,2-0.9,2.6-0.9C210.7,485.8,211.2,486.1,211.6,486.6z M195.3,471.5
		c-1.2,1.2-1.9,3-2.1,5.3h13.1c-0.1-2.4-0.7-4.1-1.7-5.4c-1.1-1.2-2.6-1.8-4.5-1.8C198,469.6,196.4,470.3,195.3,471.5z"/>
	<path class="st1" d="M236.6,465.3c0.6,0.5,0.9,1.3,0.9,2.3s-0.3,1.8-0.8,2.3s-1.4,0.8-2.7,1l-1.7,0.2c-2.3,0.2-4,1-5,2.3
		c-1.1,1.3-1.6,3-1.6,4.9v12.2c0,1.1-0.3,2-1,2.6s-1.6,0.9-2.6,0.9s-1.9-0.3-2.6-0.9c-0.7-0.6-1-1.5-1-2.6V468c0-1.1,0.3-1.9,1-2.5
		s1.5-0.9,2.5-0.9s1.8,0.3,2.4,0.8c0.6,0.6,0.9,1.4,0.9,2.4v2.3c0.7-1.7,1.8-3,3.3-3.9c1.4-0.9,3.1-1.4,4.8-1.6l0.8-0.1
		C235.2,464.6,236,464.8,236.6,465.3z"/>
	<path class="st1" d="M261.5,467.5c1.9,2,2.9,4.9,2.9,8.9v14.2c0,1-0.3,1.9-0.9,2.5s-1.5,0.9-2.6,0.9c-1,0-1.8-0.3-2.5-0.9
		c-0.6-0.6-1-1.4-1-2.4v-1.3c-0.7,1.5-1.7,2.7-3.1,3.5c-1.4,0.8-3,1.3-4.9,1.3s-3.6-0.4-5.2-1.2c-1.5-0.8-2.8-1.8-3.7-3.2
		c-0.9-1.4-1.3-2.9-1.3-4.5c0-2.1,0.5-3.7,1.6-4.9c1.1-1.2,2.8-2.1,5.2-2.6s5.7-0.8,9.9-0.8h1.5v-1.3c0-1.9-0.4-3.3-1.2-4.1
		s-2.1-1.3-3.9-1.3c-1.1,0-2.3,0.2-3.4,0.5c-1.2,0.3-2.5,0.8-4.1,1.4c-1,0.5-1.7,0.8-2.2,0.8c-0.7,0-1.3-0.3-1.7-0.8s-0.7-1.2-0.7-2
		c0-0.7,0.2-1.2,0.5-1.7s0.9-0.9,1.7-1.4c1.4-0.7,3-1.3,4.8-1.7c1.9-0.4,3.7-0.6,5.5-0.6C256.7,464.5,259.6,465.5,261.5,467.5z
		 M255.7,486.9c1.2-1.3,1.8-3,1.8-5v-1.2h-1c-2.6,0-4.6,0.1-6,0.3c-1.4,0.2-2.5,0.6-3.1,1.2s-0.9,1.4-0.9,2.4c0,1.2,0.4,2.3,1.3,3
		c0.9,0.8,1.9,1.2,3.2,1.2C252.9,488.8,254.5,488.2,255.7,486.9z"/>
	<path class="st1" d="M276.9,492.3c-2.1-1.2-3.8-2.9-5-5.1s-1.7-4.8-1.7-7.7c0-2.9,0.6-5.5,1.8-7.8c1.2-2.3,2.9-4,5.1-5.2
		s4.7-1.9,7.6-1.9c1.5,0,3,0.2,4.6,0.6c1.5,0.4,2.9,1,4,1.7c1.2,0.8,1.9,1.8,1.9,3.1c0,0.9-0.2,1.5-0.6,2.1
		c-0.4,0.5-0.9,0.8-1.6,0.8c-0.4,0-0.9-0.1-1.3-0.3s-0.9-0.4-1.4-0.7c-0.9-0.5-1.7-0.9-2.4-1.2c-0.8-0.3-1.7-0.4-2.7-0.4
		c-2.4,0-4.2,0.8-5.5,2.3c-1.3,1.6-1.9,3.8-1.9,6.8c0,2.9,0.6,5.1,1.9,6.7s3.1,2.3,5.5,2.3c1,0,1.8-0.1,2.6-0.4s1.6-0.7,2.5-1.2
		c0.6-0.3,1.1-0.6,1.5-0.8s0.9-0.3,1.3-0.3c0.6,0,1.1,0.3,1.6,0.8c0.4,0.5,0.6,1.2,0.6,2c0,0.7-0.1,1.2-0.4,1.7s-0.8,0.9-1.4,1.3
		c-1.2,0.8-2.6,1.4-4.2,1.8s-3.2,0.7-4.9,0.7C281.5,494.1,279.1,493.5,276.9,492.3z"/>
	<path class="st1" d="M317.9,491.2c0,0.9-0.4,1.6-1.1,2.1c-0.8,0.5-1.8,0.7-3.2,0.6l-1.6-0.1c-6.5-0.5-9.7-3.9-9.7-10.4v-12.6h-2.9
		c-1,0-1.8-0.2-2.4-0.7s-0.8-1.1-0.8-2s0.3-1.6,0.8-2c0.6-0.5,1.4-0.7,2.4-0.7h2.9v-5.3c0-1,0.3-1.9,1-2.5s1.5-0.9,2.7-0.9
		c1.1,0,2,0.3,2.6,0.9c0.7,0.6,1,1.5,1,2.5v5.3h4.9c1,0,1.8,0.2,2.4,0.7s0.8,1.1,0.8,2s-0.3,1.6-0.8,2c-0.6,0.5-1.4,0.7-2.4,0.7
		h-4.9V484c0,2.9,1.3,4.4,3.9,4.6l1.6,0.1C316.9,488.7,317.9,489.5,317.9,491.2z"/>
	<path class="st1" d="M322.1,458.4c-0.8-0.7-1.2-1.7-1.2-2.8s0.4-2.1,1.2-2.8c0.8-0.7,1.8-1,3.1-1c1.3,0,2.3,0.3,3.1,1
		c0.8,0.7,1.2,1.6,1.2,2.8s-0.4,2.1-1.2,2.8c-0.8,0.7-1.8,1.1-3.1,1.1S322.9,459.1,322.1,458.4z M322.7,493c-0.7-0.6-1-1.5-1-2.6
		V468c0-1.1,0.3-2,1-2.6s1.5-0.9,2.6-0.9c1,0,1.9,0.3,2.6,0.9s1,1.4,1,2.6v22.4c0,1.1-0.3,2-1,2.6s-1.6,0.9-2.6,0.9
		C324.2,493.9,323.4,493.6,322.7,493z"/>
	<path class="st1" d="M341.7,492.3c-2.2-1.2-3.9-2.9-5.1-5.2c-1.2-2.2-1.8-4.9-1.8-7.8c0-3,0.6-5.6,1.8-7.8c1.2-2.2,2.9-3.9,5.1-5.1
		s4.7-1.8,7.6-1.8s5.4,0.6,7.6,1.8c2.2,1.2,3.9,2.9,5,5.1c1.2,2.2,1.8,4.8,1.8,7.8s-0.6,5.6-1.8,7.8c-1.2,2.2-2.9,4-5,5.2
		c-2.2,1.2-4.7,1.8-7.6,1.8C346.4,494.1,343.9,493.5,341.7,492.3z M354.7,486.1c1.2-1.5,1.9-3.8,1.9-6.8s-0.6-5.2-1.9-6.8
		c-1.2-1.6-3-2.3-5.3-2.3s-4.1,0.8-5.4,2.3c-1.3,1.6-1.9,3.8-1.9,6.8s0.6,5.3,1.9,6.8c1.2,1.5,3,2.3,5.3,2.3
		S353.4,487.7,354.7,486.1z"/>
	<path class="st1" d="M393.8,467.4c1.7,1.9,2.5,4.9,2.5,8.8v14.3c0,1.1-0.3,1.9-1,2.6c-0.6,0.6-1.5,0.9-2.6,0.9s-2-0.3-2.7-0.9
		s-1-1.5-1-2.6v-13.9c0-2.2-0.4-3.8-1.2-4.8c-0.8-1-2.1-1.5-3.9-1.5c-2.1,0-3.8,0.7-5,2s-1.9,3.1-1.9,5.3v12.9c0,1.1-0.3,1.9-1,2.6
		c-0.7,0.6-1.5,0.9-2.7,0.9c-1.1,0-2-0.3-2.6-0.9s-1-1.5-1-2.6V468c0-1,0.3-1.8,1-2.4s1.5-0.9,2.7-0.9c1,0,1.8,0.3,2.5,0.9
		c0.6,0.6,1,1.4,1,2.3v1.6c1-1.6,2.3-2.8,3.9-3.7c1.6-0.8,3.5-1.3,5.5-1.3C389.6,464.5,392.1,465.5,393.8,467.4z"/>
</g>
<rect x="236.8" y="242.6" transform="matrix(0.1475 -0.9891 0.9891 0.1475 -16.2593 473.9922)" class="st2" width="60" height="7.6"/>
<rect x="286.6" y="207.7" transform="matrix(0.6332 -0.774 0.774 0.6332 -73.422 310.0679)" class="st1" width="7.6" height="49.5"/>
<rect x="260.8" y="190.8" transform="matrix(0.636 -0.7717 0.7717 0.636 -44.7954 294.2375)" class="st3" width="57.4" height="7.6"/>
<rect x="375" y="276.1" transform="matrix(3.840522e-02 -0.9993 0.9993 3.840522e-02 105.9758 670.0019)" class="st4" width="52.3" height="7.6"/>
<rect x="374.5" y="264.5" transform="matrix(0.5685 -0.8227 0.8227 0.5685 -76.134 436.7978)" class="st4" width="7.6" height="53"/>
<rect x="322.5" y="63.9" transform="matrix(1 -9.764228e-03 9.764228e-03 1 -0.6443 3.4458)" class="st5" width="60.1" height="7.6"/>
<rect x="328.8" y="88.4" transform="matrix(0.6528 -0.7575 0.7575 0.6528 55.6311 305.7587)" class="st3" width="65.2" height="7.6"/>
<rect x="377.8" y="225.3" transform="matrix(5.208121e-03 -1 1 5.208121e-03 170.995 630.1513)" class="st1" width="48.9" height="7.6"/>
<rect x="105.9" y="163.8" transform="matrix(1 -2.133645e-03 2.133645e-03 1 -0.412 0.2345)" class="st6" width="7.6" height="58.8"/>
<rect x="309.4" y="285.2" transform="matrix(0.8568 -0.5156 0.5156 0.8568 -101.0671 213.9723)" class="st4" width="50.7" height="7.6"/>
<rect x="354" y="261" transform="matrix(0.8989 -0.4382 0.4382 0.8989 -77.675 192.9969)" class="st3" width="50.7" height="7.6"/>
<rect x="329.2" y="234.7" transform="matrix(0.5102 -0.8601 0.8601 0.5102 -62.1525 414.7415)" class="st1" width="7.6" height="54.5"/>
<rect x="241.8" y="314.9" transform="matrix(0.8959 -0.4442 0.4442 0.8959 -112.4727 157.29)" class="st1" width="75.3" height="7.6"/>
<rect x="225.5" y="274.8" transform="matrix(0.8634 -0.5046 0.5046 0.8634 -123.7829 157.7271)" class="st2" width="7.6" height="65.2"/>
<rect x="212.7" y="273.8" transform="matrix(0.998 -6.282719e-02 6.282719e-02 0.998 -16.9712 15.4727)" class="st4" width="49.7" height="7.6"/>
<rect x="182.5" y="243.7" transform="matrix(4.491955e-02 -0.999 0.999 4.491955e-02 -42.672 450.4385)" class="st1" width="63.5" height="7.6"/>
<rect x="303.9" y="228.4" transform="matrix(0.7701 -0.6379 0.6379 0.7701 -72.5645 263.0692)" class="st2" width="49.7" height="7.6"/>
<rect x="324" y="164.6" transform="matrix(0.7395 -0.6731 0.6731 0.7395 -45.4642 271.2648)" class="st1" width="7.6" height="59.5"/>
<rect x="202.5" y="187.3" transform="matrix(0.5527 -0.8334 0.8334 0.5527 -55.4432 278.8214)" class="st5" width="59.1" height="7.6"/>
<rect x="200.9" y="142.9" transform="matrix(0.9554 -0.2952 0.2952 0.9554 -44.0577 68.4606)" class="st5" width="7.6" height="74.5"/>
<rect x="184.7" y="170" transform="matrix(0.4756 -0.8797 0.8797 0.4756 -78.0116 271.2095)" class="st1" width="7.6" height="62"/>
<rect x="304.8" y="172.4" transform="matrix(0.9997 -2.372883e-02 2.372883e-02 0.9997 -4.9032 7.3818)" class="st2" width="7.6" height="75.8"/>
<rect x="294" y="117" transform="matrix(0.9377 -0.3473 0.3473 0.9377 -32.0327 112.4864)" class="st3" width="7.6" height="57.2"/>
<rect x="151" y="161.6" transform="matrix(0.6154 -0.7882 0.7882 0.6154 -62.1757 203.4415)" class="st2" width="52.8" height="7.6"/>
<rect x="217.1" y="126.2" transform="matrix(0.373 -0.9278 0.9278 0.373 -5.825 302.5113)" class="st5" width="7.6" height="58.8"/>
<rect x="161.4" y="105.4" transform="matrix(9.700249e-02 -0.9953 0.9953 9.700249e-02 69.321 294.7121)" class="st2" width="71.3" height="7.6"/>
<rect x="164.1" y="103.2" transform="matrix(0.4376 -0.8992 0.8992 0.4376 -24.2016 225.1314)" class="st4" width="7.6" height="57.4"/>
<rect x="147.8" y="118" transform="matrix(0.9614 -0.2751 0.2751 0.9614 -36.1744 47.5964)" class="st5" width="7.6" height="69.5"/>
<rect x="134.2" y="92.7" transform="matrix(0.7872 -0.6167 0.6167 0.7872 -23.0243 126.2357)" class="st5" width="74.4" height="7.6"/>
<rect x="237.7" y="112.5" transform="matrix(0.9693 -0.246 0.246 0.9693 -27.0068 63.7124)" class="st4" width="7.6" height="54.9"/>
<rect x="221.8" y="86.5" transform="matrix(0.5158 -0.8567 0.8567 0.5158 43.0067 256.7275)" class="st1" width="53.7" height="7.6"/>
<rect x="287.9" y="114" transform="matrix(0.9993 -3.613614e-02 3.613614e-02 0.9993 -4.0515 11.4232)" class="st4" width="52.2" height="7.6"/>
<rect x="237.1" y="138.8" transform="matrix(0.6383 -0.7698 0.7698 0.6383 -12.8193 257.9269)" class="st2" width="62" height="7.6"/>
<rect x="271.5" y="64.3" transform="matrix(0.8969 -0.4423 0.4423 0.8969 -12.736 131.3542)" class="st4" width="7.6" height="57.4"/>
<rect x="200.4" y="66.6" transform="matrix(0.9949 -0.1007 0.1007 0.9949 -5.9121 23.6745)" class="st5" width="62.3" height="7.6"/>
<circle class="st2" cx="271.2" cy="216.7" r="19"/>
<circle class="st2" cx="400.1" cy="306" r="19"/>
<circle class="st4" cx="382.8" cy="67.5" r="19"/>
<circle class="st6" cx="402.4" cy="204.8" r="19"/>
<circle class="st4" cx="109.6" cy="163.8" r="19"/>
<circle class="st6" cx="356.5" cy="275.9" r="19"/>
<ellipse transform="matrix(0.3162 -0.9487 0.9487 0.3162 -150.204 462.5053)" class="st4" cx="245.7" cy="335.5" rx="19" ry="19"/>
<circle class="st4" cx="212.9" cy="279.1" r="19"/>
<circle class="st1" cx="347.9" cy="216.3" r="19"/>
<circle class="st1" cx="215.7" cy="215.7" r="19"/>
<circle class="st5" cx="307.8" cy="172.4" r="19"/>
<circle class="st5" cx="147.3" cy="68.5" r="19"/>
<circle class="st2" cx="193.7" cy="144.5" r="19"/>
<circle class="st4" cx="362.9" cy="164.4" r="19"/>
<circle class="st6" cx="402.1" cy="253.7" r="19"/>
<circle class="st3" cx="322.5" cy="68" r="19"/>
<circle class="st1" cx="142.1" cy="119.4" r="19"/>
<circle class="st3" cx="262.4" cy="276.1" r="19"/>
<circle class="st2" cx="234.8" cy="113.3" r="19"/>
<circle class="st2" cx="309.7" cy="248.1" r="19"/>
<circle class="st1" cx="164.3" cy="242.8" r="19"/>
<ellipse class="st3" cx="161.3" cy="186.2" rx="19" ry="19"/>
<circle class="st4" cx="340.1" cy="116.9" r="19"/>
<ellipse transform="matrix(0.1602 -0.9871 0.9871 0.1602 44.0779 385.0075)" class="st5" cx="248.3" cy="166.6" rx="19" ry="19"/>
<circle class="st4" cx="313.1" cy="302" r="19"/>
<circle class="st2" cx="287.9" cy="118.8" r="19"/>
<circle class="st1" cx="262.6" cy="67.2" r="19"/>
<circle class="st5" cx="109.8" cy="222.7" r="19"/>
<circle class="st6" cx="200.7" cy="73.6" r="19"/>
</svg>
