<?xml version="1.0" encoding="UTF-8"?>
<svg width="434px" height="203px" viewBox="0 0 434 203" version="1.1" xmlns="http://www.w3.org/2000/svg" xmlns:xlink="http://www.w3.org/1999/xlink">
    <!-- Generator: Sketch 52.6 (67491) - http://www.bohemiancoding.com/sketch -->
    <title>Group 3</title>
    <desc>Created with Sketch.</desc>
    <g id="Final" stroke="none" stroke-width="1" fill="none" fill-rule="evenodd">
        <g id="logo-board" transform="translate(-197.000000, -412.000000)" fill-rule="nonzero">
            <g id="Group-3" transform="translate(197.000000, 412.000000)">
                <g id="Group-2">
                    <path d="M62.3876332,48 L62.3876332,48 C70.3337036,48 76.7752664,54.4415628 76.7752664,62.3876332 L76.7752664,129.041172 C76.7752664,147.721339 87.6948273,162.864607 106.235658,162.864607 L108.585498,162.864607 C116.591284,162.864607 123.081256,169.354579 123.081256,177.360365 L123.081256,177.360365 C123.081256,185.366151 116.591284,191.856123 108.585498,191.856123 L106.235658,191.856123 C71.8026865,191.856123 48,163.732911 48,129.041172 L48,62.3876332 C48,54.4415628 54.4415628,48 62.3876332,48 Z" id="Combined-Shape" fill="#F384A2"></path>
                    <path d="M62.5938161,125.56901 C28.3500365,125.56901 0.589968241,97.6003213 0.589968241,63.0991959 C0.589968241,28.5980704 28.3500365,0.629382141 62.5938161,0.629382141 C96.8375957,0.629382141 124.597664,28.5980704 124.597664,63.0991959 L124.597664,114.682609 C124.597664,120.695002 119.723656,125.56901 113.711264,125.56901 L62.5938161,125.56901 Z M95.8223975,63.0991959 C95.8223975,44.6096425 80.9454549,29.6208979 62.5938161,29.6208979 C44.2421773,29.6208979 29.3652346,44.6096425 29.3652346,63.0991959 C29.3652346,81.5887493 44.2421773,96.5774939 62.5938161,96.5774939 L90.3791973,96.5774939 C93.3853938,96.5774939 95.8223975,94.1404901 95.8223975,91.1342936 L95.8223975,63.0991959 Z" id="Oval" fill="#51667E"></path>
                    <path d="M15.3876332,48 L15.3876332,48 C23.3337036,48 29.7752664,54.4415628 29.7752664,62.3876332 L29.7752664,177.972367 C29.7752664,185.918437 23.3337036,192.36 15.3876332,192.36 L15.3876332,192.36 C7.4415628,192.36 1,185.918437 1,177.972367 L1,62.3876332 C1,54.4415628 7.4415628,48 15.3876332,48 Z" id="Rectangle" fill="#97B2D0"></path>
                </g>
                <g id="Group" transform="translate(153.000000, 41.000000)">
                    <path d="M73.1702524,75.2878733 C73.1702524,71.4980341 76.1213217,68.4257625 79.7616502,68.4257625 C83.4019788,68.4257625 86.3530481,71.4980341 86.3530481,75.2878733 L86.3530481,105.019625 C86.3530481,110.917697 90.9457546,115.699029 96.6111451,115.699029 C102.276536,115.699029 106.869242,110.917697 106.869242,105.019625 L106.869242,75.2878733 C106.869242,71.4980341 109.820311,68.4257625 113.46064,68.4257625 C117.100969,68.4257625 120.052038,71.4980341 120.052038,75.2878733 L120.052038,105.019625 C120.052038,118.497375 109.557193,129.42325 96.6111451,129.42325 C83.6650975,129.42325 73.1702524,118.497375 73.1702524,105.019625 L73.1702524,75.2878733 Z M169.261676,113.312764 L150.855302,113.312764 L145.696243,125.252069 C144.202784,128.708294 140.300806,130.249706 136.98093,128.694909 C133.661055,127.140113 132.180452,123.077878 133.673911,119.621653 L154.047323,72.4726653 C156.378917,67.0767949 163.738061,67.0767949 166.069655,72.4726653 L186.443066,119.621653 C187.936526,123.077878 186.455923,127.140113 183.136047,128.694909 C179.816172,130.249706 175.914194,128.708294 174.420735,125.252069 L169.261676,113.312764 Z M163.870464,100.836199 L160.058489,92.0143688 L156.246514,100.836199 L163.870464,100.836199 Z M209.192736,68.4257625 C212.833064,68.4257625 215.784134,71.4980341 215.784134,75.2878733 L215.784134,122.69882 C215.784134,126.488659 212.833064,129.560931 209.192736,129.560931 C205.552407,129.560931 202.601338,126.488659 202.601338,122.69882 L202.601338,75.2878733 C202.601338,71.4980341 205.552407,68.4257625 209.192736,68.4257625 Z M246.943469,115.770915 L274.408602,115.770915 C278.048931,115.770915 281,118.843187 281,122.633026 C281,126.422865 278.048931,129.495137 274.408602,129.495137 L241.268519,129.495137 C240.969007,129.53851 240.663054,129.560931 240.352071,129.560931 C236.711743,129.560931 233.760673,126.488659 233.760673,122.69882 L233.760673,75.2878733 C233.760673,71.4980341 236.711743,68.4257625 240.352071,68.4257625 C243.9924,68.4257625 246.943469,71.4980341 246.943469,75.2878733 L246.943469,115.770915 Z M36.0681571,115.83671 L41.9367869,115.83671 C43.3014836,115.83671 44.4077889,114.595065 44.4077889,113.06342 L44.4077889,98.9933468 C44.4077889,89.6910144 37.7008131,82.149984 29.4273392,82.149984 C21.1538653,82.149984 14.4468895,89.6910144 14.4468895,98.9933468 C14.4468895,105.751378 17.9867278,111.579821 23.0953958,114.262561 L23.0953965,98.8065869 C23.0953965,94.7860172 25.9994479,91.5267014 29.5817768,91.5267014 C33.1641057,91.5267014 36.0681571,94.7860172 36.0681571,98.8065869 L36.0681571,115.83671 Z M35.6611926,131.30381 C35.6611926,140.432369 40.7265794,147.832528 49.3273355,147.832528 L50.4555151,147.832528 C54.148195,147.832528 57.1417034,151.004025 57.1417034,154.916264 C57.1417034,158.828503 54.148195,162 50.4555151,162 L49.3273355,162 C33.3545027,162 22.3128671,148.256848 22.3128671,131.30381 L22.3128671,128.694288 C9.56618913,125.561227 0.0656577611,113.434829 0.0656577611,98.9532917 C0.0656577611,82.0934029 12.9430513,68.4257625 28.8281212,68.4257625 C44.7131911,68.4257625 57.5905847,82.0934029 57.5905847,98.9532917 L57.5905847,124.093396 C57.5905847,127.068788 55.3139184,129.480821 52.5055082,129.480821 L35.6611926,129.480821 L35.6611926,131.30381 Z" id="Combined-Shape" fill="#97B2D0"></path>
                    <path d="M73.0674644,7.41632762 C73.0674644,3.6264885 76.0185338,0.554216867 79.6588623,0.554216867 C83.2991908,0.554216867 86.2502602,3.6264885 86.2502602,7.41632762 L86.2502602,37.1480795 C86.2502602,43.0461512 90.8429667,47.827483 96.5083572,47.827483 C102.173748,47.827483 106.766454,43.0461512 106.766454,37.1480795 L106.766454,7.41632762 C106.766454,3.6264885 109.717524,0.554216867 113.357852,0.554216867 C116.998181,0.554216867 119.94925,3.6264885 119.94925,7.41632762 L119.94925,37.1480795 C119.94925,50.6258294 109.454405,61.5517045 96.5083572,61.5517045 C83.5623096,61.5517045 73.0674644,50.6258294 73.0674644,37.1480795 L73.0674644,7.41632762 Z M184.300543,41.2259533 C184.314612,41.5329869 184.321649,41.840326 184.321649,42.1477087 C184.321649,52.8313601 176.002511,61.4921708 165.740334,61.4921708 L144.374405,61.4921708 C140.734077,61.4921708 137.783007,58.4198992 137.783007,54.63006 L137.783007,7.41632762 C137.783007,3.6264885 140.734077,0.554216867 144.374405,0.554216867 L163.407772,0.554216867 C172.634093,0.554216867 180.113504,8.34081195 180.113504,17.9460638 C180.113504,21.2102435 179.249734,24.2643932 177.747173,26.8742949 C181.556448,30.4311914 184.038656,35.5106233 184.300543,41.2259533 Z M150.965803,22.8613457 L163.407772,22.8613457 C165.353436,22.8613457 167.058961,20.5954656 167.058961,18.569892 C167.058961,16.5443184 165.353436,14.2784384 163.407772,14.2784384 L150.965803,14.2784384 L150.965803,22.8613457 Z M150.965803,47.7679493 L165.740334,47.7679493 C168.721854,47.7679493 171.115059,45.1801252 171.115059,40.9291017 C171.115059,36.6780783 168.063816,34.0902542 164.541898,34.0902542 L150.965803,34.0902542 L150.965803,47.7679493 Z M211.487164,35.0588082 L194.264415,11.5818578 C192.054876,8.56995457 192.608997,4.26357366 195.502079,1.96328681 C198.395162,-0.337000036 202.531654,0.239879008 204.741194,3.25178222 L217.728958,20.9558724 L229.963122,3.38886925 C232.099937,0.320621677 236.221349,-0.363309453 239.168553,1.86126632 C242.115757,4.08584209 242.772707,8.37652317 240.635892,11.4447707 L224.66996,34.3702097 L224.66996,55.0305971 C224.66996,58.8204362 221.718891,61.8927079 218.078562,61.8927079 C214.438234,61.8927079 211.487164,58.8204362 211.487164,55.0305971 L211.487164,35.0588082 Z M38.7281835,35.3982042 C39.9318511,42.5395431 44.6990921,47.8600823 52.0647889,47.8600823 L52.947859,47.8600823 C56.7667156,47.8600823 59.8625106,50.9558772 59.8625106,54.7747338 C59.8625106,58.5935904 56.7667156,61.6893854 52.947859,61.6893854 L52.0647889,61.6893854 C37.8152966,61.6893854 27.4987086,50.9672462 25.4719189,36.8698278 L17.9394095,36.8698278 L17.9394095,55.2082351 C17.9394095,58.9980742 14.9883402,62.0703458 11.3480116,62.0703458 C7.7076831,62.0703458 4.75661376,58.9980742 4.75661376,55.2082351 L4.75661376,7.41632762 C4.75661376,3.6264885 7.7076831,0.554216867 11.3480116,0.554216867 L35.8614646,0.554216867 C45.4941243,0.554216867 53.3029378,8.68374328 53.3029378,18.7120223 C53.3029378,26.1928728 46.2898737,32.6171064 38.7281835,35.3982042 Z M35.8614646,23.1456063 C38.2134672,23.1456063 40.120142,21.1606231 40.120142,18.7120223 C40.120142,16.2634215 38.2134672,14.2784384 35.8614646,14.2784384 L17.9394095,14.2784384 L17.9394095,23.1456063 L35.8614646,23.1456063 Z" id="Combined-Shape" fill="#F384A2"></path>
                </g>
            </g>
        </g>
    </g>
</svg>