<?xml version="1.0" encoding="UTF-8"?>
<svg width="125px" height="193px" viewBox="0 0 125 193" version="1.1" xmlns="http://www.w3.org/2000/svg" xmlns:xlink="http://www.w3.org/1999/xlink">
    <!-- Generator: Sketch 52.6 (67491) - http://www.bohemiancoding.com/sketch -->
    <title>Group 2</title>
    <desc>Created with Sketch.</desc>
    <g id="Final" stroke="none" stroke-width="1" fill="none" fill-rule="evenodd">
        <g id="logo-board" transform="translate(-1005.000000, -350.000000)" fill-rule="nonzero">
            <g id="Group-3" transform="translate(1005.000000, 350.000000)">
                <g id="Group-2">
                    <path d="M62.9363788,48.2583009 L62.9363788,48.2583009 C70.8824492,48.2583009 77.324012,54.6998637 77.324012,62.6459341 L77.324012,129.299473 C77.324012,147.97964 88.2435728,163.122908 106.784404,163.122908 L109.134243,163.122908 C117.140029,163.122908 123.630001,169.61288 123.630001,177.618666 L123.630001,177.618666 C123.630001,185.624452 117.140029,192.114424 109.134243,192.114424 L106.784404,192.114424 C72.351432,192.114424 48.5487456,163.991212 48.5487456,129.299473 L48.5487456,62.6459341 C48.5487456,54.6998637 54.9903084,48.2583009 62.9363788,48.2583009 Z" id="Combined-Shape" fill="#F384A2"></path>
                    <path d="M62.5938161,125.56901 C28.3500365,125.56901 0.589968241,97.6003213 0.589968241,63.0991959 C0.589968241,28.5980704 28.3500365,0.629382141 62.5938161,0.629382141 C96.8375957,0.629382141 124.597664,28.5980704 124.597664,63.0991959 L124.597664,114.682609 C124.597664,120.695002 119.723656,125.56901 113.711264,125.56901 L62.5938161,125.56901 Z M95.8223975,63.0991959 C95.8223975,44.6096425 80.9454549,29.6208979 62.5938161,29.6208979 C44.2421773,29.6208979 29.3652346,44.6096425 29.3652346,63.0991959 C29.3652346,81.5887493 44.2421773,96.5774939 62.5938161,96.5774939 L90.3791973,96.5774939 C93.3853938,96.5774939 95.8223975,94.1404901 95.8223975,91.1342936 L95.8223975,63.0991959 Z" id="Shape" fill="#51667E"></path>
                    <path d="M14.9776014,47.4853249 C22.9236718,47.4853249 29.3652346,53.9268877 29.3652346,61.8729581 L29.3652346,177.447698 C29.3652346,185.393769 22.9236718,191.835331 14.9776014,191.835331 C7.03153104,191.835331 0.589968241,185.393769 0.589968241,177.447698 L0.589968241,61.8729581 C0.589968241,53.9268877 7.03153104,47.4853249 14.9776014,47.4853249 Z" id="Rectangle" fill="#97B2D0"></path>
                </g>
            </g>
        </g>
    </g>
</svg>