<?xml version="1.0" encoding="utf-8"?>
<!-- Generator: Adobe Illustrator 22.0.0, SVG Export Plug-In . SVG Version: 6.00 Build 0)  -->
<svg version="1.1" id="Layer_2_1_" xmlns="http://www.w3.org/2000/svg" xmlns:xlink="http://www.w3.org/1999/xlink" x="0px" y="0px"
	 viewBox="0 0 512 512" style="enable-background:new 0 0 512 512;" xml:space="preserve">
<style type="text/css">
	.st0{enable-background:new    ;}
	.st1{fill:#F16DCD;}
</style>
<g>
	<g class="st0">
		<path class="st1" d="M125.5,171.8c0.6,0.6,0.9,1.5,0.9,2.6V207c0,1-0.3,1.8-0.9,2.4c-0.6,0.6-1.4,0.9-2.3,0.9
			c-1,0-1.7-0.3-2.3-0.9c-0.6-0.6-0.8-1.4-0.8-2.4v-22.7l-9.4,17.7c-0.4,0.8-0.9,1.4-1.4,1.8c-0.5,0.4-1.1,0.6-1.8,0.6
			c-0.7,0-1.3-0.2-1.8-0.6c-0.5-0.4-1-1-1.4-1.8L95,184.5v22.4c0,1-0.3,1.8-0.9,2.4c-0.6,0.6-1.3,0.9-2.3,0.9s-1.7-0.3-2.3-0.9
			c-0.6-0.6-0.8-1.4-0.8-2.4v-32.6c0-1.1,0.3-1.9,0.9-2.6c0.6-0.6,1.4-1,2.4-1c1.4,0,2.5,0.8,3.4,2.4l12.2,23.3l12.2-23.3
			c0.8-1.6,1.9-2.4,3.2-2.4C124.1,170.8,124.9,171.2,125.5,171.8z"/>
		<path class="st1" d="M157.1,203.2c0.4,0.5,0.6,1.1,0.6,1.9c0,1.1-0.7,2.1-2,2.9c-1.2,0.7-2.7,1.3-4.2,1.7
			c-1.6,0.4-3.1,0.6-4.5,0.6c-4.3,0-7.8-1.2-10.3-3.7s-3.8-5.9-3.8-10.2c0-2.8,0.6-5.2,1.7-7.3c1.1-2.1,2.6-3.8,4.6-5
			s4.3-1.8,6.8-1.8c2.4,0,4.5,0.5,6.3,1.6s3.2,2.6,4.2,4.5s1.5,4.2,1.5,6.9c0,1.6-0.7,2.4-2.1,2.4h-16.2c0.2,2.5,0.9,4.4,2.1,5.6
			c1.2,1.2,3,1.8,5.3,1.8c1.2,0,2.2-0.1,3.1-0.4c0.9-0.3,1.9-0.7,3.1-1.2c1.1-0.6,1.9-0.9,2.4-0.9
			C156.2,202.5,156.7,202.8,157.1,203.2z M141.6,188.9c-1.1,1.2-1.8,2.9-2,5.1H152c-0.1-2.2-0.6-3.9-1.7-5.1c-1-1.2-2.5-1.7-4.3-1.7
			S142.7,187.8,141.6,188.9z"/>
		<path class="st1" d="M186.3,185.1c1.6,1.8,2.4,4.6,2.4,8.3v13.5c0,1-0.3,1.8-0.9,2.4s-1.4,0.9-2.5,0.9s-1.9-0.3-2.5-0.9
			c-0.6-0.6-0.9-1.4-0.9-2.4v-13.1c0-2.1-0.4-3.6-1.2-4.6s-2-1.4-3.7-1.4c-2,0-3.6,0.6-4.8,1.9c-1.2,1.2-1.8,2.9-1.8,5V207
			c0,1-0.3,1.8-0.9,2.4c-0.6,0.6-1.5,0.9-2.5,0.9c-1.1,0-1.9-0.3-2.5-0.9s-0.9-1.4-0.9-2.4v-21.3c0-1,0.3-1.7,0.9-2.3
			c0.6-0.6,1.5-0.9,2.5-0.9s1.7,0.3,2.3,0.9c0.6,0.6,0.9,1.3,0.9,2.2v1.5c0.9-1.5,2.1-2.7,3.7-3.5c1.5-0.8,3.3-1.2,5.2-1.2
			C182.3,182.3,184.7,183.2,186.3,185.1z"/>
		<path class="st1" d="M212.4,207.6c0,0.9-0.4,1.5-1.1,2c-0.7,0.5-1.7,0.7-3.1,0.6l-1.5-0.1c-6.2-0.4-9.2-3.7-9.2-9.9v-12h-2.8
			c-1,0-1.8-0.2-2.3-0.7c-0.5-0.4-0.8-1.1-0.8-1.9s0.3-1.5,0.8-1.9s1.3-0.7,2.3-0.7h2.8v-5.1c0-1,0.3-1.8,0.9-2.4
			c0.6-0.6,1.5-0.9,2.5-0.9s1.9,0.3,2.5,0.9c0.6,0.6,0.9,1.4,0.9,2.4v5.1h4.7c1,0,1.8,0.2,2.3,0.7c0.5,0.4,0.8,1.1,0.8,1.9
			s-0.3,1.5-0.8,1.9s-1.3,0.7-2.3,0.7h-4.7v12.5c0,2.7,1.2,4.2,3.7,4.3l1.5,0.1C211.5,205.2,212.4,206,212.4,207.6z"/>
		<path class="st1" d="M235.9,185.1c1.8,1.9,2.7,4.7,2.7,8.4V207c0,1-0.3,1.8-0.9,2.3c-0.6,0.6-1.4,0.9-2.4,0.9s-1.7-0.3-2.3-0.9
			c-0.6-0.6-0.9-1.4-0.9-2.3v-1.2c-0.6,1.4-1.6,2.5-2.9,3.4c-1.3,0.8-2.9,1.2-4.6,1.2c-1.8,0-3.4-0.4-4.9-1.1
			c-1.5-0.7-2.6-1.7-3.5-3c-0.8-1.3-1.3-2.7-1.3-4.3c0-2,0.5-3.5,1.5-4.7c1-1.1,2.6-2,4.9-2.5c2.3-0.5,5.4-0.8,9.4-0.8h1.4v-1.3
			c0-1.8-0.4-3.1-1.2-3.9s-2-1.2-3.7-1.2c-1.1,0-2.1,0.2-3.2,0.5s-2.4,0.8-3.9,1.3c-1,0.5-1.7,0.7-2.1,0.7c-0.7,0-1.2-0.2-1.6-0.7
			c-0.4-0.5-0.6-1.1-0.6-1.9c0-0.6,0.2-1.2,0.5-1.6c0.3-0.5,0.8-0.9,1.6-1.3c1.3-0.7,2.8-1.2,4.6-1.7c1.8-0.4,3.5-0.6,5.3-0.6
			C231.4,182.3,234.1,183.3,235.9,185.1z M230.4,203.5c1.2-1.2,1.7-2.8,1.7-4.8v-1.2h-1c-2.5,0-4.4,0.1-5.7,0.3
			c-1.4,0.2-2.3,0.6-2.9,1.2c-0.6,0.5-0.9,1.3-0.9,2.3c0,1.2,0.4,2.1,1.2,2.9c0.8,0.8,1.8,1.1,3.1,1.1
			C227.7,205.4,229.2,204.8,230.4,203.5z"/>
	</g>
	<g class="st0">
		<path class="st1" d="M246.6,209.4c-0.6-0.6-1-1.4-1-2.4v-32.8c0-1.1,0.3-1.9,1-2.4c0.6-0.6,1.5-0.8,2.4-0.8c1,0,1.8,0.3,2.5,0.8
			s1,1.4,1,2.4V207c0,1.1-0.3,1.9-1,2.4s-1.5,0.9-2.5,0.9C248,210.2,247.2,209.9,246.6,209.4z"/>
	</g>
	<g class="st0">
		<path class="st1" d="M295.5,171.8c0.6,0.6,0.9,1.5,0.9,2.6v32.3c0,1.1-0.3,1.9-1,2.6c-0.6,0.7-1.5,1-2.5,1c-1.1,0-1.9-0.3-2.5-1
			s-0.9-1.5-0.9-2.6v-13.6h-19.9v13.6c0,1.1-0.3,1.9-1,2.6s-1.5,1-2.6,1c-1,0-1.9-0.3-2.5-1s-1-1.5-1-2.6v-32.3
			c0-1.1,0.3-1.9,0.9-2.6c0.6-0.6,1.5-1,2.5-1s1.9,0.3,2.6,1c0.6,0.6,1,1.5,1,2.6v13h19.9v-13c0-1.1,0.3-1.9,0.9-2.6
			c0.6-0.6,1.5-1,2.5-1S294.8,171.2,295.5,171.8z"/>
		<path class="st1" d="M327,203.2c0.4,0.5,0.6,1.1,0.6,1.9c0,1.1-0.7,2.1-2,2.9c-1.2,0.7-2.7,1.3-4.2,1.7c-1.6,0.4-3.1,0.6-4.5,0.6
			c-4.3,0-7.8-1.2-10.3-3.7s-3.8-5.9-3.8-10.2c0-2.8,0.6-5.2,1.7-7.3s2.6-3.8,4.6-5s4.3-1.8,6.8-1.8c2.4,0,4.5,0.5,6.3,1.6
			s3.2,2.6,4.2,4.5s1.5,4.2,1.5,6.9c0,1.6-0.7,2.4-2.1,2.4h-16.2c0.2,2.5,0.9,4.4,2.1,5.6c1.2,1.2,3,1.8,5.3,1.8
			c1.2,0,2.2-0.1,3.1-0.4c0.9-0.3,1.9-0.7,3.1-1.2c1.1-0.6,1.9-0.9,2.4-0.9C326.1,202.5,326.6,202.8,327,203.2z M311.4,188.9
			c-1.1,1.2-1.8,2.9-2,5.1h12.4c-0.1-2.2-0.6-3.9-1.7-5.1s-2.5-1.7-4.3-1.7C314.1,187.2,312.6,187.8,311.4,188.9z"/>
		<path class="st1" d="M353.4,185.1c1.8,1.9,2.7,4.7,2.7,8.4V207c0,1-0.3,1.8-0.9,2.3c-0.6,0.6-1.4,0.9-2.4,0.9s-1.7-0.3-2.3-0.9
			c-0.6-0.6-0.9-1.4-0.9-2.3v-1.2c-0.6,1.4-1.6,2.5-2.9,3.4c-1.3,0.8-2.9,1.2-4.6,1.2c-1.8,0-3.4-0.4-4.9-1.1
			c-1.5-0.7-2.6-1.7-3.5-3c-0.8-1.3-1.3-2.7-1.3-4.3c0-2,0.5-3.5,1.5-4.7c1-1.1,2.6-2,4.9-2.5s5.4-0.8,9.4-0.8h1.4v-1.3
			c0-1.8-0.4-3.1-1.2-3.9c-0.8-0.8-2-1.2-3.7-1.2c-1.1,0-2.1,0.2-3.2,0.5s-2.4,0.8-3.9,1.3c-1,0.5-1.7,0.7-2.1,0.7
			c-0.7,0-1.2-0.2-1.6-0.7s-0.6-1.1-0.6-1.9c0-0.6,0.2-1.2,0.5-1.6c0.3-0.5,0.8-0.9,1.6-1.3c1.3-0.7,2.8-1.2,4.6-1.7
			c1.8-0.4,3.5-0.6,5.3-0.6C348.8,182.3,351.5,183.3,353.4,185.1z M347.8,203.5c1.2-1.2,1.7-2.8,1.7-4.8v-1.2h-1
			c-2.5,0-4.4,0.1-5.7,0.3c-1.4,0.2-2.3,0.6-2.9,1.2c-0.6,0.5-0.9,1.3-0.9,2.3c0,1.2,0.4,2.1,1.2,2.9c0.8,0.8,1.8,1.1,3.1,1.1
			C345.2,205.4,346.6,204.8,347.8,203.5z"/>
		<path class="st1" d="M364,209.4c-0.6-0.6-1-1.4-1-2.4v-32.8c0-1.1,0.3-1.9,1-2.4c0.6-0.6,1.5-0.8,2.4-0.8s1.8,0.3,2.5,0.8
			s1,1.4,1,2.4V207c0,1.1-0.3,1.9-1,2.4s-1.5,0.9-2.5,0.9S364.7,209.9,364,209.4z"/>
		<path class="st1" d="M393.8,207.6c0,0.9-0.4,1.5-1.1,2s-1.7,0.7-3.1,0.6l-1.5-0.1c-6.2-0.4-9.2-3.7-9.2-9.9v-12h-2.8
			c-1,0-1.8-0.2-2.3-0.7c-0.5-0.4-0.8-1.1-0.8-1.9s0.3-1.5,0.8-1.9s1.3-0.7,2.3-0.7h2.8v-5.1c0-1,0.3-1.8,0.9-2.4
			c0.6-0.6,1.5-0.9,2.5-0.9s1.9,0.3,2.5,0.9c0.6,0.6,0.9,1.4,0.9,2.4v5.1h4.7c1,0,1.8,0.2,2.3,0.7c0.5,0.4,0.8,1.1,0.8,1.9
			s-0.3,1.5-0.8,1.9s-1.3,0.7-2.3,0.7h-4.7v12.5c0,2.7,1.2,4.2,3.7,4.3l1.5,0.1C392.8,205.2,393.8,206,393.8,207.6z"/>
		<path class="st1" d="M422.5,193.4v13.5c0,1-0.3,1.8-0.9,2.4c-0.6,0.6-1.4,0.9-2.5,0.9s-1.9-0.3-2.5-0.9c-0.6-0.6-0.9-1.4-0.9-2.4
			v-13.5c0-1.9-0.4-3.4-1.2-4.3c-0.8-0.9-2-1.3-3.7-1.3c-2,0-3.6,0.6-4.8,1.9c-1.2,1.2-1.8,2.9-1.8,5V207c0,1-0.3,1.8-0.9,2.4
			c-0.6,0.6-1.5,0.9-2.5,0.9s-1.9-0.3-2.5-0.9c-0.6-0.6-0.9-1.4-0.9-2.4v-33c0-1,0.3-1.7,1-2.3c0.6-0.6,1.5-0.9,2.5-0.9
			s1.9,0.3,2.5,0.8s0.9,1.3,0.9,2.3v12.8c0.9-1.4,2.1-2.5,3.7-3.3c1.5-0.8,3.3-1.1,5.2-1.1C419.4,182.3,422.5,186,422.5,193.4z"/>
	</g>
	<g class="st0">
		<path class="st1" d="M131.3,238.5c-0.7-0.7-1.1-1.6-1.1-2.7c0-1.1,0.4-2,1.1-2.6c0.7-0.7,1.7-1,3-1c1.2,0,2.2,0.3,2.9,1
			c0.8,0.7,1.1,1.5,1.1,2.6s-0.4,2-1.1,2.7c-0.7,0.7-1.7,1-3,1C133,239.5,132,239.2,131.3,238.5z M131.8,271.4c-0.6-0.6-1-1.4-1-2.4
			v-21.2c0-1.1,0.3-1.9,1-2.4c0.6-0.5,1.5-0.8,2.4-0.8c1,0,1.8,0.3,2.5,0.8s1,1.4,1,2.4V269c0,1.1-0.3,1.9-1,2.4s-1.5,0.9-2.5,0.9
			C133.2,272.2,132.4,271.9,131.8,271.4z"/>
		<path class="st1" d="M167.6,247.1c1.6,1.8,2.4,4.6,2.4,8.3v13.5c0,1-0.3,1.8-0.9,2.4s-1.4,0.9-2.5,0.9s-1.9-0.3-2.5-0.9
			s-0.9-1.4-0.9-2.4v-13.1c0-2.1-0.4-3.6-1.2-4.6s-2-1.4-3.7-1.4c-2,0-3.6,0.6-4.8,1.9c-1.2,1.2-1.8,2.9-1.8,5V269
			c0,1-0.3,1.8-0.9,2.4c-0.6,0.6-1.5,0.9-2.5,0.9c-1.1,0-1.9-0.3-2.5-0.9s-0.9-1.4-0.9-2.4v-21.3c0-1,0.3-1.7,0.9-2.3
			c0.6-0.6,1.5-0.9,2.5-0.9s1.7,0.3,2.3,0.9c0.6,0.6,0.9,1.3,0.9,2.2v1.5c0.9-1.5,2.1-2.7,3.7-3.5c1.5-0.8,3.3-1.2,5.2-1.2
			C163.6,244.3,166,245.2,167.6,247.1z"/>
		<path class="st1" d="M208.6,269.6c0,0.9-0.4,1.5-1.1,2c-0.7,0.5-1.7,0.7-3.1,0.6L203,272c-6.2-0.4-9.2-3.7-9.2-9.9v-12H191
			c-1,0-1.8-0.2-2.3-0.7c-0.5-0.4-0.8-1.1-0.8-1.9s0.3-1.5,0.8-1.9s1.3-0.7,2.3-0.7h2.8v-5.1c0-1,0.3-1.8,0.9-2.4
			c0.6-0.6,1.5-0.9,2.5-0.9s1.9,0.3,2.5,0.9c0.6,0.6,0.9,1.4,0.9,2.4v5.1h4.7c1,0,1.8,0.2,2.3,0.7c0.5,0.4,0.8,1.1,0.8,1.9
			s-0.3,1.5-0.8,1.9s-1.3,0.7-2.3,0.7h-4.7v12.5c0,2.7,1.2,4.2,3.7,4.3l1.5,0.1C207.7,267.2,208.6,268,208.6,269.6z"/>
		<path class="st1" d="M237.4,255.4v13.5c0,1-0.3,1.8-0.9,2.4s-1.4,0.9-2.5,0.9s-1.9-0.3-2.5-0.9s-0.9-1.4-0.9-2.4v-13.5
			c0-1.9-0.4-3.4-1.2-4.3c-0.8-0.9-2-1.3-3.7-1.3c-2,0-3.6,0.6-4.8,1.9c-1.2,1.2-1.8,2.9-1.8,5V269c0,1-0.3,1.8-0.9,2.4
			c-0.6,0.6-1.5,0.9-2.5,0.9c-1.1,0-1.9-0.3-2.5-0.9s-0.9-1.4-0.9-2.4v-33c0-1,0.3-1.7,1-2.3c0.6-0.6,1.5-0.9,2.5-0.9
			s1.9,0.3,2.5,0.8s0.9,1.3,0.9,2.3v12.8c0.9-1.4,2.1-2.5,3.7-3.3c1.5-0.8,3.3-1.1,5.2-1.1C234.2,244.3,237.4,248,237.4,255.4z"/>
		<path class="st1" d="M267.1,265.2c0.4,0.5,0.6,1.1,0.6,1.9c0,1.1-0.7,2.1-2,2.9c-1.2,0.7-2.7,1.3-4.2,1.7
			c-1.6,0.4-3.1,0.6-4.5,0.6c-4.3,0-7.8-1.2-10.3-3.7s-3.8-5.9-3.8-10.2c0-2.8,0.6-5.2,1.7-7.3c1.1-2.1,2.6-3.8,4.6-5
			s4.3-1.8,6.8-1.8c2.4,0,4.5,0.5,6.3,1.6s3.2,2.6,4.2,4.5s1.5,4.2,1.5,6.9c0,1.6-0.7,2.4-2.1,2.4h-16.2c0.2,2.5,0.9,4.4,2.1,5.6
			c1.2,1.2,3,1.8,5.3,1.8c1.2,0,2.2-0.1,3.1-0.4s1.9-0.7,3.1-1.2c1.1-0.6,1.9-0.9,2.4-0.9C266.3,264.5,266.8,264.8,267.1,265.2z
			 M251.6,250.9c-1.1,1.2-1.8,2.9-2,5.1H262c-0.1-2.2-0.6-3.9-1.7-5.1s-2.5-1.7-4.3-1.7C254.2,249.2,252.8,249.8,251.6,250.9z"/>
		<path class="st1" d="M315.6,269c0,1.9-1.1,2.9-3.3,2.9h-20.9c-1,0-1.7-0.3-2.3-0.9c-0.5-0.6-0.8-1.3-0.8-2.1c0-1.1,0.4-2.1,1.3-3
			l12.5-13.5c1.5-1.7,2.7-3.2,3.4-4.6c0.7-1.4,1.1-2.8,1.1-4.2c0-1.7-0.5-3-1.5-4c-1-0.9-2.4-1.4-4.2-1.4c-1.5,0-3,0.3-4.4,0.9
			c-1.4,0.6-2.8,1.3-4.3,2.3c-0.4,0.3-0.7,0.5-1.1,0.6s-0.7,0.2-1.1,0.2c-0.6,0-1.2-0.3-1.6-0.9c-0.5-0.6-0.7-1.3-0.7-2.1
			c0-0.5,0.1-1,0.3-1.4s0.5-0.8,1-1.2c1.6-1.3,3.5-2.3,5.7-3.1s4.3-1.1,6.5-1.1c3.8,0,6.8,1,9,2.9c2.3,1.9,3.4,4.5,3.4,7.7
			c0,2.2-0.5,4.3-1.4,6.3c-1,2-2.6,4.2-4.8,6.6l-9.5,10.1h14.5C314.5,266.2,315.6,267.1,315.6,269z"/>
		<path class="st1" d="M348.8,269c0,1.9-1.1,2.9-3.3,2.9h-18.6c-2.2,0-3.4-1-3.4-2.9s1.1-2.8,3.4-2.8h5.7v-25.1l-5.3,3.2
			c-0.5,0.3-1,0.4-1.4,0.4c-0.8,0-1.4-0.3-2-1c-0.5-0.7-0.8-1.4-0.8-2.2c0-1.1,0.5-1.9,1.4-2.5l8.5-5.3c1.1-0.7,2.1-1,3.1-1
			s1.9,0.3,2.5,0.9c0.6,0.6,0.9,1.5,0.9,2.6V266h5.8C347.7,266.2,348.8,267.1,348.8,269z"/>
		<path class="st1" d="M354.6,270c-1.2-0.7-1.8-1.7-1.8-3c0-0.7,0.2-1.3,0.6-1.8s0.9-0.7,1.5-0.7s1.5,0.3,2.6,0.9
			c1.2,0.5,2.2,1,3.2,1.3s2.2,0.4,3.7,0.4s2.7-0.3,3.6-0.8s1.3-1.2,1.3-2.1c0-0.6-0.2-1.1-0.5-1.5s-1-0.7-1.9-1s-2.3-0.7-4.1-1.1
			c-3.3-0.7-5.6-1.6-7-2.8c-1.4-1.2-2.1-2.9-2.1-5c0-1.6,0.5-3.1,1.4-4.4c1-1.3,2.3-2.3,3.9-3c1.7-0.7,3.6-1.1,5.7-1.1
			c1.5,0,3,0.2,4.5,0.6s2.7,0.9,3.8,1.7c1.2,0.7,1.8,1.7,1.8,2.9c0,0.7-0.2,1.3-0.6,1.8s-0.9,0.7-1.5,0.7c-0.4,0-0.8-0.1-1.2-0.2
			c-0.4-0.2-0.9-0.4-1.5-0.7c-1.1-0.5-2-1-2.8-1.2c-0.8-0.3-1.7-0.4-2.9-0.4c-1.4,0-2.4,0.3-3.2,0.8c-0.8,0.5-1.2,1.3-1.2,2.3
			c0,0.9,0.4,1.6,1.2,2.1c0.8,0.5,2.4,1,4.7,1.4c2.5,0.5,4.4,1.1,5.8,1.8c1.4,0.7,2.4,1.5,3,2.5s0.9,2.3,0.9,3.8c0,2.5-1,4.5-3.1,6
			s-4.8,2.3-8.3,2.3C360.2,272.3,357,271.5,354.6,270z"/>
		<path class="st1" d="M397.6,269.6c0,0.9-0.4,1.5-1.1,2s-1.7,0.7-3.1,0.6L392,272c-6.2-0.4-9.2-3.7-9.2-9.9v-12H380
			c-1,0-1.8-0.2-2.3-0.7c-0.5-0.4-0.8-1.1-0.8-1.9s0.3-1.5,0.8-1.9s1.3-0.7,2.3-0.7h2.8v-5.1c0-1,0.3-1.8,0.9-2.4
			c0.6-0.6,1.5-0.9,2.5-0.9s1.8,0.3,2.5,0.9c0.6,0.6,0.9,1.4,0.9,2.4v5.1h4.7c1,0,1.8,0.2,2.3,0.7c0.5,0.4,0.8,1.1,0.8,1.9
			s-0.3,1.5-0.8,1.9s-1.3,0.7-2.3,0.7h-4.7v12.5c0,2.7,1.2,4.2,3.7,4.3l1.5,0.1C396.7,267.2,397.6,268,397.6,269.6z"/>
	</g>
	<g class="st0">
		<path class="st1" d="M173.9,332c-2.8-1.6-5-3.9-6.5-6.9s-2.3-6.5-2.3-10.6c0-4,0.8-7.5,2.3-10.5s3.7-5.3,6.5-6.9s6.1-2.4,9.8-2.4
			c2.4,0,4.7,0.4,6.8,1.1s4,1.8,5.7,3.1c0.5,0.4,0.8,0.8,1,1.2c0.2,0.4,0.3,0.9,0.3,1.5c0,0.8-0.2,1.5-0.7,2c-0.4,0.5-1,0.8-1.6,0.8
			c-0.7,0-1.5-0.3-2.3-0.8c-1.6-1.2-3-2-4.4-2.4c-1.4-0.5-2.9-0.7-4.5-0.7c-3.8,0-6.7,1.2-8.7,3.6s-2.9,5.9-2.9,10.5
			c0,4.7,1,8.2,2.9,10.6c2,2.4,4.8,3.6,8.7,3.6c1.6,0,3-0.2,4.4-0.7c1.3-0.5,2.9-1.3,4.5-2.4c0.4-0.2,0.7-0.4,1.1-0.5
			c0.4-0.1,0.8-0.2,1.2-0.2c0.6,0,1.2,0.3,1.6,0.8c0.4,0.6,0.7,1.2,0.7,2c0,0.5-0.1,1-0.3,1.5c-0.2,0.4-0.5,0.8-1,1.2
			c-1.7,1.4-3.5,2.4-5.7,3.1c-2.1,0.7-4.4,1.1-6.8,1.1C180,334.4,176.7,333.6,173.9,332z"/>
		<path class="st1" d="M225.4,327.2c0.4,0.5,0.6,1.1,0.6,1.9c0,1.1-0.7,2.1-2,2.9c-1.2,0.7-2.7,1.3-4.2,1.7
			c-1.6,0.4-3.1,0.6-4.5,0.6c-4.3,0-7.8-1.2-10.3-3.7s-3.8-5.9-3.8-10.2c0-2.8,0.6-5.2,1.7-7.3c1.1-2.1,2.6-3.8,4.6-5
			s4.3-1.8,6.8-1.8c2.4,0,4.5,0.5,6.3,1.6s3.2,2.6,4.2,4.5s1.5,4.2,1.5,6.9c0,1.6-0.7,2.4-2.1,2.4H208c0.2,2.5,0.9,4.4,2.1,5.6
			c1.2,1.2,3,1.8,5.3,1.8c1.2,0,2.2-0.1,3.1-0.4c0.9-0.3,1.9-0.7,3.1-1.2c1.1-0.6,1.9-0.9,2.4-0.9
			C224.5,326.5,225,326.8,225.4,327.2z M209.9,312.9c-1.1,1.2-1.8,2.9-2,5.1h12.4c-0.1-2.2-0.6-3.9-1.7-5.1c-1-1.2-2.5-1.7-4.3-1.7
			C212.5,311.2,211,311.8,209.9,312.9z"/>
		<path class="st1" d="M254.6,309.1c1.6,1.8,2.4,4.6,2.4,8.3v13.5c0,1-0.3,1.8-0.9,2.4s-1.4,0.9-2.5,0.9s-1.9-0.3-2.5-0.9
			s-0.9-1.4-0.9-2.4v-13.1c0-2.1-0.4-3.6-1.2-4.6s-2-1.4-3.7-1.4c-2,0-3.6,0.6-4.8,1.9c-1.2,1.2-1.8,2.9-1.8,5V331
			c0,1-0.3,1.8-0.9,2.4c-0.6,0.6-1.5,0.9-2.5,0.9c-1.1,0-1.9-0.3-2.5-0.9s-0.9-1.4-0.9-2.4v-21.3c0-1,0.3-1.7,0.9-2.3
			c0.6-0.6,1.5-0.9,2.5-0.9s1.7,0.3,2.3,0.9s0.9,1.3,0.9,2.2v1.5c0.9-1.5,2.1-2.7,3.7-3.5c1.5-0.8,3.3-1.2,5.2-1.2
			C250.6,306.3,253,307.2,254.6,309.1z"/>
		<path class="st1" d="M280.7,331.6c0,0.9-0.4,1.5-1.1,2s-1.7,0.7-3.1,0.6l-1.5-0.1c-6.2-0.4-9.2-3.7-9.2-9.9v-12H263
			c-1,0-1.8-0.2-2.3-0.7c-0.5-0.4-0.8-1.1-0.8-1.9s0.3-1.5,0.8-1.9s1.3-0.7,2.3-0.7h2.8v-5.1c0-1,0.3-1.8,0.9-2.4s1.5-0.9,2.5-0.9
			s1.9,0.3,2.5,0.9s0.9,1.4,0.9,2.4v5.1h4.7c1,0,1.8,0.2,2.3,0.7c0.5,0.4,0.8,1.1,0.8,1.9s-0.3,1.5-0.8,1.9s-1.3,0.7-2.3,0.7h-4.7
			v12.5c0,2.7,1.2,4.2,3.7,4.3l1.5,0.1C279.8,329.2,280.7,330,280.7,331.6z"/>
		<path class="st1" d="M308,307.3c0.6,0.6,0.9,1.4,0.9,2.4V331c0,1-0.3,1.7-1,2.3c-0.6,0.6-1.5,0.9-2.5,0.9s-1.8-0.3-2.4-0.8
			s-0.9-1.3-0.9-2.3v-1.4c-0.8,1.5-2,2.6-3.4,3.4s-3,1.2-4.8,1.2c-6.6,0-9.9-3.7-9.9-11.1v-13.5c0-1,0.3-1.8,0.9-2.4
			s1.4-0.9,2.5-0.9s1.9,0.3,2.5,0.9s0.9,1.4,0.9,2.4v13.6c0,1.9,0.4,3.3,1.2,4.2c0.8,0.9,2,1.4,3.6,1.4c1.9,0,3.4-0.6,4.6-1.9
			s1.7-2.9,1.7-5v-12.3c0-1,0.3-1.8,0.9-2.4s1.4-0.9,2.5-0.9C306.5,306.4,307.4,306.7,308,307.3z"/>
		<path class="st1" d="M333.4,307c0.5,0.5,0.8,1.2,0.8,2.1c0,1-0.2,1.7-0.7,2.2s-1.3,0.8-2.6,0.9l-1.7,0.2c-2.2,0.2-3.7,1-4.8,2.2
			c-1,1.2-1.5,2.8-1.5,4.7v11.5c0,1.1-0.3,1.9-1,2.4s-1.5,0.9-2.5,0.9s-1.8-0.3-2.4-0.9s-1-1.4-1-2.4v-21.3c0-1,0.3-1.8,1-2.4
			s1.4-0.8,2.4-0.8s1.7,0.3,2.3,0.8c0.6,0.5,0.9,1.3,0.9,2.3v2.2c0.7-1.6,1.7-2.9,3.1-3.7s2.9-1.4,4.6-1.5l0.8-0.1
			C332.1,306.4,332.8,306.6,333.4,307z"/>
		<path class="st1" d="M358.7,307c0.5-0.3,1-0.5,1.6-0.5c0.8,0,1.6,0.3,2.3,0.9s1,1.3,1,2.1c0,0.4-0.1,0.8-0.3,1.3l-15,31.5
			c-0.6,1.2-1.6,1.9-2.9,1.9c-0.8,0-1.6-0.3-2.2-0.8s-1-1.2-1-2c0-0.4,0.1-0.9,0.3-1.4l3.7-7.9L336,310.8c-0.2-0.4-0.3-0.8-0.3-1.3
			c0-0.8,0.4-1.6,1.1-2.1c0.7-0.6,1.5-0.9,2.4-0.9c0.6,0,1.2,0.2,1.7,0.5s0.9,0.8,1.2,1.5l7.7,17l7.6-16.9
			C357.8,307.8,358.2,307.3,358.7,307z"/>
	</g>
	<path class="st1" d="M251.4,62.7c0-16.4-6.6-31.5-17.7-42.6S207.5,2.4,191.1,2.4c-32.8,0-59,26.2-60.3,58.3
		c-3.9,0.7-8.5,1.3-12.4,2.6C89.5,72.5,73.1,102,79,130.8c-7.2,2.6-13.1,7.2-17,13.8c-6.6,11.1-5.9,24.2,1.3,34.1
		C41,187.2,24.6,209.5,24.6,235c0,11.8,3.3,22.9,9.8,32.8c-13.8,8.5-22.9,23.6-22.9,40.6c0,21,13.1,38,32.1,44.6
		c-3.3,3.9-6.6,7.9-8.5,13.1c-4.6,10.5-4.6,21.6-0.7,32.8c6.6,16.4,22.3,26.9,39.3,26.9c2,0,4.6,0,6.6-0.7
		c0.7,11.8,5.2,22.9,13.1,31.5c9.8,11.1,22.9,17.7,38,19h3.9h4.6c9.2,21,29.5,34.7,53.1,34.7c31.5,0,57-24.9,57.7-56.4v-0.7v-96.6
		h-105c-3.6,1.3-7.2,3.2-10.3,6.2c-7.2,6.6-11.1,16.4-11.1,28.8c0,3.9,2.6,6.6,6.6,6.6s6.6-2.6,6.6-6.6c0-8.5,2-15.1,6.6-19
		c7.2-6.6,19-5.2,19-5.2h74.7v84.5c0.7,24.9-19.6,44.6-43.9,44.6l0,0c-17,0-32.1-9.8-40-24.2c20.3-7.2,36-25.5,38-48.5
		c0-3.9-2.6-6.6-5.9-7.2c-3.9,0-6.6,2.6-7.2,5.9c-2,23.6-22.3,40.6-45.2,39.3c-11.1-0.7-21.6-5.9-28.8-14.4
		c-7.2-8.5-11.1-19.7-9.8-30.8c0-1.3,0-2-0.7-3.3c-1.3-3.3-5.2-5.2-8.5-3.9c-15.1,5.9-32.1-1.3-38-16.4c-2.6-7.2-2.6-15.1,0-22.3
		c3.3-7.2,8.5-12.4,15.7-15.7c3.3-1.3,5.2-5.2,3.9-8.5c-1.3-2.6-3.9-3.9-6.6-3.9h-1.3c-19,0-34.1-15.1-34.1-34.1
		s15.1-34.1,34.1-34.1c1.9,0,3.5-0.6,4.6-1.7v-9.8c-1.1-1.1-2.7-1.7-4.6-1.7c-3.9,0-8.5,0.7-12.4,2c-5.9-7.9-9.2-17.7-9.2-27.5
		c0-18.7,10.6-34.7,26.2-42.3c10.9-6,7.3-24.5,6.7-28.8s0.2-8.8,2.5-12.8c5.2-9.2,17-12.4,26.2-6.6c3.3,2,7.2,0.7,9.2-2.6
		s0.7-7.2-2.6-9.2c-4.6-2.6-9.2-3.9-13.8-3.9c-5.2-22.9,7.9-45.9,30.2-53.1c7.2-2,14.4-2.6,21-1.3c11.8,2,22.3,8.5,28.8,18.4
		c2,3.3,5.9,3.9,9.2,1.3c3.3-2,3.9-5.9,1.3-9.2c-8.5-12.4-22.3-21-37.4-23.6h-2c0.7-25.5,21.6-45.9,47.2-45.9
		c12.4,0,24.2,5.2,33.4,13.8c9.2,9.2,13.8,21,13.8,33.4V64v0.7v85.2h-0.3v6.1h13.4V63.3C251.4,63.3,251.4,63.3,251.4,62.7
		L251.4,62.7z"/>
	<path class="st1" d="M260.6,62.7c0-16.4,6.6-31.5,17.7-42.6s26.2-17.7,42.6-17.7c32.8,0,59,26.2,60.3,58.3
		c3.9,0.7,8.5,1.3,12.4,2.6c28.8,9.2,45.2,38.7,39.3,67.5c7.2,2.6,13.1,7.2,17,13.8c6.6,11.1,5.9,24.2-1.3,34.1
		c22.3,8.5,38.7,30.8,38.7,56.4c0,11.8-3.3,22.9-9.8,32.8c13.8,8.5,22.9,23.6,22.9,40.6c0,21-13.1,38-32.1,44.6
		c3.3,3.9,6.6,7.9,8.5,13.1c4.6,10.5,4.6,21.6,0.7,32.8c-6.6,16.4-22.3,26.9-39.3,26.9c-2,0-4.6,0-6.6-0.7
		c-0.7,11.8-5.2,22.9-13.1,31.5c-9.8,11.1-22.9,17.7-38,19h-3.9H372c-9.2,21-29.5,34.7-53.1,34.7c-31.5,0-57-24.9-57.7-56.4v-0.7
		v-96.6h105c3.6,1.3,7.2,3.2,10.3,6.2c7.2,6.6,11.1,16.4,11.1,28.8c0,3.9-2.6,6.6-6.6,6.6s-6.6-2.6-6.6-6.6c0-8.5-2-15.1-6.6-19
		c-7.2-6.6-19-5.2-19-5.2h-74.7V452c-0.7,24.9,19.6,44.6,43.9,44.6l0,0c17,0,32.1-9.8,40-24.2c-20.3-7.2-36-25.5-38-48.5
		c0-3.9,2.6-6.6,5.9-7.2c3.9,0,6.6,2.6,7.2,5.9c2,23.6,22.3,40.6,45.2,39.3c11.1-0.7,21.6-5.9,28.8-14.4c7.2-8.5,11.1-19.7,9.8-30.8
		c0-1.3,0-2,0.7-3.3c1.3-3.3,5.2-5.2,8.5-3.9c15.1,5.9,32.1-1.3,38-16.4c2.6-7.2,2.6-15.1,0-22.3c-3.3-7.2-8.5-12.4-15.7-15.7
		c-3.3-1.3-5.2-5.2-3.9-8.5c1.3-2.6,3.9-3.9,6.6-3.9h1.3c19,0,34.1-15.1,34.1-34.1s-15.1-34.1-34.1-34.1c-1.9,0-3.5-0.6-4.6-1.7V263
		c1.1-1.1,2.7-1.7,4.6-1.7c3.9,0,8.5,0.7,12.4,2c5.9-7.9,9.2-17.7,9.2-27.5c0-18.7-10.6-34.7-26.2-42.3c-10.9-6-7.3-24.5-6.7-28.8
		s-0.2-8.8-2.5-12.8c-5.2-9.2-17-12.4-26.2-6.6c-3.3,2-7.2,0.7-9.2-2.6s-0.7-7.2,2.6-9.2c4.6-2.6,9.2-3.9,13.8-3.9
		c5.2-22.9-7.9-45.9-30.2-53.1c-7.2-2-14.4-2.6-21-1.3c-11.8,2-22.3,8.5-28.8,18.4c-2,3.3-5.9,3.9-9.2,1.3c-3.3-2-3.9-5.9-1.3-9.2
		c8.5-12.4,22.3-21,37.4-23.6h2c-0.7-25.5-21.6-45.9-47.2-45.9c-12.4,0-24.2,5.2-33.4,13.8c-9.2,9.2-13.8,21-13.8,33.4V64v0.7v85.2
		h0.3v6.1H261V63.3C260.6,63.3,260.6,63.3,260.6,62.7L260.6,62.7z"/>
</g>
</svg>
