<?xml version="1.0" encoding="utf-8"?>
<!-- Generator: Adobe Illustrator 22.0.0, SVG Export Plug-In . SVG Version: 6.00 Build 0)  -->
<svg version="1.1" xmlns="http://www.w3.org/2000/svg" xmlns:xlink="http://www.w3.org/1999/xlink" x="0px" y="0px"
	 viewBox="0 0 512 512" style="enable-background:new 0 0 512 512;" xml:space="preserve">
<style type="text/css">
	.st0{fill:#6FD6AD;}
	.st1{fill:#F56A67;}
	.st2{fill:#F1D982;}
	.st3{fill:#8ACE84;}
	.st4{fill:#58B5DE;}
	.st5{fill:#B7B7B7;}
</style>
<g id="Layer_2_copy">
	<text transform="matrix(1 0 0 1 83.568 577)"><tspan x="0" y="0" class="st0" style="font-family:'Nunito-Bold'; font-size:58px;">Mobile Glove</tspan><tspan x="28.6" y="69.6" class="st0" style="font-family:'Nunito-Bold'; font-size:58px;">Interaction</tspan></text>
</g>
<g id="Layer_2_1_">
	<g>
		<path class="st0" d="M127.4,384.8c0.7,0.7,1,1.6,1,2.7v34.3c0,1.1-0.3,1.9-0.9,2.6c-0.6,0.6-1.4,0.9-2.4,0.9c-1,0-1.8-0.3-2.4-0.9
			c-0.6-0.6-0.9-1.5-0.9-2.6V398l-9.9,18.7c-0.5,0.9-1,1.5-1.5,1.9c-0.5,0.4-1.2,0.6-1.9,0.6c-0.7,0-1.4-0.2-1.9-0.6
			c-0.5-0.4-1-1-1.5-1.9l-9.9-18.4v23.6c0,1-0.3,1.9-0.9,2.5c-0.6,0.6-1.4,1-2.4,1c-1,0-1.8-0.3-2.4-0.9s-0.9-1.5-0.9-2.6v-34.3
			c0-1.1,0.3-2,1-2.7c0.6-0.7,1.5-1,2.6-1c1.5,0,2.7,0.8,3.5,2.5l12.9,24.5l12.8-24.5c0.9-1.7,2-2.5,3.4-2.5
			C125.8,383.8,126.7,384.2,127.4,384.8z"/>
		<path class="st0" d="M141.9,423.7c-2.2-1.2-3.9-2.9-5.1-5.2c-1.2-2.2-1.8-4.9-1.8-7.8c0-3,0.6-5.6,1.8-7.8
			c1.2-2.2,2.9-3.9,5.1-5.1c2.2-1.2,4.7-1.8,7.6-1.8s5.4,0.6,7.6,1.8c2.2,1.2,3.9,2.9,5,5.1c1.2,2.2,1.8,4.8,1.8,7.8
			c0,3-0.6,5.6-1.8,7.8c-1.2,2.2-2.9,4-5,5.2c-2.2,1.2-4.7,1.8-7.6,1.8S144.1,424.9,141.9,423.7z M154.8,417.5
			c1.2-1.5,1.9-3.8,1.9-6.8c0-3-0.6-5.2-1.9-6.8c-1.2-1.6-3-2.3-5.3-2.3c-2.3,0-4.1,0.8-5.4,2.3c-1.3,1.6-1.9,3.8-1.9,6.8
			c0,3,0.6,5.3,1.9,6.8c1.2,1.5,3,2.3,5.3,2.3C151.8,419.8,153.6,419.1,154.8,417.5z"/>
		<path class="st0" d="M192.8,397.7c1.9,1.2,3.4,2.9,4.4,5.1c1.1,2.2,1.6,4.8,1.6,7.7c0,2.9-0.5,5.5-1.6,7.8c-1.1,2.3-2.6,4-4.5,5.2
			c-1.9,1.2-4.1,1.9-6.5,1.9c-2,0-3.9-0.4-5.5-1.3c-1.6-0.9-2.8-2.1-3.7-3.7v1.5c0,1-0.3,1.9-1,2.5c-0.7,0.6-1.5,0.9-2.6,0.9
			c-1.1,0-1.9-0.3-2.6-0.9c-0.6-0.6-1-1.5-1-2.5v-34.7c0-1,0.3-1.8,1-2.4c0.7-0.6,1.6-0.9,2.6-0.9c1.1,0,2,0.3,2.6,0.9
			c0.7,0.6,1,1.4,1,2.4v13.7c0.9-1.5,2.1-2.7,3.7-3.6c1.6-0.8,3.4-1.2,5.4-1.2C188.7,395.9,190.9,396.5,192.8,397.7z M189.6,417.4
			c1.3-1.6,1.9-3.9,1.9-6.8c0-2.9-0.6-5.1-1.9-6.7c-1.3-1.5-3-2.3-5.4-2.3c-2.3,0-4.1,0.8-5.4,2.3c-1.3,1.6-1.9,3.8-1.9,6.8
			c0,2.9,0.6,5.2,1.9,6.8c1.3,1.6,3,2.4,5.4,2.4C186.6,419.8,188.4,419,189.6,417.4z"/>
		<path class="st0" d="M205.3,389.8c-0.8-0.7-1.2-1.7-1.2-2.8s0.4-2.1,1.2-2.8c0.8-0.7,1.8-1,3.1-1c1.3,0,2.3,0.3,3.1,1
			c0.8,0.7,1.2,1.6,1.2,2.8s-0.4,2.1-1.2,2.8c-0.8,0.7-1.8,1.1-3.1,1.1C207.1,390.9,206,390.5,205.3,389.8z M205.8,424.4
			c-0.7-0.6-1-1.5-1-2.6v-22.4c0-1.1,0.3-2,1-2.6c0.7-0.6,1.5-0.9,2.6-0.9c1,0,1.9,0.3,2.6,0.9c0.7,0.6,1,1.4,1,2.6v22.4
			c0,1.1-0.3,2-1,2.6c-0.7,0.6-1.6,0.9-2.6,0.9C207.3,425.3,206.5,425,205.8,424.4z"/>
		<path class="st0" d="M220.5,424.4c-0.7-0.6-1-1.5-1-2.6v-34.6c0-1.1,0.3-2,1-2.6c0.7-0.6,1.5-0.9,2.6-0.9c1,0,1.9,0.3,2.6,0.9
			c0.7,0.6,1,1.4,1,2.6v34.6c0,1.1-0.3,2-1,2.6c-0.7,0.6-1.6,0.9-2.6,0.9C222.1,425.3,221.2,425,220.5,424.4z"/>
		<path class="st0" d="M258.3,418c0.4,0.5,0.6,1.2,0.6,2c0,1.2-0.7,2.2-2.1,3c-1.3,0.7-2.8,1.3-4.5,1.8c-1.7,0.4-3.2,0.7-4.8,0.7
			c-4.6,0-8.2-1.3-10.8-3.9c-2.7-2.6-4-6.2-4-10.8c0-2.9,0.6-5.5,1.7-7.7c1.2-2.2,2.8-4,4.9-5.2c2.1-1.2,4.5-1.9,7.2-1.9
			c2.6,0,4.8,0.6,6.7,1.7c1.9,1.1,3.4,2.7,4.4,4.8c1,2,1.6,4.5,1.6,7.2c0,1.7-0.7,2.5-2.2,2.5h-17.1c0.2,2.7,1,4.6,2.3,5.9
			c1.3,1.3,3.1,1.9,5.6,1.9c1.2,0,2.3-0.2,3.3-0.5c0.9-0.3,2-0.7,3.2-1.3c1.2-0.6,2-0.9,2.6-0.9C257.4,417.2,257.9,417.5,258.3,418z
			 M241.9,402.9c-1.2,1.2-1.9,3-2.1,5.3h13.1c-0.1-2.4-0.7-4.1-1.7-5.4c-1.1-1.2-2.6-1.8-4.5-1.8C244.7,401,243.1,401.7,241.9,402.9
			z"/>
		<path class="st0" d="M314.7,403.7c0.5,0.5,0.8,1.2,0.8,2.1v12.5c0,1.8-0.2,3-0.7,3.8s-1.4,1.3-2.8,1.8c-1.5,0.5-3.3,1-5.4,1.3
			c-2,0.3-4,0.5-5.9,0.5c-4.2,0-7.9-0.8-11-2.5c-3.1-1.7-5.5-4.1-7.1-7.2c-1.6-3.2-2.5-6.9-2.5-11.3c0-4.3,0.8-8,2.5-11.2
			s4-5.6,7-7.2c3-1.7,6.6-2.5,10.7-2.5c5.5,0,9.9,1.5,13.4,4.4c0.5,0.4,0.8,0.9,1,1.3c0.2,0.4,0.3,0.9,0.3,1.5
			c0,0.9-0.2,1.6-0.7,2.1s-1,0.9-1.7,0.9c-0.4,0-0.8-0.1-1.2-0.2c-0.3-0.1-0.8-0.4-1.2-0.7c-1.7-1.2-3.3-2-4.8-2.5s-3.1-0.7-5-0.7
			c-4.2,0-7.4,1.2-9.5,3.7c-2.1,2.5-3.2,6.2-3.2,11.1c0,10.1,4.4,15.1,13.2,15.1c2.6,0,5.3-0.4,7.9-1.1v-10.3h-6.6
			c-0.9,0-1.7-0.2-2.2-0.7c-0.5-0.5-0.8-1.1-0.8-2s0.3-1.5,0.8-2c0.5-0.5,1.2-0.7,2.2-0.7h10.3C313.4,402.9,314.2,403.2,314.7,403.7
			z"/>
		<path class="st0" d="M324.3,424.4c-0.7-0.6-1-1.5-1-2.6v-34.6c0-1.1,0.3-2,1-2.6c0.7-0.6,1.5-0.9,2.6-0.9s1.9,0.3,2.6,0.9
			c0.7,0.6,1,1.4,1,2.6v34.6c0,1.1-0.3,2-1,2.6c-0.7,0.6-1.6,0.9-2.6,0.9S325,425,324.3,424.4z"/>
		<path class="st0" d="M343.3,423.7c-2.2-1.2-3.9-2.9-5.1-5.2c-1.2-2.2-1.8-4.9-1.8-7.8c0-3,0.6-5.6,1.8-7.8
			c1.2-2.2,2.9-3.9,5.1-5.1c2.2-1.2,4.7-1.8,7.6-1.8c2.9,0,5.4,0.6,7.6,1.8c2.2,1.2,3.9,2.9,5,5.1c1.2,2.2,1.8,4.8,1.8,7.8
			c0,3-0.6,5.6-1.8,7.8c-1.2,2.2-2.9,4-5,5.2c-2.2,1.2-4.7,1.8-7.6,1.8C348,425.5,345.5,424.9,343.3,423.7z M356.3,417.5
			c1.2-1.5,1.9-3.8,1.9-6.8c0-3-0.6-5.2-1.9-6.8c-1.2-1.6-3-2.3-5.3-2.3c-2.3,0-4.1,0.8-5.4,2.3c-1.3,1.6-1.9,3.8-1.9,6.8
			c0,3,0.6,5.3,1.9,6.8c1.2,1.5,3,2.3,5.3,2.3C353.2,419.8,355,419.1,356.3,417.5z"/>
		<path class="st0" d="M391.9,396.6c0.5-0.3,1.1-0.5,1.7-0.5c0.9,0,1.7,0.3,2.4,0.9c0.7,0.6,1.1,1.3,1.1,2.2c0,0.5-0.1,0.9-0.3,1.4
			L386,423c-0.3,0.7-0.8,1.3-1.5,1.7c-0.6,0.4-1.3,0.6-2.1,0.6c-0.7,0-1.4-0.2-2.1-0.6c-0.7-0.4-1.2-0.9-1.5-1.7L368,400.6
			c-0.2-0.4-0.3-0.8-0.3-1.3c0-0.9,0.4-1.6,1.1-2.3s1.6-0.9,2.6-0.9c1.4,0,2.4,0.7,3.1,2l8.1,17.9l8.1-17.9
			C391,397.5,391.4,396.9,391.9,396.6z"/>
		<path class="st0" d="M425,418c0.4,0.5,0.6,1.2,0.6,2c0,1.2-0.7,2.2-2.1,3c-1.3,0.7-2.8,1.3-4.5,1.8c-1.7,0.4-3.2,0.7-4.8,0.7
			c-4.6,0-8.2-1.3-10.8-3.9c-2.7-2.6-4-6.2-4-10.8c0-2.9,0.6-5.5,1.7-7.7c1.2-2.2,2.8-4,4.9-5.2c2.1-1.2,4.5-1.9,7.2-1.9
			c2.6,0,4.8,0.6,6.7,1.7c1.9,1.1,3.4,2.7,4.4,4.8c1,2,1.6,4.5,1.6,7.2c0,1.7-0.7,2.5-2.2,2.5h-17.1c0.2,2.7,1,4.6,2.3,5.9
			c1.3,1.3,3.1,1.9,5.6,1.9c1.2,0,2.3-0.2,3.3-0.5c0.9-0.3,2-0.7,3.2-1.3c1.2-0.6,2-0.9,2.6-0.9C424,417.2,424.6,417.5,425,418z
			 M408.6,402.9c-1.2,1.2-1.9,3-2.1,5.3h13.1c-0.1-2.4-0.7-4.1-1.7-5.4c-1.1-1.2-2.6-1.8-4.5-1.8C411.4,401,409.8,401.7,408.6,402.9
			z"/>
		<path class="st0" d="M117.6,493.9c-0.7-0.7-1-1.6-1-2.7v-34c0-1.1,0.3-2,1-2.7c0.7-0.7,1.6-1,2.7-1c1.2,0,2.1,0.3,2.8,1
			c0.7,0.7,1,1.6,1,2.7v34c0,1.1-0.3,2-1,2.7c-0.7,0.7-1.6,1-2.8,1C119.1,494.9,118.2,494.6,117.6,493.9z"/>
		<path class="st0" d="M156.3,468.4c1.7,1.9,2.5,4.9,2.5,8.8v14.3c0,1.1-0.3,1.9-1,2.6s-1.5,0.9-2.6,0.9c-1.1,0-2-0.3-2.7-0.9
			c-0.7-0.6-1-1.5-1-2.6v-13.9c0-2.2-0.4-3.8-1.2-4.8c-0.8-1-2.1-1.5-3.9-1.5c-2.1,0-3.8,0.7-5,2c-1.3,1.3-1.9,3.1-1.9,5.3v12.9
			c0,1.1-0.3,1.9-1,2.6c-0.7,0.6-1.5,0.9-2.7,0.9c-1.1,0-2-0.3-2.6-0.9s-1-1.5-1-2.6V469c0-1,0.3-1.8,1-2.4c0.7-0.6,1.5-0.9,2.7-0.9
			c1,0,1.8,0.3,2.5,0.9c0.6,0.6,1,1.4,1,2.3v1.6c1-1.6,2.3-2.8,3.9-3.7c1.6-0.8,3.5-1.3,5.5-1.3
			C152.1,465.5,154.6,466.5,156.3,468.4z"/>
		<path class="st0" d="M183.8,492.2c0,0.9-0.4,1.6-1.1,2.1c-0.8,0.5-1.8,0.7-3.2,0.6l-1.6-0.1c-6.5-0.5-9.7-3.9-9.7-10.4v-12.6h-2.9
			c-1,0-1.8-0.2-2.4-0.7c-0.6-0.5-0.8-1.1-0.8-2s0.3-1.6,0.8-2s1.4-0.7,2.4-0.7h2.9v-5.3c0-1,0.3-1.9,1-2.5c0.7-0.6,1.5-0.9,2.7-0.9
			c1.1,0,2,0.3,2.6,0.9c0.7,0.6,1,1.5,1,2.5v5.3h4.9c1,0,1.8,0.2,2.4,0.7c0.6,0.5,0.8,1.1,0.8,2s-0.3,1.6-0.8,2
			c-0.6,0.5-1.4,0.7-2.4,0.7h-4.9v13.2c0,2.9,1.3,4.4,3.9,4.6l1.6,0.1C182.8,489.7,183.8,490.5,183.8,492.2z"/>
		<path class="st0" d="M211.6,487.6c0.4,0.5,0.6,1.2,0.6,2c0,1.2-0.7,2.2-2.1,3c-1.3,0.7-2.8,1.3-4.5,1.8c-1.7,0.4-3.2,0.7-4.8,0.7
			c-4.6,0-8.2-1.3-10.8-3.9c-2.7-2.6-4-6.2-4-10.8c0-2.9,0.6-5.5,1.7-7.7c1.2-2.2,2.8-4,4.9-5.2c2.1-1.2,4.5-1.9,7.2-1.9
			c2.6,0,4.8,0.6,6.7,1.7c1.9,1.1,3.4,2.7,4.4,4.8c1,2,1.6,4.5,1.6,7.2c0,1.7-0.7,2.5-2.2,2.5h-17.1c0.2,2.7,1,4.6,2.3,5.9
			c1.3,1.3,3.1,1.9,5.6,1.9c1.2,0,2.3-0.2,3.3-0.5c0.9-0.3,2-0.7,3.2-1.3c1.2-0.6,2-0.9,2.6-0.9
			C210.6,486.8,211.2,487.1,211.6,487.6z M195.2,472.5c-1.2,1.2-1.9,3-2.1,5.3h13.1c-0.1-2.4-0.7-4.1-1.7-5.4
			c-1.1-1.2-2.6-1.8-4.5-1.8C198,470.6,196.4,471.3,195.2,472.5z"/>
		<path class="st0" d="M236.5,466.3c0.6,0.5,0.9,1.3,0.9,2.3c0,1-0.3,1.8-0.8,2.3c-0.5,0.5-1.4,0.8-2.7,1l-1.7,0.2
			c-2.3,0.2-4,1-5,2.3c-1.1,1.3-1.6,3-1.6,4.9v12.2c0,1.1-0.3,2-1,2.6c-0.7,0.6-1.6,0.9-2.6,0.9c-1,0-1.9-0.3-2.6-0.9
			c-0.7-0.6-1-1.5-1-2.6V469c0-1.1,0.3-1.9,1-2.5c0.7-0.6,1.5-0.9,2.5-0.9c1,0,1.8,0.3,2.4,0.8c0.6,0.6,0.9,1.4,0.9,2.4v2.3
			c0.7-1.7,1.8-3,3.3-3.9c1.4-0.9,3.1-1.4,4.8-1.6l0.8-0.1C235.2,465.6,236,465.8,236.5,466.3z"/>
		<path class="st0" d="M261.5,468.5c1.9,2,2.9,4.9,2.9,8.9v14.2c0,1-0.3,1.9-0.9,2.5c-0.6,0.6-1.5,0.9-2.6,0.9c-1,0-1.8-0.3-2.5-0.9
			c-0.6-0.6-1-1.4-1-2.4v-1.3c-0.7,1.5-1.7,2.7-3.1,3.5c-1.4,0.8-3,1.3-4.9,1.3c-1.9,0-3.6-0.4-5.2-1.2c-1.5-0.8-2.8-1.8-3.7-3.2
			c-0.9-1.4-1.3-2.9-1.3-4.5c0-2.1,0.5-3.7,1.6-4.9c1.1-1.2,2.8-2.1,5.2-2.6c2.4-0.5,5.7-0.8,9.9-0.8h1.4v-1.3
			c0-1.9-0.4-3.3-1.2-4.1c-0.8-0.9-2.1-1.3-3.9-1.3c-1.1,0-2.3,0.2-3.4,0.5c-1.2,0.3-2.5,0.8-4.1,1.4c-1,0.5-1.7,0.8-2.2,0.8
			c-0.7,0-1.3-0.3-1.7-0.8c-0.4-0.5-0.7-1.2-0.7-2c0-0.7,0.2-1.2,0.5-1.7c0.3-0.5,0.9-0.9,1.7-1.4c1.4-0.7,3-1.3,4.8-1.7
			c1.9-0.4,3.7-0.6,5.5-0.6C256.7,465.5,259.6,466.5,261.5,468.5z M255.7,487.9c1.2-1.3,1.8-3,1.8-5v-1.2h-1c-2.6,0-4.6,0.1-6,0.3
			c-1.4,0.2-2.5,0.6-3.1,1.2c-0.6,0.6-0.9,1.4-0.9,2.4c0,1.2,0.4,2.3,1.3,3c0.9,0.8,1.9,1.2,3.2,1.2
			C252.9,489.8,254.4,489.2,255.7,487.9z"/>
		<path class="st0" d="M276.9,493.3c-2.1-1.2-3.8-2.9-5-5.1c-1.2-2.2-1.7-4.8-1.7-7.7c0-2.9,0.6-5.5,1.8-7.8s2.9-4,5.1-5.2
			c2.2-1.2,4.7-1.9,7.6-1.9c1.5,0,3,0.2,4.6,0.6c1.5,0.4,2.9,1,4,1.7c1.2,0.8,1.9,1.8,1.9,3.1c0,0.9-0.2,1.5-0.6,2.1
			c-0.4,0.5-0.9,0.8-1.6,0.8c-0.4,0-0.9-0.1-1.3-0.3s-0.9-0.4-1.4-0.7c-0.9-0.5-1.7-0.9-2.4-1.2c-0.8-0.3-1.7-0.4-2.7-0.4
			c-2.4,0-4.2,0.8-5.5,2.3c-1.3,1.6-1.9,3.8-1.9,6.8c0,2.9,0.6,5.1,1.9,6.7c1.3,1.6,3.1,2.3,5.5,2.3c1,0,1.8-0.1,2.6-0.4
			s1.6-0.7,2.5-1.2c0.6-0.3,1.1-0.6,1.5-0.8c0.4-0.2,0.8-0.3,1.3-0.3c0.6,0,1.1,0.3,1.6,0.8c0.4,0.5,0.6,1.2,0.6,2
			c0,0.7-0.1,1.2-0.4,1.7c-0.3,0.5-0.8,0.9-1.4,1.3c-1.2,0.8-2.6,1.4-4.2,1.8c-1.6,0.4-3.2,0.7-4.9,0.7
			C281.5,495.1,279,494.5,276.9,493.3z"/>
		<path class="st0" d="M317.9,492.2c0,0.9-0.4,1.6-1.1,2.1c-0.8,0.5-1.8,0.7-3.2,0.6l-1.6-0.1c-6.5-0.5-9.7-3.9-9.7-10.4v-12.6h-2.9
			c-1,0-1.8-0.2-2.4-0.7c-0.6-0.5-0.8-1.1-0.8-2s0.3-1.6,0.8-2c0.6-0.5,1.4-0.7,2.4-0.7h2.9v-5.3c0-1,0.3-1.9,1-2.5
			c0.7-0.6,1.5-0.9,2.7-0.9c1.1,0,2,0.3,2.6,0.9c0.7,0.6,1,1.5,1,2.5v5.3h4.9c1,0,1.8,0.2,2.4,0.7c0.6,0.5,0.8,1.1,0.8,2
			s-0.3,1.6-0.8,2c-0.6,0.5-1.4,0.7-2.4,0.7h-4.9v13.2c0,2.9,1.3,4.4,3.9,4.6l1.6,0.1C316.9,489.7,317.9,490.5,317.9,492.2z"/>
		<path class="st0" d="M322.1,459.4c-0.8-0.7-1.2-1.7-1.2-2.8s0.4-2.1,1.2-2.8c0.8-0.7,1.8-1,3.1-1c1.3,0,2.3,0.3,3.1,1
			c0.8,0.7,1.2,1.6,1.2,2.8s-0.4,2.1-1.2,2.8c-0.8,0.7-1.8,1.1-3.1,1.1S322.9,460.1,322.1,459.4z M322.6,494c-0.7-0.6-1-1.5-1-2.6
			v-22.4c0-1.1,0.3-2,1-2.6c0.7-0.6,1.5-0.9,2.6-0.9s1.9,0.3,2.6,0.9c0.7,0.6,1,1.4,1,2.6v22.4c0,1.1-0.3,2-1,2.6
			c-0.7,0.6-1.6,0.9-2.6,0.9S323.3,494.6,322.6,494z"/>
		<path class="st0" d="M341.7,493.3c-2.2-1.2-3.9-2.9-5.1-5.2c-1.2-2.2-1.8-4.9-1.8-7.8c0-3,0.6-5.6,1.8-7.8
			c1.2-2.2,2.9-3.9,5.1-5.1c2.2-1.2,4.7-1.8,7.6-1.8c2.9,0,5.4,0.6,7.6,1.8c2.2,1.2,3.9,2.9,5,5.1c1.2,2.2,1.8,4.8,1.8,7.8
			c0,3-0.6,5.6-1.8,7.8c-1.2,2.2-2.9,4-5,5.2c-2.2,1.2-4.7,1.8-7.6,1.8C346.4,495.1,343.8,494.5,341.7,493.3z M354.6,487.1
			c1.2-1.5,1.9-3.8,1.9-6.8c0-3-0.6-5.2-1.9-6.8c-1.2-1.6-3-2.3-5.3-2.3c-2.3,0-4.1,0.8-5.4,2.3c-1.3,1.6-1.9,3.8-1.9,6.8
			c0,3,0.6,5.3,1.9,6.8c1.2,1.5,3,2.3,5.3,2.3C351.6,489.4,353.4,488.7,354.6,487.1z"/>
		<path class="st0" d="M393.8,468.4c1.7,1.9,2.5,4.9,2.5,8.8v14.3c0,1.1-0.3,1.9-1,2.6c-0.6,0.6-1.5,0.9-2.6,0.9
			c-1.1,0-2-0.3-2.7-0.9c-0.7-0.6-1-1.5-1-2.6v-13.9c0-2.2-0.4-3.8-1.2-4.8c-0.8-1-2.1-1.5-3.9-1.5c-2.1,0-3.8,0.7-5,2
			c-1.3,1.3-1.9,3.1-1.9,5.3v12.9c0,1.1-0.3,1.9-1,2.6c-0.7,0.6-1.5,0.9-2.7,0.9c-1.1,0-2-0.3-2.6-0.9c-0.6-0.6-1-1.5-1-2.6V469
			c0-1,0.3-1.8,1-2.4s1.5-0.9,2.7-0.9c1,0,1.8,0.3,2.5,0.9c0.6,0.6,1,1.4,1,2.3v1.6c1-1.6,2.3-2.8,3.9-3.7c1.6-0.8,3.5-1.3,5.5-1.3
			C389.6,465.5,392.1,466.5,393.8,468.4z"/>
	</g>
</g>
<g id="Layer_3">
	<path class="st1" d="M179,154.9V83.1c5.8-2.1,10-7.6,10-14.1c0-8.3-6.7-15-15-15s-15,6.7-15,15c0,6.5,4.2,12.1,10,14.1v71.8
		c-5.8,2.1-10,7.6-10,14.1s4.2,12.1,10,14.1V268h10v-84.9c5.8-2.1,10-7.6,10-14.1S184.8,156.9,179,154.9z M174,64c2.8,0,5,2.2,5,5
		s-2.2,5-5,5s-5-2.2-5-5S171.2,64,174,64z M174,174c-2.8,0-5-2.2-5-5s2.2-5,5-5s5,2.2,5,5S176.8,174,174,174z"/>
	<path class="st2" d="M227,144.9V73.1c5.8-2.1,10-7.6,10-14.1c0-8.3-6.7-15-15-15s-15,6.7-15,15c0,6.5,4.2,12.1,10,14.1v71.8
		c-5.8,2.1-10,7.6-10,14.1s4.2,12.1,10,14.1V283h10V173.1c5.8-2.1,10-7.6,10-14.1S232.8,146.9,227,144.9z M222,54c2.8,0,5,2.2,5,5
		s-2.2,5-5,5s-5-2.2-5-5S219.2,54,222,54z M222,164c-2.8,0-5-2.2-5-5s2.2-5,5-5s5,2.2,5,5S224.8,164,222,164z"/>
	<path class="st3" d="M275,154.9V83.1c5.8-2.1,10-7.6,10-14.1c0-8.3-6.7-15-15-15s-15,6.7-15,15c0,6.5,4.2,12.1,10,14.1v71.8
		c-5.8,2.1-10,7.6-10,14.1s4.2,12.1,10,14.1V287h10V183.1c5.8-2.1,10-7.6,10-14.1S280.8,156.9,275,154.9z M270,64c2.8,0,5,2.2,5,5
		s-2.2,5-5,5s-5-2.2-5-5S267.2,64,270,64z M270,174c-2.8,0-5-2.2-5-5s2.2-5,5-5s5,2.2,5,5S272.8,174,270,174z"/>
	<path class="st4" d="M323,174.9v-71.8c5.8-2.1,10-7.6,10-14.1c0-8.3-6.7-15-15-15s-15,6.7-15,15c0,6.5,4.2,12.1,10,14.1v71.8
		c-5.8,2.1-10,7.6-10,14.1s4.2,12.1,10,14.1V295h10v-91.9c5.8-2.1,10-7.6,10-14.1S328.8,176.9,323,174.9z M318,84c2.8,0,5,2.2,5,5
		s-2.2,5-5,5s-5-2.2-5-5S315.2,84,318,84z M318,194c-2.8,0-5-2.2-5-5s2.2-5,5-5s5,2.2,5,5S320.8,194,318,194z"/>
	<g>
		<path class="st0" d="M393.1,312.5h-10c0-8-3.1-15.5-8.8-21.2c-5.7-5.7-13.2-8.8-21.2-8.8v-10c10.7,0,20.7,4.2,28.3,11.7
			C389,291.8,393.1,301.8,393.1,312.5z"/>
	</g>
	<g>
		<path class="st0" d="M415.9,300.2h-10c0-10.8-4.2-21-11.9-28.6c-7.6-7.6-17.8-11.9-28.6-11.9v-10c13.5,0,26.2,5.3,35.7,14.8
			C410.6,274.1,415.9,286.8,415.9,300.2z"/>
	</g>
	<path class="st5" d="M366,349c0,13.3-10.8,24-24,24H146c-45,0-41.5-164.5,0-123c32.3,32.3,147.3,40.4,196.9,42.4
		c12.9,0.5,23.1,11.1,23.1,24V349z"/>
</g>
</svg>
