<?xml version="1.0" encoding="utf-8"?>
<!-- Generator: Adobe Illustrator 22.0.0, SVG Export Plug-In . SVG Version: 6.00 Build 0)  -->
<svg version="1.1" id="Logo" xmlns="http://www.w3.org/2000/svg" xmlns:xlink="http://www.w3.org/1999/xlink" x="0px" y="0px"
	 viewBox="0 0 512 512" style="enable-background:new 0 0 512 512;" xml:space="preserve">
<style type="text/css">
	.st0{fill:#B0D865;}
</style>
<path id="Top" class="st0" d="M256.5,41.3c-17.3-4.8-35.6,2.4-45,17.7L65.7,311.6c-7.2,12.4-7.2,27.6,0,40s20.3,20,34.6,20h64.9
	l23.1-40h-88L245.7,79.8l0,246.8h40l0-246.8C285.7,61.9,273.8,46.2,256.5,41.3z"/>
<path id="Bottom" class="st0" d="M285.7,376.8h-40l0,15.7v40L198,404.9l11.4-19.7l31.3-54.2v-4.3l0-70.2c-3.8,3.1-7.1,6.8-9.7,11.2
	l-18.2,31.4l-49.6,85.8c-11,19.1-4.4,43.6,14.7,54.6l2,1.2l45.7,26.4c12.4,7.1,27.6,7.1,40,0c12.4-7.1,20-20.3,20-34.6v-40.3
	L285.7,376.8z"/>
<polygon id="Middle" class="st0" points="291.1,341.6 285.3,331.6 246.1,331.6 240.3,341.6 223,371.6 240.3,371.6 240.3,371.8 
	291.1,371.8 308.4,371.6 "/>
<path id="Right" class="st0" d="M430.8,367.4c-0.2-2.1-0.6-4.1-1.1-6.2c-4.7-17.5-20.5-29.7-38.6-29.7h-48l23.1,40h24.9l-23,13.3
	l-46.5-80.5l-21.2-36.7c-2.5-4.4-5.8-8.2-9.7-11.2v71.4v3.1l42.7,73.9c11,19.1,35.5,25.7,54.6,14.7l23-13.3
	C424.9,398.3,432.5,383,430.8,367.4z"/>
</svg>
