<?xml version="1.0" encoding="utf-8"?>
<!-- Generator: Adobe Illustrator 22.0.0, SVG Export Plug-In . SVG Version: 6.00 Build 0)  -->
<svg version="1.1" id="Layer_2_1_" xmlns="http://www.w3.org/2000/svg" xmlns:xlink="http://www.w3.org/1999/xlink" x="0px" y="0px"
	 viewBox="0 0 512 512" style="enable-background:new 0 0 512 512;" xml:space="preserve">
<style type="text/css">
	.st0{fill:#58B5DE;}
	.st1{fill:#B7B7B7;}
	.st2{fill:#F1D982;}
	.st3{fill:#C0E084;}
	.st4{fill:#8ACE84;}
</style>
<g>
	<path class="st0" d="M167.9,150.2L55.8,344.4c-4.8,8.2-0.9,15,8.7,15H108c3.2,0,7.1-2.2,8.7-5L207,197.9c1.6-2.8,1.6-7.3,0-10
		l-21.8-37.7C180.4,142,172.7,142,167.9,150.2z"/>
	<path class="st1" d="M258.3,99l-21.8-37.7c-4.8-8.2-12.6-8.2-17.3,0l-23.4,40.5c-1.6,2.8-1.6,7.3,0,10l21.8,37.7
		c4.8,8.2,12.6,8.2,17.3,0l23.4-40.5C259.9,106.3,259.9,101.8,258.3,99z"/>
	<path class="st1" d="M324.4,116l-10-17.3c-4.8-8.2-12.6-8.2-17.3,0l-0.2,0.3c-1.6,2.8-1.6,7.3,0,10l10,17.3
		c4.8,8.3,12.6,8.3,17.3,0l0.2-0.3C325.9,123.3,325.9,118.8,324.4,116z"/>
	<path class="st2" d="M163.9,359.4h108.8c10.1,0,13.9-7,8.4-15.5l-57.7-88.6c-4.9-7.5-12.6-7.3-17,0.5l-51.2,88.6
		C150.5,352.6,154.4,359.4,163.9,359.4z"/>
	<path class="st3" d="M233.9,219.1l88.3,135.7c1.6,2.5,5.4,4.5,8.4,4.5h60.8c9.5,0,13.4-6.8,8.7-15L286.3,147.4
		c-4.8-8.2-12.6-8.2-17.3,0l-35.4,61.3C231.9,211.6,232,216.3,233.9,219.1z"/>
	<path class="st4" d="M334.8,174.7l103.7,179.7c1.6,2.8,5.5,5,8.7,5h0.3c9.5,0,13.4-6.8,8.7-15L352.3,164.4
		c-4.8-8.3-12.6-8.2-17.3,0l-0.2,0.3C333.2,167.4,333.2,171.9,334.8,174.7z"/>
</g>
<g>
	<path class="st0" d="M116.5,433.4c-0.7-0.7-1-1.6-1-2.7v-31.3h-10.6c-2.3,0-3.5-1-3.5-3.1s1.2-3.1,3.5-3.1h28.6
		c2.3,0,3.5,1,3.5,3.1s-1.2,3.1-3.5,3.1H123v31.3c0,1.1-0.3,2-1,2.7c-0.7,0.7-1.6,1-2.7,1C118.1,434.4,117.2,434.1,116.5,433.4z"/>
	<path class="st0" d="M160.3,427.1c0.4,0.5,0.6,1.2,0.6,2c0,1.2-0.7,2.2-2.1,3c-1.3,0.7-2.8,1.3-4.5,1.8c-1.7,0.4-3.2,0.7-4.8,0.7
		c-4.6,0-8.2-1.3-10.8-3.9c-2.7-2.6-4-6.2-4-10.8c0-2.9,0.6-5.5,1.7-7.7c1.2-2.2,2.8-4,4.9-5.2c2.1-1.2,4.5-1.9,7.2-1.9
		c2.6,0,4.8,0.6,6.7,1.7c1.9,1.1,3.4,2.7,4.4,4.8c1,2.1,1.6,4.5,1.6,7.2c0,1.7-0.7,2.5-2.2,2.5h-17.1c0.2,2.7,1,4.6,2.3,5.9
		s3.1,1.9,5.6,1.9c1.2,0,2.3-0.2,3.3-0.5c0.9-0.3,2-0.7,3.2-1.3c1.2-0.6,2-0.9,2.6-0.9C159.4,426.4,159.9,426.6,160.3,427.1z
		 M143.9,412.1c-1.2,1.2-1.9,3-2.1,5.3h13.1c-0.1-2.4-0.7-4.1-1.7-5.4c-1.1-1.2-2.6-1.8-4.5-1.8
		C146.7,410.2,145.1,410.8,143.9,412.1z"/>
	<path class="st0" d="M185.3,405.8c0.6,0.5,0.9,1.3,0.9,2.3c0,1-0.3,1.8-0.8,2.3c-0.5,0.5-1.4,0.8-2.7,1l-1.7,0.2
		c-2.3,0.2-4,1-5,2.3c-1.1,1.3-1.6,3-1.6,4.9V431c0,1.1-0.3,2-1,2.6c-0.7,0.6-1.6,0.9-2.6,0.9c-1,0-1.9-0.3-2.6-0.9
		c-0.7-0.6-1-1.5-1-2.6v-22.4c0-1.1,0.3-1.9,1-2.5c0.7-0.6,1.5-0.9,2.5-0.9c1,0,1.8,0.3,2.4,0.8c0.6,0.6,0.9,1.4,0.9,2.4v2.3
		c0.7-1.7,1.8-3,3.3-3.9c1.4-0.9,3.1-1.5,4.8-1.6l0.8-0.1C183.9,405.1,184.7,405.3,185.3,405.8z"/>
	<path class="st0" d="M207.5,405.8c0.6,0.5,0.9,1.3,0.9,2.3c0,1-0.3,1.8-0.8,2.3c-0.5,0.5-1.4,0.8-2.7,1l-1.7,0.2
		c-2.3,0.2-4,1-5,2.3c-1.1,1.3-1.6,3-1.6,4.9V431c0,1.1-0.3,2-1,2.6c-0.7,0.6-1.6,0.9-2.6,0.9c-1,0-1.9-0.3-2.6-0.9
		c-0.7-0.6-1-1.5-1-2.6v-22.4c0-1.1,0.3-1.9,1-2.5c0.7-0.6,1.5-0.9,2.5-0.9c1,0,1.8,0.3,2.4,0.8c0.6,0.6,0.9,1.4,0.9,2.4v2.3
		c0.7-1.7,1.8-3,3.3-3.9c1.4-0.9,3.1-1.5,4.8-1.6l0.8-0.1C206.1,405.1,206.9,405.3,207.5,405.8z"/>
	<path class="st0" d="M232.5,408c1.9,2,2.9,4.9,2.9,8.9v14.2c0,1-0.3,1.9-0.9,2.5c-0.6,0.6-1.5,0.9-2.6,0.9c-1,0-1.8-0.3-2.5-0.9
		c-0.6-0.6-1-1.4-1-2.4v-1.3c-0.7,1.5-1.7,2.7-3.1,3.5c-1.4,0.8-3,1.3-4.9,1.3c-1.9,0-3.6-0.4-5.2-1.2c-1.5-0.8-2.8-1.8-3.7-3.2
		c-0.9-1.4-1.3-2.9-1.3-4.5c0-2.1,0.5-3.7,1.6-4.9c1.1-1.2,2.8-2.1,5.2-2.6c2.4-0.5,5.7-0.8,9.9-0.8h1.4v-1.3c0-1.9-0.4-3.3-1.2-4.1
		c-0.8-0.9-2.1-1.3-3.9-1.3c-1.1,0-2.3,0.2-3.4,0.5c-1.2,0.3-2.5,0.8-4.1,1.4c-1,0.5-1.7,0.8-2.2,0.8c-0.7,0-1.3-0.3-1.7-0.8
		c-0.4-0.5-0.7-1.2-0.7-2c0-0.7,0.2-1.2,0.5-1.7c0.3-0.5,0.9-0.9,1.7-1.4c1.4-0.7,3-1.3,4.8-1.7c1.9-0.4,3.7-0.6,5.5-0.6
		C227.6,405.1,230.5,406.1,232.5,408z M226.6,427.5c1.2-1.3,1.8-3,1.8-5v-1.2h-1c-2.6,0-4.6,0.1-6,0.3c-1.4,0.2-2.5,0.6-3.1,1.2
		c-0.6,0.6-0.9,1.4-0.9,2.4c0,1.2,0.4,2.3,1.3,3c0.9,0.8,1.9,1.2,3.2,1.2C223.8,429.4,225.4,428.7,226.6,427.5z"/>
	<path class="st0" d="M243.2,399c-0.8-0.7-1.2-1.7-1.2-2.8c0-1.2,0.4-2.1,1.2-2.8c0.8-0.7,1.8-1,3.1-1c1.3,0,2.3,0.3,3.1,1
		c0.8,0.7,1.2,1.6,1.2,2.8c0,1.2-0.4,2.1-1.2,2.8c-0.8,0.7-1.8,1.1-3.1,1.1C245,400,243.9,399.7,243.2,399z M243.7,433.6
		c-0.7-0.6-1-1.5-1-2.6v-22.4c0-1.1,0.3-2,1-2.6c0.7-0.6,1.5-0.9,2.6-0.9c1,0,1.9,0.3,2.6,0.9c0.7,0.6,1,1.4,1,2.6V431
		c0,1.1-0.3,2-1,2.6c-0.7,0.6-1.6,0.9-2.6,0.9C245.2,434.5,244.4,434.2,243.7,433.6z"/>
	<path class="st0" d="M281.5,408c1.7,1.9,2.5,4.9,2.5,8.8V431c0,1.1-0.3,1.9-1,2.6c-0.6,0.6-1.5,0.9-2.6,0.9c-1.1,0-2-0.3-2.7-0.9
		s-1-1.5-1-2.6v-13.9c0-2.2-0.4-3.8-1.2-4.8c-0.8-1-2.1-1.5-3.9-1.5c-2.1,0-3.8,0.7-5,2c-1.3,1.3-1.9,3.1-1.9,5.3V431
		c0,1.1-0.3,1.9-1,2.6c-0.7,0.6-1.5,0.9-2.7,0.9s-2-0.3-2.6-0.9s-1-1.5-1-2.6v-22.4c0-1,0.3-1.8,1-2.4c0.7-0.6,1.5-0.9,2.7-0.9
		c1,0,1.8,0.3,2.5,0.9c0.6,0.6,1,1.4,1,2.3v1.6c1-1.6,2.3-2.8,3.9-3.7c1.6-0.8,3.5-1.3,5.5-1.3C277.3,405.1,279.8,406.1,281.5,408z"
		/>
	<path class="st0" d="M341,412.8c0.5,0.5,0.8,1.2,0.8,2.1v12.5c0,1.8-0.2,3-0.7,3.8c-0.5,0.7-1.4,1.3-2.8,1.8
		c-1.5,0.5-3.3,1-5.4,1.3c-2,0.3-4,0.5-5.9,0.5c-4.2,0-7.9-0.8-11-2.5c-3.1-1.7-5.5-4.1-7.1-7.2c-1.6-3.2-2.5-6.9-2.5-11.3
		c0-4.3,0.8-8,2.5-11.2c1.6-3.2,4-5.6,7-7.2s6.6-2.5,10.7-2.5c5.5,0,9.9,1.5,13.4,4.4c0.5,0.4,0.8,0.9,1,1.3
		c0.2,0.4,0.3,0.9,0.3,1.5c0,0.9-0.2,1.6-0.7,2.1c-0.5,0.6-1,0.9-1.7,0.9c-0.4,0-0.8-0.1-1.2-0.2c-0.3-0.1-0.8-0.4-1.2-0.7
		c-1.7-1.2-3.3-2-4.8-2.5c-1.5-0.5-3.1-0.7-5-0.7c-4.2,0-7.4,1.2-9.5,3.7s-3.2,6.2-3.2,11.1c0,10.1,4.4,15.1,13.2,15.1
		c2.6,0,5.3-0.4,7.9-1.1v-10.3h-6.6c-0.9,0-1.7-0.2-2.2-0.7c-0.5-0.5-0.8-1.1-0.8-2s0.3-1.5,0.8-2c0.5-0.5,1.2-0.7,2.2-0.7h10.3
		C339.7,412.1,340.5,412.3,341,412.8z"/>
	<path class="st0" d="M373.6,427.1c0.4,0.5,0.6,1.2,0.6,2c0,1.2-0.7,2.2-2.1,3c-1.3,0.7-2.8,1.3-4.5,1.8c-1.7,0.4-3.2,0.7-4.8,0.7
		c-4.6,0-8.2-1.3-10.8-3.9c-2.7-2.6-4-6.2-4-10.8c0-2.9,0.6-5.5,1.7-7.7s2.8-4,4.9-5.2c2.1-1.2,4.5-1.9,7.2-1.9
		c2.6,0,4.8,0.6,6.7,1.7c1.9,1.1,3.4,2.7,4.4,4.8c1,2.1,1.6,4.5,1.6,7.2c0,1.7-0.7,2.5-2.2,2.5h-17.1c0.2,2.7,1,4.6,2.3,5.9
		s3.1,1.9,5.6,1.9c1.2,0,2.3-0.2,3.3-0.5c0.9-0.3,2-0.7,3.2-1.3c1.2-0.6,2-0.9,2.6-0.9C372.7,426.4,373.2,426.6,373.6,427.1z
		 M357.3,412.1c-1.2,1.2-1.9,3-2.1,5.3h13.1c-0.1-2.4-0.7-4.1-1.7-5.4s-2.6-1.8-4.5-1.8C360,410.2,358.4,410.8,357.3,412.1z"/>
	<path class="st0" d="M404.4,408c1.7,1.9,2.5,4.9,2.5,8.8V431c0,1.1-0.3,1.9-1,2.6s-1.5,0.9-2.6,0.9c-1.1,0-2-0.3-2.7-0.9
		c-0.7-0.6-1-1.5-1-2.6v-13.9c0-2.2-0.4-3.8-1.2-4.8c-0.8-1-2.1-1.5-3.9-1.5c-2.1,0-3.8,0.7-5,2c-1.3,1.3-1.9,3.1-1.9,5.3V431
		c0,1.1-0.3,1.9-1,2.6c-0.7,0.6-1.5,0.9-2.7,0.9c-1.1,0-2-0.3-2.6-0.9c-0.6-0.6-1-1.5-1-2.6v-22.4c0-1,0.3-1.8,1-2.4
		c0.7-0.6,1.5-0.9,2.7-0.9c1,0,1.8,0.3,2.5,0.9c0.6,0.6,1,1.4,1,2.3v1.6c1-1.6,2.3-2.8,3.9-3.7c1.6-0.8,3.5-1.3,5.5-1.3
		C400.3,405.1,402.8,406.1,404.4,408z"/>
</g>
</svg>
