<?xml version="1.0" encoding="utf-8"?>
<!-- Generator: Adobe Illustrator 22.0.0, SVG Export Plug-In . SVG Version: 6.00 Build 0)  -->
<svg version="1.1" id="Layer_1" xmlns="http://www.w3.org/2000/svg" xmlns:xlink="http://www.w3.org/1999/xlink" x="0px" y="0px"
	 viewBox="0 0 512 512" style="enable-background:new 0 0 512 512;" xml:space="preserve">
<style type="text/css">
	.st0{fill:#B474EE;}
</style>
<path class="st0" d="M60.2,221v-11.7h51.9V221h-19v51.6h-14V221H60.2z"/>
<path class="st0" d="M121.8,226.8v8.5h0.2c0.6-1.4,1.4-2.7,2.4-3.9s2.2-2.2,3.5-3.1c1.3-0.9,2.7-1.5,4.2-2s3-0.7,4.6-0.7
	c0.8,0,1.7,0.1,2.8,0.4v11.7c-0.6-0.1-1.3-0.2-2.1-0.3s-1.6-0.1-2.4-0.1c-2.3,0-4.3,0.4-5.9,1.2c-1.6,0.8-2.9,1.8-3.9,3.1
	s-1.7,2.9-2.1,4.7s-0.6,3.7-0.6,5.8v20.7h-12.6v-45.9L121.8,226.8L121.8,226.8z"/>
<path class="st0" d="M143.8,240.9c0.2-3,0.9-5.4,2.2-7.4s3-3.5,5-4.7s4.3-2,6.8-2.5s5-0.8,7.6-0.8c2.3,0,4.6,0.2,7,0.5
	s4.5,1,6.5,1.9s3.5,2.3,4.8,3.9c1.2,1.7,1.9,3.9,1.9,6.7v23.9c0,2.1,0.1,4.1,0.4,5.9c0.2,1.9,0.6,3.3,1.2,4.3h-12.8
	c-0.2-0.7-0.4-1.4-0.6-2.2c-0.1-0.7-0.3-1.5-0.3-2.3c-2,2.1-4.4,3.5-7.1,4.3c-2.7,0.8-5.5,1.2-8.3,1.2c-2.2,0-4.2-0.3-6.1-0.8
	c-1.9-0.5-3.5-1.4-5-2.5c-1.4-1.1-2.5-2.5-3.3-4.3c-0.8-1.7-1.2-3.8-1.2-6.1c0-2.6,0.5-4.7,1.4-6.4s2.1-3,3.5-4s3.1-1.8,5-2.3
	s3.7-0.9,5.6-1.2c1.9-0.3,3.8-0.5,5.6-0.7s3.5-0.4,4.9-0.8s2.5-0.9,3.4-1.6c0.8-0.7,1.2-1.7,1.2-3c0-1.4-0.2-2.4-0.7-3.2
	c-0.4-0.8-1-1.4-1.8-1.9c-0.7-0.4-1.6-0.7-2.6-0.9c-1-0.1-2-0.2-3.1-0.2c-2.5,0-4.4,0.5-5.9,1.6s-2.2,2.8-2.5,5.3h-12.7L143.8,240.9
	L143.8,240.9z M172.9,250.2c-0.5,0.5-1.2,0.8-2,1.1s-1.7,0.5-2.6,0.7c-0.9,0.2-1.9,0.3-2.9,0.4c-1,0.1-2,0.3-3,0.4
	c-0.9,0.2-1.9,0.4-2.8,0.7c-0.9,0.3-1.7,0.7-2.4,1.2s-1.2,1.1-1.6,1.9c-0.4,0.8-0.6,1.7-0.6,2.9c0,1.1,0.2,2.1,0.6,2.8
	c0.4,0.8,1,1.4,1.7,1.8s1.5,0.8,2.5,0.9c0.9,0.2,1.9,0.3,2.9,0.3c2.5,0,4.4-0.4,5.8-1.2c1.4-0.8,2.4-1.8,3-3c0.7-1.2,1-2.3,1.2-3.5
	c0.1-1.2,0.2-2.1,0.2-2.8L172.9,250.2L172.9,250.2z"/>
<path class="st0" d="M227.8,266.8c-1.5,2.5-3.4,4.3-5.8,5.4s-5.1,1.6-8.1,1.6c-3.4,0-6.4-0.7-9-2s-4.7-3.1-6.4-5.4s-3-4.9-3.8-7.9
	c-0.9-3-1.3-6-1.3-9.2c0-3.1,0.4-6,1.3-8.9c0.9-2.9,2.1-5.4,3.8-7.6c1.7-2.2,3.8-3.9,6.3-5.3c2.5-1.3,5.5-2,8.9-2
	c2.7,0,5.3,0.6,7.8,1.7c2.5,1.2,4.4,2.9,5.8,5.1h0.2v-23.1H240v63.3h-12v-5.9h-0.2V266.8z M227.3,244.2c-0.4-1.7-1-3.3-1.8-4.6
	c-0.9-1.3-2-2.4-3.3-3.2c-1.4-0.8-3.1-1.2-5.1-1.2c-2.1,0-3.8,0.4-5.2,1.2s-2.6,1.9-3.4,3.3c-0.9,1.4-1.5,2.9-1.9,4.7
	c-0.4,1.7-0.6,3.6-0.6,5.5c0,1.8,0.2,3.5,0.6,5.3c0.4,1.8,1.1,3.4,2,4.7c0.9,1.4,2.1,2.5,3.5,3.4s3.1,1.3,5,1.3
	c2.1,0,3.8-0.4,5.2-1.2c1.4-0.8,2.5-1.9,3.3-3.3s1.4-3,1.8-4.7s0.5-3.6,0.5-5.5C227.8,247.7,227.7,245.9,227.3,244.2z"/>
<path class="st0" d="M263,261.7c1.9,1.8,4.6,2.8,8.2,2.8c2.5,0,4.7-0.6,6.6-1.9c1.8-1.3,3-2.6,3.4-4h11.1c-1.8,5.5-4.5,9.4-8.2,11.8
	s-8.1,3.5-13.3,3.5c-3.6,0-6.9-0.6-9.8-1.7c-2.9-1.2-5.4-2.8-7.4-4.9s-3.6-4.7-4.7-7.6c-1.1-3-1.6-6.2-1.6-9.8
	c0-3.4,0.6-6.6,1.7-9.6c1.1-3,2.7-5.5,4.8-7.7s4.5-3.9,7.4-5.1c2.9-1.2,6-1.9,9.5-1.9c3.9,0,7.3,0.8,10.2,2.3
	c2.9,1.5,5.3,3.5,7.1,6.1c1.9,2.5,3.2,5.4,4,8.7s1.1,6.7,0.9,10.2h-33.1C260,256.9,261.1,259.8,263,261.7z M277.2,237.5
	c-1.5-1.7-3.8-2.5-6.9-2.5c-2,0-3.7,0.3-5,1s-2.4,1.5-3.2,2.5c-0.8,1-1.4,2.1-1.7,3.2c-0.3,1.1-0.5,2.1-0.6,3h20.5
	C279.8,241.6,278.7,239.2,277.2,237.5z"/>
<path class="st0" d="M312.4,226.8v8.5h0.2c0.6-1.4,1.4-2.7,2.4-3.9s2.2-2.2,3.5-3.1c1.3-0.9,2.7-1.5,4.2-2s3-0.7,4.6-0.7
	c0.8,0,1.7,0.1,2.8,0.4v11.7c-0.6-0.1-1.3-0.2-2.1-0.3c-0.8-0.1-1.6-0.1-2.4-0.1c-2.3,0-4.3,0.4-5.9,1.2s-2.9,1.8-3.9,3.1
	s-1.7,2.9-2.1,4.7s-0.6,3.7-0.6,5.8v20.7h-12.6v-45.9L312.4,226.8L312.4,226.8z"/>
<path class="st0" d="M335.3,219.7v-10.4h12.6v10.4H335.3z M347.9,226.8v45.9h-12.6v-45.9L347.9,226.8L347.9,226.8z"/>
<path class="st0" d="M403.9,239.8c1.1-3,2.7-5.5,4.8-7.6c2.1-2.1,4.6-3.7,7.5-4.9s6.2-1.7,9.8-1.7c3.6,0,6.9,0.6,9.8,1.7
	s5.4,2.8,7.5,4.9c2.1,2.1,3.7,4.6,4.8,7.6c1.1,3,1.7,6.3,1.7,10s-0.6,7-1.7,9.9c-1.1,3-2.7,5.5-4.8,7.6c-2.1,2.1-4.6,3.7-7.5,4.8
	s-6.2,1.7-9.8,1.7c-3.6,0-6.9-0.6-9.8-1.7s-5.4-2.7-7.5-4.8s-3.7-4.6-4.8-7.6c-1.1-3-1.7-6.3-1.7-9.9
	C402.2,246.1,402.7,242.8,403.9,239.8z M415.3,255.2c0.4,1.7,1,3.3,1.8,4.7c0.9,1.4,2,2.5,3.4,3.3s3.2,1.2,5.3,1.2s3.9-0.4,5.4-1.2
	c1.4-0.8,2.6-1.9,3.5-3.3s1.5-3,1.8-4.7c0.4-1.7,0.5-3.5,0.5-5.4c0-1.8-0.2-3.6-0.5-5.4s-1-3.3-1.8-4.7c-0.9-1.4-2-2.5-3.5-3.3
	c-1.4-0.9-3.2-1.3-5.4-1.3s-3.9,0.4-5.3,1.3c-1.4,0.9-2.6,2-3.4,3.3c-0.9,1.4-1.5,2.9-1.8,4.7s-0.5,3.6-0.5,5.4
	C414.8,251.6,414.9,253.4,415.3,255.2z"/>
<polygon class="st0" points="364.5,193.7 355.5,209.3 358.2,209.3 358.2,272.7 370.8,272.7 370.8,209.3 373.5,209.3 "/>
<polygon class="st0" points="393.6,272.7 393.6,209.3 381,209.3 381,272.7 378.3,272.7 387.3,288.3 396.3,272.7 "/>
</svg>
