<svg id="4a83777f-973a-4841-ba6f-36e0b16f7027" data-name="Layer 1" xmlns="http://www.w3.org/2000/svg" viewBox="0 0 256 256"><title>UCColor</title><path d="M221.65,90.24v-68h-1.51V14.72H196v7.55h-4.53V112.9H180.87v57.39a3,3,0,0,0,3,3h4.53a3,3,0,0,1,3,3v64.95h39.27v-151Z" style="fill:#58b5de"/><polygon points="177.84 176.33 177.84 167.27 167.27 167.27 167.27 176.33 159.72 176.33 159.72 241.28 188.42 241.28 188.42 176.33 177.84 176.33" style="fill:#8ace84"/><path d="M146.13,182.38v-7.56h-3v-7.55h-3c0-3.34-4.05-6-9.06-6s-9.06,2.7-9.06,6h-4.53v7.55h-1.51v7.56h-3v58.9h42.29v-58.9Z" style="fill:#f7cb77"/><rect x="63.05" y="168.78" width="39.27" height="72.5" style="fill:#fcb96c"/><rect x="25.29" y="180.87" width="34.74" height="60.42" style="fill:#b474ee"/><path d="M111.39,137.06v42.29h1.51V171.8h1.51v-4.53a3,3,0,0,1,3-3h2.17c1.62-3.55,6.06-6,11.42-6s9.8,2.49,11.42,6h.66a3,3,0,0,1,1.51.42V137.06Z" style="fill:#f56a67"/><path d="M108.36,114.41H97.79l-7.05,9.06h17.62a3,3,0,0,1,3,3V134h7.55v-3Z" style="fill:#58b5de"/><path d="M69.09,126.49v39.27h33.23a3,3,0,0,1,3,3v72.5h3V126.49Z" style="fill:#8ace84"/></svg>