<?xml version="1.0" encoding="utf-8"?>
<!-- Generator: Adobe Illustrator 22.0.0, SVG Export Plug-In . SVG Version: 6.00 Build 0)  -->
<svg version="1.1" id="Layer_2_1_" xmlns="http://www.w3.org/2000/svg" xmlns:xlink="http://www.w3.org/1999/xlink" x="0px" y="0px"
	 viewBox="0 0 512 512" style="enable-background:new 0 0 512 512;" xml:space="preserve">
<style type="text/css">
	.st0{fill:#F99169;}
	.st1{fill:#B7B7B7;}
	.st2{fill:#C0E084;}
	.st3{enable-background:new    ;}
</style>
<path class="st0" d="M343,388h-77c-2.8,0-5-2.2-5-5v-15c0-1.1-0.9-2-2-2h-6c-1.1,0-2,0.9-2,2v15c0,2.8-2.2,5-5,5h-77
	c-8.3,0-15,6.7-15,15v14.8c0,2.6,1.9,4.9,4.5,5.2c3,0.3,5.5-2.1,5.5-5v-15c0-2.8,2.2-5,5-5h77c3.8,0,7.3-1.5,10-3.9
	c2.7,2.4,6.2,3.9,10,3.9h77c2.8,0,5,2.2,5,5v14.8c0,2.6,1.9,4.9,4.5,5.2c3,0.3,5.5-2.1,5.5-5v-15C358,394.7,351.3,388,343,388z"/>
<path class="st1" d="M256,301.1c-43.6,0-77.8-19.8-77.8-45v-37h16c0,13.7,25.4,29,61.8,29s61.8-15.3,61.8-29h16v37
	C333.8,281.3,299.6,301.1,256,301.1z M194.2,246.8v9.3c0,13.7,25.4,29,61.8,29s61.8-15.3,61.8-29v-9.3
	c-14.1,10.6-36.3,17.3-61.8,17.3C230.6,264.1,208.3,257.4,194.2,246.8z"/>
<path class="st1" d="M475.6,333.1L362.4,159.4c-3.3-5.1-9-8.2-15.1-8.2H273c-1.1,0-2,0.9-2,2v12c0,1.1,0.9,2,2,2h74.3
	c0.7,0,1.3,0.3,1.7,0.9l113.2,173.7c0.5,0.8,0.3,1.6,0.1,2s-0.8,1-1.8,1H51.4c-1,0-1.5-0.6-1.8-1c-0.3-0.5-0.5-1.2,0.1-2l113-173.7
	c0.4-0.6,1-0.9,1.7-0.9H239c1.1,0,2-0.9,2-2v-12c0-1.1-0.9-2-2-2h-74.6c-6.1,0-11.8,3.1-15.1,8.2l-113,173.7
	c-4,6.2-3.9,14.3,0.5,20.4c3.4,4.8,9.1,7.4,15,7.4H460c5.9,0,11.6-2.7,15-7.5C479.5,347.4,479.7,339.3,475.6,333.1z"/>
<path class="st2" d="M346.5,96.3h-7.6l-12.7-12.7L338.9,71h7.6c2.8,0,5-2.2,5-5s-2.2-5-5-5H339v-7.5c0-2.8-2.2-5-5-5s-5,2.2-5,5v7.6
	l-14.6,14.6h-15.1V60.5L313.9,46h7.6c2.8,0,5-2.2,5-5s-2.2-5-5-5H314v-7.5c0-2.8-2.2-5-5-5s-5,2.2-5,5v7.6l-12.7,12.7l-12.7-12.7
	v-7.6c0-2.8-2.2-5-5-5s-5,2.2-5,5V36h-7.5c-2.8,0-5,2.2-5,5s2.2,5,5,5h7.6l14.6,14.6V79L256,106.3l-27.4-27.4V60.5L243.2,46h7.6
	c2.8,0,5-2.2,5-5s-2.2-5-5-5h-7.5v-7.5c0-2.8-2.2-5-5-5s-5,2.2-5,5v7.6l-12.7,12.7L208,36.1v-7.6c0-2.8-2.2-5-5-5s-5,2.2-5,5V36
	h-7.5c-2.8,0-5,2.2-5,5s2.2,5,5,5h7.6l14.6,14.6v15.1h-15.1L183,61.1v-7.6c0-2.8-2.2-5-5-5s-5,2.2-5,5V61h-7.5c-2.8,0-5,2.2-5,5
	c0,2.8,2.2,5,5,5h7.6l12.7,12.7l-12.7,12.7h-7.6c-2.8,0-5,2.2-5,5s2.2,5,5,5h7.5v7.5c0,2.8,2.2,5,5,5s5-2.2,5-5v-7.6l14.6-14.6H216
	l30.1,30.1v97.4c0,5.5,4.5,10,10,10s10-4.5,10-10v-97.4l30.1-30.1h18.4l14.6,14.6v7.6c0,2.8,2.2,5,5,5s5-2.2,5-5v-7.5h7.5
	c2.8,0,5-2.2,5-5S349.3,96.3,346.5,96.3z"/>
<path class="st1" d="M271,177.2v12.1c0,1,0.7,1.8,1.7,2c27.2,3.8,45,16.4,45,27.8c0,13.7-25.4,29-61.8,29s-61.8-15.3-61.8-29
	c0-11.5,17.8-24.1,45-27.8c1-0.1,1.7-1,1.7-2v-12.1c0-1.2-1.1-2.1-2.2-2c-35,4.4-60.5,22.1-60.5,43.9c0,25.2,34.2,45,77.8,45
	s77.8-19.8,77.8-45c0-21.8-25.5-39.5-60.5-43.9C272.1,175.1,271,176,271,177.2z"/>
<g class="st3">
	<path class="st0" d="M39.9,475.2c-2.9-2.9-4.3-7.1-4.3-12.7v-20.9c0-1.1,0.3-2,1-2.7c0.7-0.7,1.5-1,2.7-1c1.1,0,2,0.3,2.7,1
		c0.7,0.7,1,1.6,1,2.7v21.3c0,3.5,0.8,6.2,2.5,8c1.7,1.8,4.1,2.7,7.3,2.7c3.2,0,5.6-0.9,7.2-2.7c1.7-1.8,2.5-4.5,2.5-7.9v-21.3
		c0-1.1,0.3-2,1-2.7c0.7-0.7,1.5-1,2.7-1c1.1,0,2,0.3,2.7,1c0.7,0.7,1,1.6,1,2.7v20.9c0,5.5-1.5,9.8-4.4,12.7
		c-2.9,2.9-7.1,4.4-12.7,4.4C47,479.5,42.8,478.1,39.9,475.2z"/>
	<path class="st0" d="M95.8,450.7c0.6,0.5,0.9,1.3,0.9,2.3c0,1-0.3,1.8-0.8,2.3c-0.5,0.5-1.4,0.8-2.7,1l-1.7,0.2c-2.3,0.2-4,1-5,2.3
		c-1.1,1.3-1.6,3-1.6,4.9v12.2c0,1.1-0.3,2-1,2.6c-0.7,0.6-1.6,0.9-2.6,0.9s-1.9-0.3-2.6-0.9c-0.7-0.6-1-1.5-1-2.6v-22.4
		c0-1.1,0.3-1.9,1-2.5c0.7-0.6,1.5-0.9,2.5-0.9c1,0,1.8,0.3,2.4,0.8c0.6,0.6,0.9,1.4,0.9,2.4v2.3c0.7-1.7,1.8-3,3.3-3.9
		c1.5-0.9,3.1-1.4,4.8-1.6l0.8-0.1C94.5,450,95.3,450.2,95.8,450.7z"/>
	<path class="st0" d="M122.7,451.7c1.9,1.2,3.4,2.9,4.4,5.1c1.1,2.2,1.6,4.8,1.6,7.7c0,2.9-0.5,5.5-1.6,7.8c-1.1,2.3-2.6,4-4.5,5.2
		c-1.9,1.2-4.1,1.9-6.5,1.9c-2,0-3.9-0.4-5.5-1.3s-2.8-2.1-3.7-3.7v1.5c0,1-0.3,1.9-1,2.5c-0.7,0.6-1.5,0.9-2.6,0.9
		c-1.1,0-1.9-0.3-2.6-0.9c-0.6-0.6-1-1.5-1-2.5v-34.7c0-1,0.3-1.8,1-2.4c0.7-0.6,1.6-0.9,2.6-0.9c1.1,0,2,0.3,2.6,0.9
		c0.7,0.6,1,1.4,1,2.4v13.7c0.8-1.5,2.1-2.7,3.7-3.6c1.6-0.8,3.4-1.2,5.4-1.2C118.6,449.9,120.8,450.5,122.7,451.7z M119.6,471.4
		c1.3-1.6,1.9-3.9,1.9-6.8c0-2.9-0.6-5.1-1.9-6.7c-1.3-1.5-3-2.3-5.4-2.3s-4.1,0.8-5.4,2.3c-1.3,1.6-1.9,3.8-1.9,6.8
		c0,2.9,0.6,5.2,1.9,6.8c1.3,1.6,3,2.4,5.4,2.4C116.5,473.8,118.3,473,119.6,471.4z"/>
	<path class="st0" d="M155.8,452.9c1.9,2,2.9,4.9,2.9,8.9v14.2c0,1-0.3,1.9-0.9,2.5c-0.6,0.6-1.5,0.9-2.6,0.9c-1,0-1.8-0.3-2.5-0.9
		c-0.6-0.6-1-1.4-1-2.4v-1.3c-0.7,1.5-1.7,2.7-3.1,3.5c-1.4,0.8-3,1.3-4.9,1.3c-1.9,0-3.6-0.4-5.2-1.2c-1.5-0.8-2.8-1.8-3.7-3.2
		c-0.9-1.4-1.3-2.9-1.3-4.5c0-2.1,0.5-3.7,1.6-4.9c1.1-1.2,2.8-2.1,5.2-2.6c2.4-0.5,5.7-0.8,9.9-0.8h1.4v-1.3c0-1.9-0.4-3.3-1.2-4.1
		c-0.8-0.9-2.1-1.3-3.9-1.3c-1.1,0-2.3,0.2-3.4,0.5c-1.2,0.3-2.5,0.8-4.1,1.4c-1,0.5-1.7,0.8-2.2,0.8c-0.7,0-1.3-0.3-1.7-0.8
		c-0.4-0.5-0.7-1.2-0.7-2c0-0.7,0.2-1.2,0.5-1.7c0.3-0.5,0.9-0.9,1.7-1.4c1.4-0.7,3-1.3,4.8-1.7c1.9-0.4,3.7-0.6,5.5-0.6
		C150.9,449.9,153.9,450.9,155.8,452.9z M149.9,472.3c1.2-1.3,1.8-3,1.8-5v-1.2h-1c-2.6,0-4.6,0.1-6,0.3c-1.4,0.2-2.5,0.6-3.1,1.2
		c-0.6,0.6-0.9,1.4-0.9,2.4c0,1.2,0.4,2.3,1.3,3c0.9,0.8,1.9,1.2,3.2,1.2C147.1,474.2,148.7,473.6,149.9,472.3z"/>
	<path class="st0" d="M190.1,452.8c1.7,1.9,2.5,4.9,2.5,8.8v14.3c0,1.1-0.3,1.9-1,2.6c-0.6,0.6-1.5,0.9-2.6,0.9s-2-0.3-2.7-0.9
		s-1-1.5-1-2.6V462c0-2.2-0.4-3.8-1.2-4.8c-0.8-1-2.1-1.5-3.9-1.5c-2.1,0-3.8,0.7-5,2s-1.9,3.1-1.9,5.3v12.9c0,1.1-0.3,1.9-1,2.6
		c-0.7,0.6-1.5,0.9-2.7,0.9c-1.1,0-2-0.3-2.6-0.9c-0.6-0.6-1-1.5-1-2.6v-22.4c0-1,0.3-1.8,1-2.4c0.7-0.6,1.5-0.9,2.7-0.9
		c1,0,1.8,0.3,2.5,0.9c0.6,0.6,1,1.4,1,2.3v1.6c1-1.6,2.3-2.8,3.9-3.7c1.6-0.8,3.5-1.3,5.5-1.3C185.9,449.9,188.4,450.9,190.1,452.8
		z"/>
	<path class="st0" d="M224.2,477c-3-1.7-5.2-4.1-6.8-7.3c-1.6-3.2-2.4-6.9-2.4-11.1c0-4.3,0.8-8,2.4-11.1c1.6-3.2,3.9-5.6,6.8-7.3
		c3-1.7,6.4-2.6,10.4-2.6c2.6,0,4.9,0.4,7.2,1.1c2.2,0.8,4.2,1.8,6,3.3c0.5,0.4,0.8,0.8,1,1.2c0.2,0.4,0.3,0.9,0.3,1.6
		c0,0.9-0.2,1.6-0.7,2.1s-1,0.9-1.7,0.9c-0.8,0-1.6-0.3-2.4-0.8c-1.7-1.2-3.2-2.1-4.6-2.6c-1.4-0.5-3-0.7-4.8-0.7
		c-4,0-7.1,1.3-9.1,3.8s-3.1,6.2-3.1,11.1c0,4.9,1,8.6,3.1,11.1c2.1,2.5,5.1,3.8,9.1,3.8c1.7,0,3.2-0.3,4.6-0.8
		c1.4-0.5,3-1.4,4.8-2.6c0.4-0.2,0.8-0.4,1.2-0.6c0.4-0.2,0.8-0.2,1.2-0.2c0.7,0,1.2,0.3,1.7,0.9s0.7,1.3,0.7,2.1
		c0,0.6-0.1,1.1-0.3,1.5c-0.2,0.4-0.5,0.9-1,1.2c-1.7,1.4-3.7,2.5-6,3.3c-2.2,0.8-4.6,1.1-7.2,1.1
		C230.6,479.5,227.2,478.7,224.2,477z"/>
	<path class="st0" d="M259.7,477.7c-2.2-1.2-3.9-2.9-5.1-5.2c-1.2-2.2-1.8-4.9-1.8-7.8c0-3,0.6-5.6,1.8-7.8c1.2-2.2,2.9-3.9,5.1-5.1
		c2.2-1.2,4.7-1.8,7.6-1.8c2.9,0,5.4,0.6,7.6,1.8c2.2,1.2,3.9,2.9,5,5.1c1.2,2.2,1.8,4.8,1.8,7.8c0,3-0.6,5.6-1.8,7.8
		c-1.2,2.2-2.9,4-5,5.2c-2.2,1.2-4.7,1.8-7.6,1.8C264.4,479.5,261.9,478.9,259.7,477.7z M272.7,471.5c1.2-1.5,1.9-3.8,1.9-6.8
		c0-3-0.6-5.2-1.9-6.8c-1.2-1.6-3-2.3-5.3-2.3c-2.3,0-4.1,0.8-5.4,2.3c-1.3,1.6-1.9,3.8-1.9,6.8c0,3,0.6,5.3,1.9,6.8
		c1.2,1.5,3,2.3,5.3,2.3C269.6,473.8,271.4,473.1,272.7,471.5z"/>
	<path class="st0" d="M312.8,451c0.7,0.6,1,1.4,1,2.5V476c0,1-0.3,1.8-1,2.4c-0.7,0.6-1.6,0.9-2.6,0.9c-1,0-1.9-0.3-2.5-0.9
		c-0.6-0.6-0.9-1.4-0.9-2.4v-1.4c-0.9,1.5-2.1,2.7-3.6,3.6c-1.5,0.8-3.2,1.2-5.1,1.2c-7,0-10.4-3.9-10.4-11.7v-14.3
		c0-1,0.3-1.9,1-2.5c0.7-0.6,1.5-0.9,2.6-0.9c1.1,0,2,0.3,2.7,0.9c0.7,0.6,1,1.4,1,2.5v14.3c0,2,0.4,3.5,1.2,4.5
		c0.8,1,2.1,1.4,3.8,1.4c2,0,3.6-0.7,4.8-2c1.2-1.3,1.8-3.1,1.8-5.3v-12.9c0-1,0.3-1.9,1-2.5c0.7-0.6,1.5-0.9,2.6-0.9
		C311.3,450.1,312.2,450.4,312.8,451z"/>
	<path class="st0" d="M339.5,450.7c0.6,0.5,0.9,1.3,0.9,2.3c0,1-0.3,1.8-0.8,2.3c-0.5,0.5-1.4,0.8-2.7,1l-1.7,0.2
		c-2.3,0.2-4,1-5,2.3c-1.1,1.3-1.6,3-1.6,4.9v12.2c0,1.1-0.3,2-1,2.6c-0.7,0.6-1.6,0.9-2.6,0.9s-1.9-0.3-2.6-0.9
		c-0.7-0.6-1-1.5-1-2.6v-22.4c0-1.1,0.3-1.9,1-2.5c0.7-0.6,1.5-0.9,2.5-0.9s1.8,0.3,2.4,0.8c0.6,0.6,0.9,1.4,0.9,2.4v2.3
		c0.7-1.7,1.8-3,3.3-3.9c1.5-0.9,3.1-1.4,4.8-1.6l0.8-0.1C338.2,450,339,450.2,339.5,450.7z"/>
	<path class="st0" d="M363.8,476.6c0,0.9-0.4,1.6-1.1,2.1c-0.8,0.5-1.8,0.7-3.2,0.6l-1.6-0.1c-6.5-0.5-9.7-3.9-9.7-10.4v-12.6h-2.9
		c-1,0-1.8-0.2-2.4-0.7c-0.6-0.5-0.8-1.1-0.8-2s0.3-1.6,0.8-2c0.6-0.5,1.4-0.7,2.4-0.7h2.9v-5.3c0-1,0.3-1.9,1-2.5
		c0.7-0.6,1.5-0.9,2.7-0.9c1.1,0,2,0.3,2.6,0.9c0.7,0.6,1,1.5,1,2.5v5.3h4.9c1,0,1.8,0.2,2.4,0.7c0.6,0.5,0.8,1.1,0.8,2
		s-0.3,1.6-0.8,2c-0.6,0.5-1.4,0.7-2.4,0.7h-4.9v13.2c0,2.9,1.3,4.4,3.9,4.6l1.6,0.1C362.8,474.1,363.8,474.9,363.8,476.6z"/>
	<path class="st0" d="M389.1,450.6c0.5-0.3,1.1-0.5,1.7-0.5c0.9,0,1.7,0.3,2.4,0.9c0.7,0.6,1.1,1.3,1.1,2.2c0,0.4-0.1,0.9-0.3,1.3
		l-15.8,33.2c-0.7,1.3-1.7,2-3.1,2c-0.9,0-1.7-0.3-2.3-0.8c-0.7-0.6-1-1.3-1-2.1c0-0.4,0.1-0.9,0.3-1.5l3.9-8.3l-10.8-22.4
		c-0.2-0.4-0.3-0.8-0.3-1.3c0-0.9,0.4-1.6,1.1-2.3s1.6-0.9,2.6-0.9c0.7,0,1.3,0.2,1.8,0.5c0.5,0.3,1,0.8,1.3,1.5l8.1,17.9l8.1-17.9
		C388.1,451.5,388.5,450.9,389.1,450.6z"/>
	<path class="st0" d="M419.2,452.9c1.9,2,2.9,4.9,2.9,8.9v14.2c0,1-0.3,1.9-0.9,2.5c-0.6,0.6-1.5,0.9-2.6,0.9c-1,0-1.8-0.3-2.5-0.9
		c-0.6-0.6-1-1.4-1-2.4v-1.3c-0.7,1.5-1.7,2.7-3.1,3.5c-1.4,0.8-3,1.3-4.9,1.3c-1.9,0-3.6-0.4-5.2-1.2c-1.5-0.8-2.8-1.8-3.7-3.2
		c-0.9-1.4-1.3-2.9-1.3-4.5c0-2.1,0.5-3.7,1.6-4.9c1.1-1.2,2.8-2.1,5.2-2.6c2.4-0.5,5.7-0.8,9.9-0.8h1.5v-1.3c0-1.9-0.4-3.3-1.2-4.1
		c-0.8-0.9-2.1-1.3-3.9-1.3c-1.1,0-2.3,0.2-3.4,0.5c-1.2,0.3-2.5,0.8-4.1,1.4c-1,0.5-1.7,0.8-2.2,0.8c-0.7,0-1.3-0.3-1.7-0.8
		c-0.4-0.5-0.7-1.2-0.7-2c0-0.7,0.2-1.2,0.5-1.7c0.3-0.5,0.9-0.9,1.7-1.4c1.4-0.7,3-1.3,4.8-1.7c1.9-0.4,3.7-0.6,5.5-0.6
		C414.4,449.9,417.3,450.9,419.2,452.9z M413.4,472.3c1.2-1.3,1.8-3,1.8-5v-1.2h-1c-2.6,0-4.6,0.1-6,0.3c-1.4,0.2-2.5,0.6-3.1,1.2
		c-0.6,0.6-0.9,1.4-0.9,2.4c0,1.2,0.4,2.3,1.3,3c0.9,0.8,1.9,1.2,3.2,1.2C410.6,474.2,412.1,473.6,413.4,472.3z"/>
	<path class="st0" d="M447.7,450.7c0.6,0.5,0.9,1.3,0.9,2.3c0,1-0.3,1.8-0.8,2.3c-0.5,0.5-1.4,0.8-2.7,1l-1.7,0.2
		c-2.3,0.2-4,1-5,2.3c-1.1,1.3-1.6,3-1.6,4.9v12.2c0,1.1-0.3,2-1,2.6c-0.7,0.6-1.6,0.9-2.6,0.9s-1.9-0.3-2.6-0.9
		c-0.7-0.6-1-1.5-1-2.6v-22.4c0-1.1,0.3-1.9,1-2.5c0.7-0.6,1.5-0.9,2.5-0.9s1.8,0.3,2.4,0.8c0.6,0.6,0.9,1.4,0.9,2.4v2.3
		c0.7-1.7,1.8-3,3.3-3.9c1.5-0.9,3.1-1.4,4.8-1.6l0.8-0.1C446.3,450,447.1,450.2,447.7,450.7z"/>
	<path class="st0" d="M477.4,438.7c0.7,0.6,1,1.4,1,2.4v34.7c0,1-0.3,1.9-1,2.5c-0.7,0.6-1.5,0.9-2.6,0.9c-1.1,0-2-0.3-2.6-0.9
		c-0.7-0.6-1-1.5-1-2.5v-1.5c-0.9,1.6-2.1,2.8-3.7,3.7c-1.6,0.9-3.4,1.3-5.5,1.3c-2.4,0-4.6-0.6-6.5-1.9s-3.4-3-4.5-5.2
		c-1.1-2.3-1.6-4.9-1.6-7.8c0-2.9,0.5-5.5,1.6-7.7s2.5-3.9,4.4-5.1c1.9-1.2,4.1-1.8,6.6-1.8c2,0,3.9,0.4,5.5,1.3
		c1.6,0.9,2.8,2,3.7,3.6v-13.7c0-1,0.3-1.7,1-2.3c0.6-0.6,1.5-0.9,2.6-0.9C475.8,437.8,476.7,438.1,477.4,438.7z M469.4,471.5
		c1.3-1.6,1.9-3.8,1.9-6.8c0-2.9-0.6-5.2-1.9-6.8c-1.3-1.6-3-2.3-5.3-2.3c-2.3,0-4.1,0.8-5.4,2.3c-1.3,1.5-1.9,3.8-1.9,6.7
		c0,2.9,0.6,5.2,1.9,6.8c1.3,1.6,3.1,2.4,5.3,2.4C466.3,473.8,468.1,473,469.4,471.5z"/>
</g>
</svg>
