<?xml version="1.0" encoding="utf-8"?>
<!-- Generator: Adobe Illustrator 22.0.0, SVG Export Plug-In . SVG Version: 6.00 Build 0)  -->
<svg version="1.1" id="Layer_1" xmlns="http://www.w3.org/2000/svg" xmlns:xlink="http://www.w3.org/1999/xlink" x="0px" y="0px"
	 viewBox="0 0 512 512" style="enable-background:new 0 0 512 512;" xml:space="preserve">
<style type="text/css">
	.st0{fill:#78934C;}
	.st1{fill:#A28D4A;}
	.st2{fill:#A78142;}
	.st3{fill:#8DAD51;}
	.st4{fill:#BEA64F;}
	.st5{fill:#C49844;}
	.st6{fill:#4B844A;}
	.st7{fill:#A1C165;}
	.st8{fill:#D3BB64;}
	.st9{fill:#B0D865;}
	.st10{fill:#C98639;}
	.st11{fill:#579B51;}
	.st12{fill:#C0E084;}
	.st13{fill:#DD9A4D;}
	.st14{fill:#6CB065;}
	.st15{fill:#AB7239;}
	.st16{fill:#EED063;}
	.st17{fill:#F24541;}
	.st18{fill:#6DC265;}
	.st19{fill:#358B6A;}
	.st20{fill:#A75133;}
	.st21{fill:#C65E36;}
	.st22{fill:#3CA37A;}
	.st23{fill:#2EA3D6;}
	.st24{fill:#D6504C;}
	.st25{fill:#216F90;}
	.st26{fill:#9555D0;}
	.st27{fill:#C23734;}
	.st28{fill:#A4302F;}
	.st29{fill:#5C5FBD;}
	.st30{fill:#2582AB;}
	.st31{fill:#3997C0;}
	.st32{fill:#3D3F8D;}
	.st33{fill:#6D389C;}
	.st34{fill:#484AA9;}
	.st35{enable-background:new    ;}
	.st36{fill:#EFEFEF;}
</style>
<g id="Layer_2_copy">
	<text transform="matrix(1 0 0 1 83.568 577)" style="fill:#6FD6AD; font-family:'Nunito-Bold'; font-size:58px;">Mobile Glove</text>
	<text transform="matrix(1 0 0 1 112.168 646.6)" style="fill:#6FD6AD; font-family:'Nunito-Bold'; font-size:58px;">Interaction</text>
</g>
<g id="Layer_2_1_">
	<g>
		<path class="st0" d="M388.5,263.8l15.3-37.1c0.4-1,1.3-1.8,2.4-2.1l15.3-3.8c1-0.3,2.1,0,3,0.6l11.4,8.5c0.6,0.5,1.1,1.2,1.3,2
			l9.6,37.5c0.2,0.6,0.1,1.3-0.1,2l-0.1,0.4c-0.2,0.6-0.6,1.2-1.1,1.6L424,291.6c-0.6,0.5-1.4,0.8-2.3,0.8h-0.4
			c-0.8,0-1.6-0.3-2.3-0.8l-29-24.5c-0.6-0.5-1-1.1-1.2-1.8L388.5,263.8L388.5,263.8z"/>
		<path class="st1" d="M425.2,170.4L395.5,151c-1-0.6-1.6-1.7-1.6-2.8l-0.5-14.3c0-1.1,0.4-2.1,1.3-2.8l24.8-20.7
			c0.6-0.5,1.4-0.8,2.2-0.8h0.4c0.8,0,1.6,0.3,2.2,0.7l32,25c0.5,0.4,0.9,1,1.2,1.6l0.1,0.3c0.2,0.7,0.3,1.4,0.1,2.1l-3.3,12.2
			c-0.2,0.8-0.7,1.5-1.4,2l-24.3,16.3c-0.6,0.4-1.2,0.6-1.9,0.6L425.2,170.4L425.2,170.4z"/>
		<path class="st2" d="M387.4,126.8l-30.3-19.1c-0.5-0.3-1-0.8-1.3-1.4l-0.2-0.4c-0.3-0.6-0.4-1.2-0.4-1.8l1.6-21.8
			c0-0.7,0.3-1.3,0.7-1.9l0.2-0.3c0.4-0.5,1-1,1.6-1.2l33.3-12.2c0.6-0.2,1.3-0.3,2-0.1l0.3,0.1c0.7,0.1,1.3,0.5,1.8,1L417,88.3
			c0.7,0.7,1,1.6,1,2.6l-0.4,11.2c0,1-0.5,2-1.3,2.6L391,125.9c-0.6,0.5-1.3,0.8-2,0.8L387.4,126.8L387.4,126.8z"/>
		<path class="st3" d="M387.4,320l-22.5-6.1c-0.8-0.2-1.5-0.7-1.9-1.3l-0.2-0.3c-0.5-0.7-0.7-1.5-0.7-2.3l1.9-33.2
			c0-0.8,0.3-1.5,0.8-2.1l0.2-0.2c0.5-0.6,1.3-1.1,2.1-1.2l15.4-2.6c1-0.2,2.1,0.1,2.8,0.8l32.8,27.5l-0.1,0.5L387.4,320L387.4,320z
			"/>
		<path class="st4" d="M400.4,219l-30-13.2c-0.6-0.3-1.2-0.7-1.5-1.3l-0.2-0.3c-0.4-0.6-0.6-1.3-0.6-2l0.7-25.5c0-1,0.5-2,1.3-2.7
			l19-15.4c0.6-0.5,1.3-0.7,2-0.8h0.4c0.7,0,1.5,0.1,2.1,0.5l27.5,17c0.6,0.3,1,0.8,1.3,1.4l0.2,0.4c0.3,0.6,0.4,1.2,0.4,1.9
			l-2.9,32.2c-0.1,0.7-0.3,1.4-0.8,1.9l-0.2,0.3c-0.5,0.6-1.1,1-1.8,1.2L400.4,219L400.4,219z"/>
		<path class="st5" d="M363.1,169.8L335,156.2c-0.6-0.3-1.1-0.7-1.5-1.3l-0.2-0.3c-0.4-0.6-0.6-1.3-0.5-2l0.7-24.8
			c0-1.1,0.5-2,1.4-2.7l14.9-11.6c0.6-0.4,1.3-0.7,2-0.7h0.3c0.8,0,1.5,0.2,2.1,0.6l30.4,20.2c0.9,0.6,1.5,1.6,1.6,2.6l1.2,13.3
			c0.1,0.6,0,1.2-0.3,1.7l-0.1,0.4c-0.2,0.5-0.6,1-1,1.4l-19.7,16c-0.5,0.4-1.2,0.7-1.8,0.8L363.1,169.8L363.1,169.8z"/>
		<path class="st6" d="M350.7,378.3l-10.2-7.3c-0.8-0.5-1.3-1.4-1.4-2.3l-5.2-32.1c-0.1-0.7,0-1.4,0.3-2.1l0.1-0.3
			c0.3-0.7,0.8-1.2,1.5-1.6l22.9-12.8c0.8-0.4,1.8-0.6,2.7-0.3l21.9,6c0.7,0.2,1.4,0.6,1.8,1.2l0.2,0.3c0.5,0.6,0.7,1.3,0.8,2
			l1.7,35.7c0,0.8-0.2,1.6-0.6,2.2l-0.2,0.3c-0.5,0.7-1.1,1.1-1.9,1.4L350.7,378.3L350.7,378.3z"/>
		<path class="st7" d="M360.8,267.5l-21.7-12c-0.5-0.3-1-0.7-1.3-1.3l-0.2-0.3c-0.3-0.5-0.5-1.1-0.5-1.8l-0.4-22.8
			c0-0.6,0.1-1.3,0.5-1.8l0.2-0.3c0.3-0.6,0.8-1.1,1.4-1.4l26-14.1c1-0.5,2.1-0.6,3.1-0.1l25.8,11.4c0.8,0.4,1.5,1,1.8,1.9l0.1,0.3
			c0.3,0.8,0.4,1.8,0,2.6l-13.1,33.8c-0.2,0.5-0.6,1-1,1.4l-0.3,0.2c-0.5,0.4-1,0.7-1.6,0.8L360.8,267.5L360.8,267.5z"/>
		<path class="st8" d="M332.4,220.6l-18.6-14c-0.7-0.5-1.2-1.3-1.4-2.2l-4-22.2c-0.1-0.6-0.1-1.2,0.1-1.8l0.1-0.4
			c0.2-0.6,0.6-1.1,1-1.5l18.4-16c0.5-0.5,1.2-0.7,1.9-0.8l0.4-0.1c0.7-0.1,1.4,0,2,0.3l27.1,13.1c0.6,0.3,1.1,0.7,1.5,1.3l0.2,0.3
			c0.4,0.6,0.5,1.2,0.5,1.9l0.1,24.1c0,0.6-0.2,1.2-0.5,1.8l-0.2,0.3c-0.3,0.5-0.8,1-1.3,1.3l-24.1,14c-0.6,0.3-1.3,0.5-1.9,0.5
			L332.4,220.6L332.4,220.6z"/>
		<path class="st9" d="M328.9,327.8l-19.3-14c-0.7-0.5-1.2-1.3-1.4-2.2l-4.9-25.1c-0.1-0.6-0.1-1.3,0.2-1.9l0.1-0.4
			c0.2-0.6,0.6-1.2,1.2-1.6l27.5-21.1c0.5-0.4,1.2-0.7,1.9-0.7h0.4c0.7-0.1,1.4,0.1,2,0.4l19.1,10.6c0.6,0.3,1.1,0.8,1.4,1.4
			l0.2,0.3c0.3,0.6,0.5,1.2,0.4,1.9l-2,36c0,0.6-0.2,1.1-0.5,1.6l-0.2,0.3c-0.3,0.5-0.7,0.9-1.2,1.2l-21.5,12.6
			c-0.6,0.3-1.2,0.5-1.9,0.5L328.9,327.8L328.9,327.8z"/>
		<path class="st10" d="M327.8,121.5l-33.6-10.8c-0.8-0.2-1.4-0.8-1.9-1.4l-0.2-0.3c-0.4-0.7-0.6-1.5-0.6-2.3l3.5-33.2
			c0.1-0.7,0.3-1.3,0.8-1.9l0.3-0.3c0.4-0.5,1-0.9,1.7-1.1l30.6-9.3c0.6-0.2,1.2-0.2,1.8-0.1l0.3,0.1c0.6,0.1,1.2,0.5,1.7,0.9
			l17.2,16.9c0.8,0.8,1.1,1.8,1,2.9l-2.4,23.9c-0.1,1-0.6,1.9-1.5,2.5L327.8,121.5L327.8,121.5z"/>
		<path class="st11" d="M291.5,387.2l-25.1-21.7c-0.8-0.7-1.2-1.6-1.2-2.7v-14.4c0-0.6,0.1-1.2,0.4-1.7l0.2-0.3
			c0.3-0.5,0.7-1,1.2-1.3l36.6-24.1c0.6-0.4,1.3-0.6,2-0.6h0.3c0.7,0,1.5,0.2,2,0.7l18.1,13.2c0.8,0.5,1.3,1.4,1.4,2.3l5.1,31.5
			c0.1,0.8,0,1.6-0.4,2.3l-0.2,0.3c-0.4,0.7-1,1.2-1.7,1.5l-35.6,15c-0.6,0.3-1.2,0.3-1.9,0.2L291.5,387.2L291.5,387.2z"/>
		<path class="st12" d="M297.7,278.5L272,266.1c-0.5-0.3-1-0.6-1.3-1.1l-0.2-0.3c-0.3-0.5-0.6-1-0.6-1.6l-3.7-25.7
			c-0.1-0.7,0-1.5,0.4-2.1l0.2-0.3c0.3-0.7,0.9-1.2,1.5-1.5l39.4-20.1c0.6-0.3,1.2-0.4,1.9-0.4h0.3c0.7,0.1,1.3,0.3,1.9,0.7
			l17.3,13.3c0.9,0.7,1.4,1.7,1.4,2.9l-0.4,23.9c0,1.1-0.5,2.1-1.4,2.8L301,277.8c-0.5,0.4-1.1,0.6-1.8,0.7H297.7L297.7,278.5z"/>
		<path class="st13" d="M302.8,174.4l-23.1-10.6c-0.6-0.3-1.1-0.7-1.4-1.2l-0.2-0.3c-0.4-0.5-0.6-1.1-0.6-1.7l-2.6-33.7
			c0-0.6,0.1-1.3,0.3-1.8l0.1-0.3c0.3-0.6,0.8-1.1,1.4-1.5l11.3-6.7c0.9-0.5,1.9-0.6,2.9-0.3l32.8,10.5c0.7,0.2,1.3,0.7,1.8,1.3
			l0.2,0.3c0.5,0.6,0.7,1.4,0.7,2.2l-0.7,24.3c0,1-0.5,1.9-1.2,2.6l-18.5,16c-0.5,0.4-1.1,0.7-1.8,0.8L302.8,174.4L302.8,174.4z"/>
		<path class="st14" d="M237.2,317.9L236,294c0-0.6,0.1-1.2,0.4-1.8l0.2-0.4c0.3-0.5,0.7-1,1.2-1.4l27.8-18.4
			c0.5-0.3,1.1-0.5,1.7-0.6h0.3c0.6,0,1.3,0.1,1.9,0.4l25.8,13.4c1,0.5,1.6,1.4,1.8,2.5l4.7,24c0.1,0.7,0.1,1.4-0.2,2l-0.2,0.4
			c-0.3,0.6-0.7,1.2-1.3,1.6L264.7,339c-0.6,0.4-1.4,0.6-2.2,0.6h-0.3c-0.8-0.1-1.6-0.4-2.1-0.9L237.2,317.9L237.2,317.9z"/>
		<path class="st15" d="M269.4,34.8l16.3-25.1c0.5-0.8,1.4-1.4,2.4-1.6h0.2c1-0.2,2,0.1,2.8,0.7l36.9,30c0.5,0.4,0.8,0.8,1,1.4
			l0.1,0.4c0.2,0.5,0.3,1.1,0.3,1.7l-0.9,9.3c-0.1,0.7-0.3,1.4-0.8,1.9l-0.2,0.3c-0.5,0.6-1.1,1-1.8,1.2l-32.2,8.9
			c-1,0.3-2.2,0.1-3-0.6l-16.2-12c-0.7-0.5-1.1-1.2-1.3-2L269.4,34.8L269.4,34.8z"/>
		<path class="st16" d="M304.9,207.6l-39.8,20.3c-0.6,0.3-1.3,0.4-2,0.4h-0.3c-0.7-0.1-1.4-0.4-2-0.9l-21.1-19.5
			c-0.8-0.7-1.2-1.8-1.1-2.9l1.2-12.2c0.1-1.1,0.7-2.1,1.6-2.6l31.7-20.3c0.5-0.3,1.1-0.5,1.7-0.5h0.3c0.6,0,1.3,0.1,1.8,0.4
			l23.6,11.8c1,0.5,1.7,1.4,1.9,2.5l3.6,20.1c0.1,0.7,0,1.5-0.3,2.2L304.9,207.6L304.9,207.6z"/>
		<path class="st17" d="M229.3,114.7l36.4,10c0.7,0.2,1.3,0.6,1.8,1.2l0.3,0.3c0.5,0.6,0.7,1.3,0.8,2l2.6,32.8
			c0,0.6-0.1,1.3-0.4,1.8l-0.2,0.4c-0.3,0.6-0.7,1.1-1.3,1.4L239.1,184c-0.7,0.5-1.5,0.6-2.4,0.5h-0.3c-0.9-0.1-1.6-0.5-2.2-1.2
			l-21.6-24.9c-0.6-0.7-1-1.7-0.8-2.7l3.3-29.2c0.1-1,0.6-1.9,1.4-2.5L229.3,114.7L229.3,114.7z"/>
		<path class="st18" d="M231.2,285.9l-33.8-16.5c-0.7-0.3-1.2-0.9-1.6-1.5l-0.2-0.3c-0.4-0.7-0.5-1.5-0.3-2.3l5.4-29.7
			c0.2-1,0.8-1.8,1.6-2.4l30-18.7c0.6-0.4,1.4-0.6,2.2-0.5h0.4c0.8,0.1,1.5,0.4,2.1,0.9l21.5,19.5c0.6,0.6,1,1.3,1.1,2.1l3.8,26.7
			c0.1,0.7,0,1.3-0.3,1.9l-0.2,0.4c-0.3,0.6-0.7,1.1-1.3,1.5l-27.4,18.1c-0.5,0.3-1.1,0.5-1.7,0.6L231.2,285.9L231.2,285.9z"/>
		<path class="st19" d="M202.7,362.8l6.8-22.6c0.3-0.8,0.8-1.6,1.6-2l20.4-12.4c0.6-0.4,1.4-0.6,2.1-0.5h0.3
			c0.8,0.1,1.5,0.4,2.1,0.9l21.7,19.8c0.7,0.7,1.2,1.6,1.2,2.6V363c0,0.6-0.2,1.2-0.5,1.7l-0.2,0.3c-0.3,0.6-0.8,1-1.4,1.4
			l-17.2,9.5c-0.9,0.5-1.9,0.6-2.8,0.3L205.5,366c-0.9-0.3-1.6-0.9-2-1.7L202.7,362.8L202.7,362.8z"/>
		<path class="st20" d="M227,80.8l-23.1-31.4c-0.5-0.7-0.8-1.6-0.7-2.5l0.3-2.4c0.1-0.8,0.5-1.6,1.1-2.2l16.8-15.8
			c0.5-0.4,1-0.7,1.6-0.9l0.3-0.1c0.6-0.1,1.3-0.1,1.9,0.1l36,12.6c1.1,0.4,1.9,1.2,2.2,2.3l2.8,9c0.2,0.7,0.2,1.4,0,2.1l-0.1,0.4
			c-0.2,0.7-0.6,1.3-1.2,1.7l-33.7,26.5c-0.7,0.6-1.7,0.9-2.6,0.7L227,80.8L227,80.8z"/>
		<path class="st21" d="M269.8,119.3l-36.3-9.9c-0.8-0.2-1.4-0.7-1.9-1.3l-0.2-0.2c-0.5-0.7-0.7-1.5-0.7-2.3l1-15.8
			c0.1-1,0.6-1.9,1.3-2.5L268.7,59c0.6-0.5,1.3-0.7,2.1-0.8h0.4c0.8,0,1.5,0.2,2.1,0.6l13.8,9.7c0.5,0.4,0.9,0.9,1.2,1.4l0.1,0.3
			c0.3,0.6,0.4,1.3,0.3,1.9l-4.6,36.8c-0.1,1.1-0.8,2-1.7,2.6L269.8,119.3L269.8,119.3z"/>
		<path class="st22" d="M171.9,308.9l8-27.5c0.3-1,1-1.8,1.9-2.2l9.2-4.3c1-0.5,2.1-0.4,3.1,0l33.4,16.3c0.6,0.3,1,0.7,1.4,1.2
			l0.2,0.3c0.3,0.5,0.5,1.1,0.6,1.8l1.1,21.8c0,0.6-0.1,1.3-0.4,1.8l-0.2,0.3c-0.3,0.6-0.7,1-1.3,1.4l-20.4,12.3
			c-0.6,0.3-1.2,0.5-1.9,0.5h-0.4c-0.7,0-1.3-0.2-1.9-0.6l-30.5-20c-0.6-0.4-1.1-1-1.4-1.7L171.9,308.9L171.9,308.9z"/>
		<path class="st23" d="M172.8,209.2l2-30.7c0-0.7,0.3-1.3,0.7-1.8l0.2-0.3c0.4-0.5,0.9-1,1.5-1.2l27.5-11c0.7-0.3,1.4-0.3,2.1-0.2
			l0.4,0.1c0.7,0.2,1.4,0.6,1.9,1.1l22.5,25.7c0.6,0.7,0.9,1.5,0.9,2.4l-0.4,11.8c0,0.6-0.2,1.1-0.5,1.6l-0.2,0.3
			c-0.3,0.5-0.7,0.9-1.2,1.2l-30.6,19.1c-0.6,0.4-1.3,0.6-2,0.5h-0.4c-0.7,0-1.4-0.3-2-0.7l-20.8-15.5c-0.5-0.4-0.8-0.8-1.1-1.4
			L172.8,209.2L172.8,209.2z"/>
		<path class="st24" d="M209.6,120l-38.8-13.5c-0.6-0.2-1.1-0.6-1.5-1l-0.2-0.2c-0.5-0.5-0.7-1.2-0.8-1.9l-1.6-13
			c-0.1-1.1,0.2-2.2,1-2.9l29-29.5c0.7-0.7,1.7-1.1,2.8-1h0.2c1,0.1,2,0.6,2.6,1.4L223.9,88c0.5,0.7,0.7,1.5,0.7,2.3l-1.1,18.3
			c-0.1,1-0.5,1.9-1.3,2.5l-9.7,7.9c-0.5,0.4-1,0.6-1.6,0.7L209.6,120L209.6,120z"/>
		<path class="st25" d="M178.9,373.8l-39-32l0,0l0.4-1.3c0.2-0.6,0.6-1.1,1-1.5l24.5-21.3c0.6-0.5,1.3-0.8,2.1-0.9h0.4
			c0.8-0.1,1.5,0.2,2.2,0.6l29.8,19.7c0.6,0.4,1.1,1,1.4,1.7l0.1,0.3c0.3,0.7,0.3,1.5,0.1,2.3l-6.7,22.8c-0.2,0.8-0.8,1.5-1.5,2
			l-11.1,7.2c-0.6,0.4-1.4,0.6-2.1,0.6L178.9,373.8L178.9,373.8z"/>
		<path class="st26" d="M171.2,169.8L140.1,153c-0.6-0.3-1.1-0.8-1.4-1.4l-0.1-0.3c-0.4-0.6-0.5-1.4-0.4-2.1l1.1-11.4
			c0.1-0.9,0.5-1.7,1.1-2.3l24.6-22.3c0.5-0.4,1-0.7,1.7-0.8l0.4-0.1c0.6-0.1,1.3-0.1,1.9,0.1l36.4,12.7c0.7,0.3,1.4,0.8,1.8,1.4
			l0.2,0.3c0.4,0.7,0.6,1.5,0.5,2.2l-2.3,25.6c-0.1,0.6-0.3,1.3-0.7,1.8l-0.2,0.3c-0.4,0.5-1,1-1.6,1.2L171.2,169.8L171.2,169.8z"/>
		<path class="st27" d="M130.9,56.8l7.1-15.7c0.4-0.9,1.1-1.6,2-1.9l25.7-9.2c0.9-0.3,1.9-0.3,2.8,0.2l26.1,13.3
			c0.6,0.3,1,0.7,1.4,1.2l0,0c0.5,0.7,0.7,1.6,0.5,2.5l-0.2,1.2c-0.1,0.7-0.5,1.4-1,2l-30.9,31.2c-0.6,0.6-1.4,1-2.3,1h-0.3
			c-0.9,0-1.7-0.2-2.4-0.8L132.6,60c-0.6-0.5-1-1.1-1.2-1.9L130.9,56.8L130.9,56.8z"/>
		<path class="st28" d="M133.8,130.2l-29.3-25.4c-0.7-0.6-1.2-1.6-1.2-2.6L102.4,77c0-0.7,0.2-1.4,0.5-2l0.2-0.3
			c0.4-0.6,0.9-1.1,1.5-1.4l19.1-9.2c0.6-0.3,1.3-0.4,1.9-0.3h0.4c0.7,0.1,1.3,0.4,1.9,0.8l30.5,25.5c0.6,0.5,1.1,1.3,1.2,2.1
			l2.3,12.5c0.1,0.6,0.1,1.2-0.1,1.8l-0.1,0.4c-0.2,0.6-0.5,1.1-1,1.5l-23,20.9c-0.6,0.6-1.4,0.9-2.3,0.9H133.8L133.8,130.2z"/>
		<path class="st29" d="M121.1,214.9l-8.2-33.5c-0.1-0.6-0.1-1.2,0-1.8l0.1-0.4c0.2-0.6,0.5-1.1,1-1.6l19.2-18.1
			c0.5-0.5,1.2-0.8,2-0.9l0.4-0.1c0.7-0.1,1.5,0,2.1,0.4l28.8,15.5c0.6,0.3,1.1,0.8,1.4,1.4l0.2,0.3c0.3,0.6,0.5,1.3,0.4,1.9
			l-1.9,28.7c0,0.7-0.3,1.4-0.8,2l-0.2,0.3c-0.5,0.6-1.1,1-1.9,1.2l-35.4,9.2c-1.2,0.3-2.4,0-3.3-0.8L121.1,214.9L121.1,214.9z"/>
		<path class="st30" d="M134.4,334.3l-20.8-15c-0.7-0.5-1.2-1.3-1.4-2.2l-4.9-26.8c-0.1-0.6-0.1-1.2,0.1-1.8l0.1-0.4
			c0.2-0.6,0.5-1.1,1-1.5l22.5-20.3c0.5-0.4,1.1-0.7,1.7-0.8l0.4-0.1c0.6-0.1,1.3-0.1,1.9,0.2l34.6,13.2c0.8,0.3,1.5,0.9,1.9,1.7
			l0.1,0.3c0.4,0.8,0.5,1.7,0.3,2.6l-7.3,26.1c-0.2,0.7-0.6,1.3-1.1,1.7L138,333.3c-0.6,0.5-1.3,0.8-2.1,0.9L134.4,334.3
			L134.4,334.3z"/>
		<path class="st31" d="M175.5,274.3l-38.3-14.6c-0.6-0.2-1.1-0.6-1.5-1.1l-0.2-0.3c-0.4-0.5-0.6-1.1-0.7-1.7l-4.1-26.8
			c-0.1-0.9,0.1-1.7,0.5-2.4l0.2-0.3c0.5-0.7,1.2-1.3,2.1-1.5l34.6-9c1-0.3,2.1-0.1,3,0.6l20.8,15.5c0.5,0.4,0.9,0.9,1.2,1.5
			l0.1,0.3c0.3,0.6,0.3,1.3,0.2,2l-5.6,30.3c-0.2,1.1-0.9,2.1-1.9,2.5L175.5,274.3L175.5,274.3z"/>
		<path class="st32" d="M101.7,282.6l-22.3-10.3c-0.7-0.3-1.2-0.8-1.6-1.5l-0.2-0.3c-0.4-0.6-0.5-1.4-0.4-2.1l2.9-29.3
			c0.1-0.6,0.3-1.2,0.7-1.8L81,237c0.4-0.5,0.9-0.9,1.5-1.2l33.3-13.9c0.6-0.2,1.2-0.3,1.9-0.2h0.2c0.7,0.1,1.4,0.4,2,1l3.2,3.1
			c0.5,0.5,0.9,1.2,1,2l4.5,29.9c0.1,0.6,0,1.2-0.2,1.7l-0.1,0.4c-0.2,0.6-0.5,1-1,1.4l-22.4,20.1c-0.5,0.5-1.2,0.8-1.8,0.9
			L101.7,282.6L101.7,282.6z"/>
		<path class="st33" d="M101.5,111.5l29.3,25.6c0.9,0.7,1.3,1.8,1.2,3l-1,11.5c-0.1,0.9-0.5,1.7-1.2,2.3l-21.7,19.3
			c-0.9,0.8-2.1,1.1-3.3,0.8L88,169.3c-1-0.3-1.9-1-2.3-2l-14.1-32.5c-0.3-0.7-0.4-1.6-0.2-2.3l0.1-0.4c0.2-0.8,0.7-1.5,1.3-1.9
			l24.8-18.1c0.6-0.5,1.4-0.7,2.2-0.7L101.5,111.5L101.5,111.5z"/>
		<path class="st34" d="M106.5,182.2l7.4,30.2c0.2,0.8,0.1,1.7-0.3,2.4l-0.2,0.3c-0.4,0.8-1,1.3-1.8,1.7l-31.8,13.3
			c-0.6,0.2-1.2,0.3-1.8,0.2l-0.4-0.1c-0.6-0.1-1.2-0.3-1.7-0.7L55.8,214c-0.5-0.4-0.8-0.8-1.1-1.4l-0.1-0.3
			c-0.3-0.6-0.4-1.2-0.3-1.9l2-15.4c0.1-1.1,0.8-2,1.7-2.6L84.8,177c0.8-0.4,1.7-0.6,2.5-0.4l16.4,3.7c0.6,0.1,1.2,0.5,1.7,0.9
			L106.5,182.2L106.5,182.2z"/>
	</g>
</g>
<g id="Layer_3">
	<g class="st35">
		<path class="st36" d="M110.2,389.8c1,0,1.8,0.3,2.6,0.9c0.8,0.6,1.2,1.4,1.2,2.3c0,0.4-0.1,0.9-0.3,1.5L97.6,429
			c-0.3,0.7-0.9,1.3-1.6,1.7c-0.7,0.4-1.5,0.6-2.3,0.6s-1.6-0.2-2.3-0.6c-0.7-0.4-1.2-1-1.6-1.7l-16-34.6c-0.2-0.5-0.3-1-0.3-1.4
			c0-1,0.4-1.8,1.2-2.4c0.8-0.6,1.7-0.9,2.7-0.9c0.7,0,1.3,0.2,1.8,0.5c0.6,0.3,1,0.8,1.3,1.5l13.3,29.6l13.3-29.6
			C107.8,390.4,108.8,389.8,110.2,389.8z"/>
		<path class="st36" d="M120.1,429.7c-2.2-1.2-3.9-2.9-5.1-5.2c-1.2-2.2-1.8-4.9-1.8-7.8c0-3,0.6-5.6,1.8-7.8
			c1.2-2.2,2.9-3.9,5.1-5.1c2.2-1.2,4.7-1.8,7.6-1.8s5.4,0.6,7.6,1.8c2.2,1.2,3.9,2.9,5,5.1c1.2,2.2,1.8,4.8,1.8,7.8
			c0,3-0.6,5.6-1.8,7.8c-1.2,2.2-2.9,4-5,5.2c-2.2,1.2-4.7,1.8-7.6,1.8S122.3,430.9,120.1,429.7z M133.1,423.5
			c1.2-1.5,1.9-3.8,1.9-6.8c0-3-0.6-5.2-1.9-6.8c-1.2-1.6-3-2.3-5.3-2.3c-2.3,0-4.1,0.8-5.4,2.3c-1.3,1.6-1.9,3.8-1.9,6.8
			c0,3,0.6,5.3,1.9,6.8c1.2,1.5,3,2.3,5.3,2.3C130,425.8,131.8,425.1,133.1,423.5z"/>
		<path class="st36" d="M166.3,402.7c0.6,0.5,0.9,1.3,0.9,2.3c0,1-0.3,1.8-0.8,2.3c-0.5,0.5-1.4,0.8-2.7,1l-1.7,0.2
			c-2.3,0.2-4,1-5,2.3c-1.1,1.3-1.6,3-1.6,4.9v12.2c0,1.1-0.3,2-1,2.6c-0.7,0.6-1.6,0.9-2.6,0.9c-1,0-1.9-0.3-2.6-0.9
			c-0.7-0.6-1-1.5-1-2.6v-22.4c0-1.1,0.3-1.9,1-2.5c0.7-0.6,1.5-0.9,2.5-0.9c1,0,1.8,0.3,2.4,0.8c0.6,0.6,0.9,1.4,0.9,2.4v2.3
			c0.7-1.7,1.8-3,3.3-3.9c1.4-0.9,3.1-1.4,4.8-1.6l0.8-0.1C165,402,165.8,402.2,166.3,402.7z"/>
		<path class="st36" d="M175.1,429.7c-2.2-1.2-3.9-2.9-5.1-5.2c-1.2-2.2-1.8-4.9-1.8-7.8c0-3,0.6-5.6,1.8-7.8
			c1.2-2.2,2.9-3.9,5.1-5.1c2.2-1.2,4.7-1.8,7.6-1.8s5.4,0.6,7.6,1.8c2.2,1.2,3.9,2.9,5,5.1c1.2,2.2,1.8,4.8,1.8,7.8
			c0,3-0.6,5.6-1.8,7.8c-1.2,2.2-2.9,4-5,5.2c-2.2,1.2-4.7,1.8-7.6,1.8S177.3,430.9,175.1,429.7z M188,423.5
			c1.2-1.5,1.9-3.8,1.9-6.8c0-3-0.6-5.2-1.9-6.8c-1.2-1.6-3-2.3-5.3-2.3c-2.3,0-4.1,0.8-5.4,2.3c-1.3,1.6-1.9,3.8-1.9,6.8
			c0,3,0.6,5.3,1.9,6.8c1.2,1.5,3,2.3,5.3,2.3C185,425.8,186.8,425.1,188,423.5z"/>
		<path class="st36" d="M227.2,404.8c1.7,1.9,2.5,4.9,2.5,8.8v14.3c0,1.1-0.3,1.9-1,2.6s-1.5,0.9-2.6,0.9c-1.1,0-2-0.3-2.7-0.9
			c-0.7-0.6-1-1.5-1-2.6V414c0-2.2-0.4-3.8-1.2-4.8c-0.8-1-2.1-1.5-3.9-1.5c-2.1,0-3.8,0.7-5,2c-1.3,1.3-1.9,3.1-1.9,5.3v12.9
			c0,1.1-0.3,1.9-1,2.6c-0.7,0.6-1.5,0.9-2.7,0.9c-1.1,0-2-0.3-2.6-0.9s-1-1.5-1-2.6v-22.4c0-1,0.3-1.8,1-2.4
			c0.7-0.6,1.5-0.9,2.7-0.9c1,0,1.8,0.3,2.5,0.9c0.6,0.6,1,1.4,1,2.3v1.6c1-1.6,2.3-2.8,3.9-3.7c1.6-0.8,3.5-1.3,5.5-1.3
			C223,401.9,225.5,402.9,227.2,404.8z"/>
		<path class="st36" d="M242.4,429.7c-2.2-1.2-3.9-2.9-5.1-5.2c-1.2-2.2-1.8-4.9-1.8-7.8c0-3,0.6-5.6,1.8-7.8
			c1.2-2.2,2.9-3.9,5.1-5.1c2.2-1.2,4.7-1.8,7.6-1.8s5.4,0.6,7.6,1.8c2.2,1.2,3.9,2.9,5,5.1c1.2,2.2,1.8,4.8,1.8,7.8
			c0,3-0.6,5.6-1.8,7.8c-1.2,2.2-2.9,4-5,5.2c-2.2,1.2-4.7,1.8-7.6,1.8S244.5,430.9,242.4,429.7z M255.3,423.5
			c1.2-1.5,1.9-3.8,1.9-6.8c0-3-0.6-5.2-1.9-6.8c-1.2-1.6-3-2.3-5.3-2.3c-2.3,0-4.1,0.8-5.4,2.3c-1.3,1.6-1.9,3.8-1.9,6.8
			c0,3,0.6,5.3,1.9,6.8c1.2,1.5,3,2.3,5.3,2.3C252.3,425.8,254.1,425.1,255.3,423.5z"/>
		<path class="st36" d="M270.9,395.8c-0.8-0.7-1.2-1.7-1.2-2.8s0.4-2.1,1.2-2.8c0.8-0.7,1.8-1,3.1-1c1.3,0,2.3,0.3,3.1,1
			c0.8,0.7,1.2,1.6,1.2,2.8s-0.4,2.1-1.2,2.8c-0.8,0.7-1.8,1.1-3.1,1.1C272.7,396.9,271.6,396.5,270.9,395.8z M271.4,430.4
			c-0.7-0.6-1-1.5-1-2.6v-22.4c0-1.1,0.3-2,1-2.6c0.7-0.6,1.5-0.9,2.6-0.9c1,0,1.9,0.3,2.6,0.9s1,1.4,1,2.6v22.4c0,1.1-0.3,2-1,2.6
			c-0.7,0.6-1.6,0.9-2.6,0.9C273,431.3,272.1,431,271.4,430.4z"/>
		<path class="st36" d="M340.4,390.8c0.7,0.7,1,1.6,1,2.7v34.3c0,1.1-0.3,1.9-0.9,2.6c-0.6,0.6-1.4,0.9-2.4,0.9
			c-1,0-1.8-0.3-2.4-0.9s-0.9-1.5-0.9-2.6V404l-9.9,18.7c-0.5,0.9-1,1.5-1.5,1.9c-0.5,0.4-1.2,0.6-1.9,0.6s-1.4-0.2-1.9-0.6
			c-0.5-0.4-1-1-1.5-1.9l-9.9-18.4v23.6c0,1-0.3,1.9-0.9,2.5c-0.6,0.6-1.4,1-2.4,1c-1,0-1.8-0.3-2.4-0.9s-0.9-1.5-0.9-2.6v-34.3
			c0-1.1,0.3-2,1-2.7c0.6-0.7,1.5-1,2.6-1c1.5,0,2.7,0.8,3.5,2.5l12.9,24.5l12.8-24.5c0.9-1.7,2-2.5,3.4-2.5
			C338.9,389.8,339.7,390.2,340.4,390.8z"/>
		<path class="st36" d="M374.7,403c0.7,0.6,1,1.4,1,2.5V428c0,1-0.3,1.8-1,2.4c-0.7,0.6-1.6,0.9-2.6,0.9c-1,0-1.9-0.3-2.5-0.9
			c-0.6-0.6-0.9-1.4-0.9-2.4v-1.4c-0.9,1.5-2.1,2.7-3.6,3.6c-1.5,0.8-3.2,1.2-5.1,1.2c-7,0-10.4-3.9-10.4-11.7v-14.3
			c0-1,0.3-1.9,1-2.5c0.7-0.6,1.5-0.9,2.6-0.9c1.1,0,2,0.3,2.7,0.9c0.7,0.6,1,1.4,1,2.5v14.3c0,2,0.4,3.5,1.2,4.5
			c0.8,1,2.1,1.4,3.8,1.4c2,0,3.6-0.7,4.8-2c1.2-1.3,1.8-3.1,1.8-5.3v-12.9c0-1,0.3-1.9,1-2.5c0.7-0.6,1.5-0.9,2.6-0.9
			C373.1,402.1,374,402.4,374.7,403z"/>
		<path class="st36" d="M383.3,429c-1.2-0.7-1.9-1.8-1.9-3.1c0-0.8,0.2-1.4,0.6-1.9c0.4-0.5,0.9-0.7,1.6-0.7c0.7,0,1.6,0.3,2.7,0.9
			c1.2,0.6,2.4,1,3.4,1.3s2.3,0.5,3.9,0.5c1.6,0,2.9-0.3,3.8-0.8c0.9-0.5,1.4-1.3,1.4-2.3c0-0.7-0.2-1.2-0.6-1.6
			c-0.4-0.4-1-0.7-2-1.1c-0.9-0.3-2.4-0.7-4.3-1.1c-3.4-0.7-5.9-1.7-7.4-3c-1.5-1.3-2.2-3-2.2-5.3c0-1.7,0.5-3.2,1.5-4.6
			c1-1.4,2.4-2.4,4.1-3.2s3.8-1.1,6-1.1c1.6,0,3.2,0.2,4.7,0.6s2.9,1,4.1,1.8c1.2,0.8,1.9,1.8,1.9,3.1c0,0.8-0.2,1.4-0.6,1.9
			c-0.4,0.5-0.9,0.8-1.6,0.8c-0.4,0-0.8-0.1-1.2-0.3c-0.4-0.2-0.9-0.4-1.5-0.8c-1.1-0.6-2.1-1-2.9-1.3c-0.8-0.3-1.8-0.4-3-0.4
			c-1.4,0-2.6,0.3-3.4,0.9c-0.8,0.6-1.2,1.4-1.2,2.4c0,1,0.4,1.7,1.3,2.2c0.8,0.5,2.5,1,4.9,1.5c2.6,0.5,4.6,1.2,6.1,1.9
			c1.5,0.7,2.5,1.6,3.2,2.6s1,2.4,1,4c0,2.6-1.1,4.7-3.3,6.3c-2.2,1.6-5.1,2.4-8.7,2.4C389.3,431.5,385.9,430.6,383.3,429z"/>
		<path class="st36" d="M411.8,395.8c-0.8-0.7-1.2-1.7-1.2-2.8s0.4-2.1,1.2-2.8c0.8-0.7,1.8-1,3.1-1c1.3,0,2.3,0.3,3.1,1
			c0.8,0.7,1.2,1.6,1.2,2.8s-0.4,2.1-1.2,2.8c-0.8,0.7-1.8,1.1-3.1,1.1C413.6,396.9,412.6,396.5,411.8,395.8z M412.4,430.4
			c-0.7-0.6-1-1.5-1-2.6v-22.4c0-1.1,0.3-2,1-2.6c0.7-0.6,1.5-0.9,2.6-0.9s1.9,0.3,2.6,0.9c0.7,0.6,1,1.4,1,2.6v22.4
			c0,1.1-0.3,2-1,2.6c-0.7,0.6-1.6,0.9-2.6,0.9S413,431,412.4,430.4z"/>
		<path class="st36" d="M431.2,429.7c-2.1-1.2-3.8-2.9-5-5.1c-1.2-2.2-1.7-4.8-1.7-7.7c0-2.9,0.6-5.5,1.8-7.8s2.9-4,5.1-5.2
			c2.2-1.2,4.7-1.9,7.6-1.9c1.5,0,3,0.2,4.6,0.6c1.5,0.4,2.9,1,4,1.7c1.2,0.8,1.9,1.8,1.9,3.1c0,0.9-0.2,1.5-0.6,2.1
			c-0.4,0.5-0.9,0.8-1.6,0.8c-0.4,0-0.9-0.1-1.3-0.3s-0.9-0.4-1.4-0.7c-0.9-0.5-1.7-0.9-2.4-1.2c-0.8-0.3-1.7-0.4-2.7-0.4
			c-2.4,0-4.2,0.8-5.5,2.3c-1.3,1.6-1.9,3.8-1.9,6.8c0,2.9,0.6,5.1,1.9,6.7c1.3,1.6,3.1,2.3,5.5,2.3c1,0,1.8-0.1,2.6-0.4
			s1.6-0.7,2.5-1.2c0.6-0.3,1.1-0.6,1.5-0.8c0.4-0.2,0.8-0.3,1.3-0.3c0.6,0,1.1,0.3,1.6,0.8c0.4,0.5,0.6,1.2,0.6,2
			c0,0.7-0.1,1.2-0.4,1.7c-0.3,0.5-0.8,0.9-1.4,1.3c-1.2,0.8-2.6,1.4-4.2,1.8s-3.2,0.7-4.9,0.7C435.8,431.5,433.3,430.9,431.2,429.7
			z"/>
	</g>
	<g class="st35">
		<path class="st36" d="M171.1,459.4c1,0,1.8,0.3,2.6,0.9c0.8,0.6,1.2,1.4,1.2,2.3c0,0.4-0.1,0.9-0.3,1.5l-16.1,34.6
			c-0.3,0.7-0.9,1.3-1.6,1.7c-0.7,0.4-1.5,0.6-2.3,0.6s-1.6-0.2-2.3-0.6c-0.7-0.4-1.2-1-1.6-1.7l-16-34.6c-0.2-0.5-0.3-1-0.3-1.4
			c0-1,0.4-1.8,1.2-2.4c0.8-0.6,1.7-0.9,2.7-0.9c0.7,0,1.3,0.2,1.8,0.5c0.6,0.3,1,0.8,1.3,1.5l13.3,29.6l13.3-29.6
			C168.7,460,169.7,459.4,171.1,459.4z"/>
		<path class="st36" d="M179.5,465.4c-0.8-0.7-1.2-1.7-1.2-2.8s0.4-2.1,1.2-2.8c0.8-0.7,1.8-1,3.1-1c1.3,0,2.3,0.3,3.1,1
			c0.8,0.7,1.2,1.6,1.2,2.8s-0.4,2.1-1.2,2.8c-0.8,0.7-1.8,1.1-3.1,1.1C181.3,466.5,180.3,466.1,179.5,465.4z M180.1,500
			c-0.7-0.6-1-1.5-1-2.6v-22.4c0-1.1,0.3-2,1-2.6c0.7-0.6,1.5-0.9,2.6-0.9c1,0,1.9,0.3,2.6,0.9c0.7,0.6,1,1.4,1,2.6v22.4
			c0,1.1-0.3,2-1,2.6c-0.7,0.6-1.6,0.9-2.6,0.9C181.6,500.9,180.7,500.6,180.1,500z"/>
		<path class="st36" d="M193.8,498.6c-1.2-0.7-1.9-1.8-1.9-3.1c0-0.8,0.2-1.4,0.6-1.9c0.4-0.5,0.9-0.7,1.6-0.7
			c0.7,0,1.6,0.3,2.7,0.9c1.2,0.6,2.4,1,3.4,1.3c1,0.3,2.3,0.5,3.9,0.5c1.6,0,2.9-0.3,3.8-0.8c0.9-0.5,1.4-1.3,1.4-2.3
			c0-0.7-0.2-1.2-0.6-1.6c-0.4-0.4-1-0.7-2-1.1c-0.9-0.3-2.4-0.7-4.3-1.1c-3.4-0.7-5.9-1.7-7.4-3c-1.5-1.3-2.2-3-2.2-5.3
			c0-1.7,0.5-3.2,1.5-4.6c1-1.4,2.4-2.4,4.1-3.2c1.8-0.8,3.8-1.1,6-1.1c1.6,0,3.2,0.2,4.7,0.6c1.5,0.4,2.9,1,4.1,1.8
			c1.2,0.8,1.9,1.8,1.9,3.1c0,0.8-0.2,1.4-0.6,1.9c-0.4,0.5-0.9,0.8-1.6,0.8c-0.4,0-0.8-0.1-1.2-0.3c-0.4-0.2-0.9-0.4-1.5-0.8
			c-1.1-0.6-2.1-1-2.9-1.3c-0.8-0.3-1.8-0.4-3-0.4c-1.4,0-2.6,0.3-3.4,0.9c-0.8,0.6-1.2,1.4-1.2,2.4c0,1,0.4,1.7,1.3,2.2
			c0.9,0.5,2.5,1,4.9,1.5c2.6,0.5,4.6,1.2,6.1,1.9c1.5,0.7,2.5,1.6,3.2,2.6s1,2.4,1,4c0,2.6-1.1,4.7-3.3,6.3
			c-2.2,1.6-5.1,2.4-8.7,2.4C199.8,501.1,196.4,500.2,193.8,498.6z"/>
		<path class="st36" d="M247,472.6c0.7,0.6,1,1.4,1,2.5v22.5c0,1-0.3,1.8-1,2.4c-0.7,0.6-1.6,0.9-2.6,0.9c-1,0-1.9-0.3-2.5-0.9
			c-0.6-0.6-0.9-1.4-0.9-2.4v-1.4c-0.9,1.5-2.1,2.7-3.6,3.6c-1.5,0.8-3.2,1.2-5.1,1.2c-7,0-10.4-3.9-10.4-11.7v-14.3
			c0-1,0.3-1.9,1-2.5c0.7-0.6,1.5-0.9,2.6-0.9c1.1,0,2,0.3,2.7,0.9c0.7,0.6,1,1.4,1,2.5v14.3c0,2,0.4,3.5,1.2,4.5s2.1,1.4,3.8,1.4
			c2,0,3.6-0.7,4.8-2c1.2-1.3,1.8-3.1,1.8-5.3v-12.9c0-1,0.3-1.9,1-2.5c0.7-0.6,1.5-0.9,2.6-0.9C245.4,471.7,246.3,472,247,472.6z"
			/>
		<path class="st36" d="M276.6,474.5c1.9,2,2.9,4.9,2.9,8.9v14.2c0,1-0.3,1.9-0.9,2.5c-0.6,0.6-1.5,0.9-2.6,0.9
			c-1,0-1.8-0.3-2.5-0.9c-0.6-0.6-1-1.4-1-2.4v-1.3c-0.7,1.5-1.7,2.7-3.1,3.5c-1.4,0.8-3,1.3-4.9,1.3c-1.9,0-3.6-0.4-5.2-1.2
			c-1.5-0.8-2.8-1.8-3.7-3.2c-0.9-1.4-1.3-2.9-1.3-4.5c0-2.1,0.5-3.7,1.6-4.9c1.1-1.2,2.8-2.1,5.2-2.6c2.4-0.5,5.7-0.8,9.9-0.8h1.4
			v-1.3c0-1.9-0.4-3.3-1.2-4.1c-0.8-0.9-2.1-1.3-3.9-1.3c-1.1,0-2.3,0.2-3.4,0.5c-1.2,0.3-2.5,0.8-4.1,1.4c-1,0.5-1.7,0.8-2.2,0.8
			c-0.7,0-1.3-0.3-1.7-0.8c-0.4-0.5-0.7-1.2-0.7-2c0-0.7,0.2-1.2,0.5-1.7c0.3-0.5,0.9-0.9,1.7-1.4c1.4-0.7,3-1.3,4.8-1.7
			c1.9-0.4,3.7-0.6,5.5-0.6C271.7,471.5,274.7,472.5,276.6,474.5z M270.7,493.9c1.2-1.3,1.8-3,1.8-5v-1.2h-1c-2.6,0-4.6,0.1-6,0.3
			c-1.4,0.2-2.5,0.6-3.1,1.2c-0.6,0.6-0.9,1.4-0.9,2.4c0,1.2,0.4,2.3,1.3,3c0.9,0.8,1.9,1.2,3.2,1.2
			C267.9,495.8,269.5,495.2,270.7,493.9z"/>
		<path class="st36" d="M287.8,500c-0.7-0.6-1-1.5-1-2.6v-34.6c0-1.1,0.3-2,1-2.6c0.7-0.6,1.5-0.9,2.6-0.9s1.9,0.3,2.6,0.9
			c0.7,0.6,1,1.4,1,2.6v34.6c0,1.1-0.3,2-1,2.6c-0.7,0.6-1.6,0.9-2.6,0.9S288.5,500.6,287.8,500z"/>
		<path class="st36" d="M302,465.4c-0.8-0.7-1.2-1.7-1.2-2.8s0.4-2.1,1.2-2.8c0.8-0.7,1.8-1,3.1-1c1.3,0,2.3,0.3,3.1,1
			c0.8,0.7,1.2,1.6,1.2,2.8s-0.4,2.1-1.2,2.8c-0.8,0.7-1.8,1.1-3.1,1.1C303.8,466.5,302.8,466.1,302,465.4z M302.6,500
			c-0.7-0.6-1-1.5-1-2.6v-22.4c0-1.1,0.3-2,1-2.6c0.7-0.6,1.5-0.9,2.6-0.9c1,0,1.9,0.3,2.6,0.9s1,1.4,1,2.6v22.4c0,1.1-0.3,2-1,2.6
			c-0.7,0.6-1.6,0.9-2.6,0.9C304.1,500.9,303.2,500.6,302.6,500z"/>
		<path class="st36" d="M316.3,498.6c-1.2-0.7-1.9-1.8-1.9-3.1c0-0.8,0.2-1.4,0.6-1.9c0.4-0.5,0.9-0.7,1.6-0.7
			c0.7,0,1.6,0.3,2.7,0.9c1.2,0.6,2.4,1,3.4,1.3s2.3,0.5,3.9,0.5c1.6,0,2.9-0.3,3.8-0.8c0.9-0.5,1.4-1.3,1.4-2.3
			c0-0.7-0.2-1.2-0.6-1.6c-0.4-0.4-1-0.7-2-1.1c-0.9-0.3-2.4-0.7-4.3-1.1c-3.4-0.7-5.9-1.7-7.4-3c-1.5-1.3-2.2-3-2.2-5.3
			c0-1.7,0.5-3.2,1.5-4.6c1-1.4,2.4-2.4,4.1-3.2c1.8-0.8,3.8-1.1,6-1.1c1.6,0,3.2,0.2,4.7,0.6c1.5,0.4,2.9,1,4.1,1.8
			c1.2,0.8,1.9,1.8,1.9,3.1c0,0.8-0.2,1.4-0.6,1.9c-0.4,0.5-0.9,0.8-1.6,0.8c-0.4,0-0.8-0.1-1.2-0.3c-0.4-0.2-0.9-0.4-1.5-0.8
			c-1.1-0.6-2.1-1-2.9-1.3c-0.8-0.3-1.8-0.4-3-0.4c-1.4,0-2.6,0.3-3.4,0.9c-0.8,0.6-1.2,1.4-1.2,2.4c0,1,0.4,1.7,1.3,2.2
			c0.8,0.5,2.5,1,4.9,1.5c2.6,0.5,4.6,1.2,6.1,1.9c1.5,0.7,2.5,1.6,3.2,2.6c0.6,1,1,2.4,1,4c0,2.6-1.1,4.7-3.3,6.3
			c-2.2,1.6-5.1,2.4-8.7,2.4C322.3,501.1,318.9,500.2,316.3,498.6z"/>
		<path class="st36" d="M368.4,493.6c0.4,0.5,0.6,1.2,0.6,2c0,1.2-0.7,2.2-2.1,3c-1.3,0.7-2.8,1.3-4.5,1.8c-1.7,0.4-3.2,0.7-4.8,0.7
			c-4.6,0-8.2-1.3-10.8-3.9c-2.7-2.6-4-6.2-4-10.8c0-2.9,0.6-5.5,1.7-7.7c1.2-2.2,2.8-4,4.9-5.2c2.1-1.2,4.5-1.9,7.2-1.9
			c2.6,0,4.8,0.6,6.7,1.7c1.9,1.1,3.4,2.7,4.4,4.8c1,2,1.6,4.5,1.6,7.2c0,1.7-0.7,2.5-2.2,2.5H350c0.2,2.7,1,4.6,2.3,5.9
			c1.3,1.3,3.1,1.9,5.6,1.9c1.2,0,2.3-0.2,3.3-0.5c0.9-0.3,2-0.7,3.2-1.3c1.2-0.6,2-0.9,2.6-0.9C367.5,492.8,368,493.1,368.4,493.6z
			 M352.1,478.5c-1.2,1.2-1.9,3-2.1,5.3h13.1c-0.1-2.4-0.7-4.1-1.7-5.4c-1.1-1.2-2.6-1.8-4.5-1.8
			C354.8,476.6,353.3,477.3,352.1,478.5z"/>
		<path class="st36" d="M393.4,472.3c0.6,0.5,0.9,1.3,0.9,2.3c0,1-0.3,1.8-0.8,2.3c-0.5,0.5-1.4,0.8-2.7,1l-1.7,0.2
			c-2.3,0.2-4,1-5,2.3c-1.1,1.3-1.6,3-1.6,4.9v12.2c0,1.1-0.3,2-1,2.6c-0.7,0.6-1.6,0.9-2.6,0.9c-1,0-1.9-0.3-2.6-0.9
			c-0.7-0.6-1-1.5-1-2.6V475c0-1.1,0.3-1.9,1-2.5c0.7-0.6,1.5-0.9,2.5-0.9c1,0,1.8,0.3,2.4,0.8c0.6,0.6,0.9,1.4,0.9,2.4v2.3
			c0.7-1.7,1.8-3,3.3-3.9c1.4-0.9,3.1-1.4,4.8-1.6l0.8-0.1C392,471.6,392.8,471.8,393.4,472.3z"/>
	</g>
</g>
</svg>
